<svg width="49" height="48" viewBox="0 0 49 48" fill="none" xmlns="http://www.w3.org/2000/svg">
<path fill-rule="evenodd" clip-rule="evenodd" d="M41.96 14.24L41.68 13.74C41.3188 13.1354 40.8094 12.6329 40.2 12.28L26.78 4.54C26.1724 4.1875 25.4826 4.00124 24.78 4H24.2C23.4974 4.00124 22.8076 4.1875 22.2 4.54L8.78 12.3C8.17394 12.6505 7.67052 13.1539 7.32 13.76L7.04 14.26C6.6875 14.8677 6.50124 15.5575 6.5 16.26V31.76C6.50124 32.4626 6.6875 33.1524 7.04 33.76L7.32 34.26C7.67958 34.859 8.18098 35.3604 8.78 35.72L22.22 43.46C22.8246 43.8198 23.5164 44.0066 24.22 44H24.78C25.4826 43.9988 26.1724 43.8126 26.78 43.46L40.2 35.7C40.812 35.3574 41.3174 34.852 41.66 34.24L41.96 33.74C42.3082 33.1306 42.4942 32.442 42.5 31.74V16.24C42.4988 15.5375 42.3126 14.8477 41.96 14.24ZM24.2 8H24.78L36.5 14.76L24.5 21.68L12.5 14.76L24.2 8ZM26.5 39L38.2 32.24L38.5 31.74V18.22L26.5 25.16V39Z" fill="#F3F4F6"/>
</svg>
