<svg width="188" height="142" viewBox="0 0 188 142" fill="none" xmlns="http://www.w3.org/2000/svg">
<path opacity="0.18" d="M82.9813 20.5574C72.7398 29.1185 64.5225 39.9979 53.6363 47.6956C43.5755 54.8137 31.4363 59.0882 22.7792 67.8605C15.3909 75.3507 11.2513 85.4607 11.2604 95.9928C11.2694 106.525 15.4263 116.628 22.8274 124.105C33.1774 134.562 48.4854 138.498 63.1549 139.277C77.8244 140.056 92.5481 138.118 107.224 138.909C121.11 139.657 134.936 142.845 148.792 141.783C162.648 140.72 177.342 134.182 182.824 121.376C188.885 107.206 181.939 91.2616 177.149 76.6088C173.526 65.5339 171.134 54.0922 170.016 42.4913C168.353 25.1398 165.299 1.04448 143.509 0.0845355C121.512 -0.749967 99.9745 6.5349 82.9813 20.5574Z" fill="#798FFE"/>
<path d="M145.503 123.38C112.603 127.607 79.2703 124.359 46.0998 124.455C43.69 124.455 40.4067 125.457 40.7862 127.83C60.0644 132.394 80.0836 132.751 99.9039 133.089L135.972 133.692C144.22 133.831 152.473 133.97 160.672 133.505C163.739 133.33 166.884 133.046 169.649 131.694C177.414 127.89 173.565 122.885 166.865 122.034C159.787 121.141 152.545 122.475 145.503 123.38Z" fill="url(#paint0_linear)"/>
<path d="M97.4942 31.3163V120.791C97.4942 124.661 100.916 127.788 105.133 127.782L145.955 127.722C150.172 127.722 153.594 124.57 153.594 120.706V31.2257C153.594 27.3557 150.172 24.2223 145.955 24.2344L105.133 24.2948C100.916 24.3008 97.4942 27.4463 97.4942 31.3163ZM101.386 31.3767C101.386 28.9919 103.495 27.0539 106.097 27.0539H111.85V27.5852C111.886 28.3508 112.223 29.0709 112.788 29.588C113.353 30.1051 114.098 30.3771 114.863 30.3443L136.81 30.308C137.574 30.3376 138.319 30.0638 138.883 29.546C139.447 29.0283 139.784 28.3085 139.822 27.5429V27.0116H145.762C148.364 27.0116 150.473 28.9376 150.473 31.3223V120.525C150.473 122.91 148.364 124.842 145.762 124.848L106.097 124.914C103.495 124.914 101.386 122.988 101.386 120.604V31.3767Z" fill="#798FFE"/>
<path d="M95.5724 33.1512V122.632C95.5724 126.502 98.9943 129.629 103.211 129.623L144.039 129.557C148.256 129.557 151.678 126.411 151.678 122.541V33.0667C151.678 29.1967 148.256 26.0633 144.039 26.0693L103.211 26.1358C98.9943 26.1418 95.5724 29.2873 95.5724 33.1512ZM99.4702 33.2176C99.4702 30.8027 101.573 28.8949 104.175 28.8888H109.929V29.4201C109.965 30.1852 110.302 30.9048 110.867 31.4209C111.431 31.9371 112.177 32.2076 112.941 32.1732H134.882C135.647 32.2027 136.393 31.928 136.957 31.409C137.521 30.89 137.858 30.1686 137.894 29.402V28.8767H143.84C146.437 28.8767 148.545 30.8027 148.545 33.1875V122.366C148.545 124.745 146.437 126.683 143.84 126.689L104.205 126.773C101.603 126.773 99.5003 124.847 99.5003 122.463L99.4702 33.2176Z" fill="white"/>
<path d="M99.4702 33.1937V122.439C99.4702 124.854 101.573 126.755 104.175 126.749L143.846 126.689C146.443 126.689 148.551 124.745 148.551 122.366V33.1393C148.551 30.7244 146.443 28.8226 143.846 28.8286H137.9V29.3539C137.864 30.1205 137.527 30.8419 136.963 31.3609C136.399 31.8799 135.653 32.1546 134.888 32.1251H112.947C112.183 32.1595 111.437 31.8889 110.873 31.3728C110.308 30.8567 109.971 30.1371 109.935 29.372V28.8407H104.205C101.573 28.895 99.4702 30.8331 99.4702 33.1937Z" stroke="url(#paint1_linear)" stroke-width="0.585459" stroke-miterlimit="10"/>
<path d="M99.4702 33.1937V122.439C99.4702 124.854 101.573 126.756 104.175 126.749L143.846 126.689C146.443 126.689 148.551 124.745 148.551 122.366V33.1393C148.551 30.7244 146.443 28.8226 143.846 28.8286H137.9V29.3539C137.864 30.1205 137.527 30.8419 136.963 31.3609C136.399 31.8799 135.653 32.1546 134.888 32.1251H112.947C112.183 32.1595 111.437 31.8889 110.873 31.3728C110.308 30.8567 109.971 30.1371 109.935 29.372V28.8407H104.205C101.573 28.895 99.4702 30.8331 99.4702 33.1937Z" fill="#798FFE"/>
<path opacity="0.28" d="M142.792 56.3052H107.579V64.9266H142.792V56.3052Z" fill="white"/>
<path opacity="0.28" d="M142.792 43.5781H107.579V52.1995H142.792V43.5781Z" fill="white"/>
<path d="M125.363 61.02V61.5694L143.967 75.1295C143.967 75.1295 144.31 78.3233 144.81 78.7036C145.592 79.1083 146.414 79.4319 147.262 79.6696V81.7887L151.702 84.8738L153.106 85.3568V80.8891L147.033 76.0592L145.135 73.8857L144.4 74.4895L125.363 61.02Z" fill="url(#paint2_linear)"/>
<path d="M120.929 30.2172L128.466 30.2052V29.5894L120.929 29.6014V30.2172Z" fill="url(#paint3_linear)"/>
<path d="M118.947 30.5721C119.4 30.5676 119.763 30.2262 119.759 29.8094C119.755 29.3926 119.385 29.0583 118.932 29.0628C118.48 29.0672 118.116 29.4087 118.12 29.8254C118.125 30.2422 118.495 30.5765 118.947 30.5721Z" fill="url(#paint4_linear)"/>
<path d="M2.81424 81.2031C2.85039 82.7185 3.60344 84.1132 4.34444 85.4293C7.73017 91.4245 11.5316 97.3351 16.7849 101.785C24.4962 108.329 34.6052 111.149 44.3647 113.793C43.4912 113.364 42.4369 108.861 42.0514 107.87C41.2983 105.926 40.5934 103.97 39.8645 102.02C38.7198 98.935 36.3101 96.4536 33.9666 94.1715C28.6546 89.0507 22.2099 85.2608 15.1583 83.1109C11.1538 81.8958 6.99803 81.2535 2.81424 81.2031Z" fill="#798FFE"/>
<path d="M2.81424 81.2031C2.85039 82.7185 3.60344 84.1132 4.34444 85.4293C7.73017 91.4245 11.5316 97.3351 16.7849 101.785C24.4962 108.329 34.6052 111.149 44.3647 113.793C43.4912 113.364 42.4369 108.861 42.0514 107.87C41.2983 105.926 40.5934 103.97 39.8645 102.02C38.7198 98.935 36.3101 96.4536 33.9666 94.1715C28.6546 89.0507 22.2099 85.2608 15.1583 83.1109C11.1538 81.8958 6.99803 81.2535 2.81424 81.2031Z" fill="url(#paint5_linear)"/>
<path d="M40.9971 84.5603C40.2018 78.9817 39.3825 73.3186 37.1414 68.1506C34.9003 62.9826 31.0146 58.2734 25.7432 56.3052C25.5946 64.2987 25.442 72.2923 25.2854 80.2858C25.201 84.9044 25.1227 89.6076 26.442 94.033C28.7554 101.779 36.8041 110.877 44.5635 113.437C45.7142 109.712 43.7864 104.073 43.2382 100.203L40.9971 84.5603Z" fill="#798FFE"/>
<path d="M40.9971 84.5603C40.2018 78.9817 39.3825 73.3186 37.1414 68.1506C34.9003 62.9826 31.0146 58.2734 25.7432 56.3052C25.5946 64.2987 25.442 72.2923 25.2854 80.2858C25.201 84.9044 25.1227 89.6076 26.442 94.033C28.7554 101.779 36.8041 110.877 44.5635 113.437C45.7142 109.712 43.7864 104.073 43.2382 100.203L40.9971 84.5603Z" fill="url(#paint6_linear)"/>
<path d="M71.0168 73.1737C70.7457 73.1737 70.577 72.8839 70.5107 72.6182C70.4869 72.3469 70.3723 72.0916 70.1854 71.8937C70.077 71.8092 69.9203 71.7549 69.8782 71.6221C69.8631 71.5626 69.8631 71.5004 69.8782 71.4409C69.9526 71.1337 70.0938 70.8467 70.2917 70.6004C70.4895 70.3541 70.7392 70.1546 71.0228 70.0161C71.312 70.2697 71.7518 70.2636 72.0289 70.5293C72.3202 70.8571 72.5452 71.2385 72.6916 71.6522L75.3905 78.0761L76.2339 80.0805C76.5582 80.7202 76.7411 81.4223 76.7701 82.1392C76.7798 82.4986 76.677 82.852 76.476 83.1498C76.275 83.4476 75.986 83.6748 75.6496 83.7995C75.4183 83.8497 75.1788 83.8476 74.9485 83.7933C74.7182 83.739 74.5028 83.6339 74.3182 83.4856C73.9502 83.1826 73.6573 82.7982 73.4627 82.3626C72.7639 80.9499 72.6615 79.3439 72.4506 77.7561C72.2397 76.1682 72.0891 74.3329 71.0168 73.1737Z" fill="#FFBBAB"/>
<path d="M70.7578 78.2206C70.6918 78.167 70.6153 78.1281 70.5333 78.1062C70.4513 78.0844 70.3656 78.0801 70.2818 78.0938C70.1937 78.1261 70.1165 78.1826 70.0589 78.2568C69.7691 78.5976 69.5636 79.0021 69.4589 79.4374C69.3542 79.8727 69.3534 80.3266 69.4565 80.7623C69.5195 81.1413 69.6911 81.4937 69.9505 81.7766C70.2369 82.0279 70.5709 82.2188 70.9325 82.3381L73.8362 83.4973C74.0558 83.6083 74.3024 83.6543 74.5471 83.6301C74.6745 83.5936 74.7933 83.5321 74.8967 83.4492C75.0001 83.3662 75.0861 83.2636 75.1496 83.1471C75.3331 82.8553 75.4499 82.5264 75.4916 82.184C75.5332 81.8416 75.4987 81.4943 75.3905 81.1668C74.8483 79.4703 72.1494 79.0416 70.7578 78.2206Z" fill="#FFBBAB"/>
<path d="M67.7214 74.3203L70.0288 76.5179L71.7096 78.1179C72.0891 78.4801 72.5711 78.8061 72.7277 79.3253C72.9208 80.058 72.8526 80.8353 72.535 81.523C72.1766 82.2535 71.9115 83.0263 71.7458 83.8232C71.7458 83.5334 70.824 82.8633 70.6192 82.7003C70.1734 82.3501 69.7035 82.0422 69.2577 81.698C68.8119 81.3539 68.2576 80.9977 68.101 80.5509C68.056 80.2635 68.0419 79.972 68.0588 79.6815L67.7636 75.0327L67.7214 74.3203Z" fill="#798FFE"/>
<path d="M67.7214 74.3203L70.0288 76.5179L71.7096 78.1179C72.0891 78.4801 72.5711 78.8061 72.7277 79.3253C72.9208 80.058 72.8526 80.8353 72.535 81.523C72.1766 82.2535 71.9115 83.0263 71.7458 83.8232C71.7458 83.5334 70.824 82.8633 70.6192 82.7003C70.1734 82.3501 69.7035 82.0422 69.2577 81.698C68.8119 81.3539 68.2576 80.9977 68.101 80.5509C68.056 80.2635 68.0419 79.972 68.0588 79.6815L67.7636 75.0327L67.7214 74.3203Z" fill="url(#paint7_linear)"/>
<path d="M100.747 102.697C100.197 103.246 99.7601 103.899 99.4623 104.618C99.1646 105.337 99.0116 106.108 99.0123 106.887C99.0072 107.718 99.1798 108.542 99.5184 109.301C99.8745 110.116 100.409 110.84 101.083 111.419C101.757 111.998 102.552 112.418 103.41 112.646V114.005H32.1653C30.3244 113.951 28.577 113.18 27.2939 111.856C26.0108 110.532 25.293 108.759 25.293 106.914C25.293 105.068 26.0108 103.295 27.2939 101.971C28.577 100.647 30.3244 99.8766 32.1653 99.8228H103.41V101.181C102.405 101.442 101.486 101.965 100.747 102.697Z" fill="#798FFE"/>
<path d="M103.41 112.622V113.98H32.1653C30.6832 113.982 29.2381 113.517 28.0346 112.65C26.8312 111.783 25.9305 110.559 25.4601 109.151C28.165 109.627 45.2985 112.362 54.8352 106.911L99.5184 109.326C99.8803 110.131 100.418 110.846 101.091 111.416C101.765 111.987 102.557 112.399 103.41 112.622Z" fill="url(#paint8_linear)"/>
<path d="M100.747 102.697C100.011 103.433 99.4823 104.351 99.2132 105.358C98.9441 106.364 98.9446 107.425 99.2146 108.431C99.4846 109.438 100.015 110.355 100.751 111.091C101.488 111.827 102.405 112.355 103.41 112.622V112.821H60.7572C59.1882 112.821 57.6834 112.197 56.574 111.085C55.4645 109.973 54.8412 108.465 54.8412 106.893C54.8412 105.32 55.4645 103.812 56.574 102.7C57.6834 101.588 59.1882 100.964 60.7572 100.964H103.41V101.157C102.402 101.425 101.483 101.956 100.747 102.697Z" fill="white"/>
<path d="M92.4758 110.811C92.7303 110.921 93.0065 110.97 93.2831 110.956L97.5002 111.058C97.6139 111.065 97.7278 111.052 97.8376 111.022C97.9602 110.96 98.0603 110.86 98.124 110.738C98.1877 110.616 98.2118 110.477 98.193 110.34C98.1355 109.981 97.9665 109.65 97.7102 109.393C97.4539 109.136 97.1232 108.967 96.7652 108.909C96.0496 108.801 95.3259 108.757 94.6025 108.776C94.3088 108.776 94.0193 108.707 93.7568 108.575C93.4943 108.443 93.2662 108.251 93.0903 108.016C92.759 107.599 92.3614 107.17 91.8131 107.569C90.9516 108.227 91.6565 110.37 92.4758 110.811Z" fill="#FFBBAB"/>
<path d="M71.3241 91.6961C71.3241 91.6961 83.1018 91.3278 86.0297 92.5595C88.9576 93.7911 93.506 107.967 93.506 107.967L91.0481 108.909C91.0481 108.909 86.8671 100.082 85.4935 99.2912C84.12 98.5003 69.4023 95.6023 69.4023 95.6023C69.4023 95.6023 68.2757 94.739 71.3241 91.6961Z" fill="#473F47"/>
<path d="M71.3241 91.6961C71.3241 91.6961 83.1018 91.3278 86.0297 92.5595C88.9576 93.7911 93.506 107.967 93.506 107.967L91.0481 108.909C91.0481 108.909 86.8671 100.082 85.4935 99.2912C84.12 98.5003 69.4023 95.6023 69.4023 95.6023C69.4023 95.6023 68.2757 94.739 71.3241 91.6961Z" fill="url(#paint9_linear)"/>
<path d="M100.747 116.872C100.193 117.426 99.7537 118.085 99.4558 118.811C99.1579 119.536 99.0071 120.314 99.0123 121.099C99.0113 121.92 99.1837 122.733 99.5184 123.483C99.8733 124.299 100.408 125.024 101.082 125.603C101.756 126.182 102.552 126.601 103.41 126.828V128.187H32.1653C31.2365 128.187 30.3168 128.003 29.4587 127.647C28.6006 127.291 27.8209 126.769 27.1641 126.111C26.5074 125.452 25.9864 124.671 25.631 123.811C25.2755 122.951 25.0926 122.029 25.0926 121.099C25.0926 120.168 25.2755 119.246 25.631 118.386C25.9864 117.526 26.5074 116.745 27.1641 116.087C27.8209 115.429 28.6006 114.906 29.4587 114.55C30.3168 114.194 31.2365 114.011 32.1653 114.011H103.41V115.363C102.406 115.625 101.488 116.145 100.747 116.872Z" fill="#798FFE"/>
<path d="M103.41 126.774V128.132H32.1653C30.6832 128.134 29.2381 127.669 28.0346 126.802C26.8312 125.935 25.9305 124.711 25.4601 123.302C28.165 123.779 45.2985 126.514 54.8352 121.068L99.5184 123.453C99.8763 124.264 100.412 124.984 101.086 125.559C101.76 126.134 102.554 126.549 103.41 126.774Z" fill="url(#paint10_linear)"/>
<path d="M100.747 116.872C100.018 117.609 99.4937 118.525 99.2282 119.529C98.9627 120.533 98.9649 121.588 99.2345 122.591C99.5041 123.594 100.032 124.508 100.765 125.242C101.497 125.976 102.41 126.504 103.41 126.773V126.973H60.7572C59.1882 126.973 57.6834 126.348 56.574 125.236C55.4645 124.124 54.8412 122.616 54.8412 121.044C54.8412 119.472 55.4645 117.964 56.574 116.852C57.6834 115.74 59.1882 115.115 60.7572 115.115H103.41V115.308C102.401 115.586 101.482 116.125 100.747 116.872Z" fill="white"/>
<path d="M89.2467 114.952C89.478 114.952 89.7079 114.988 89.9275 115.061C90.0371 115.097 90.1339 115.165 90.2066 115.254C90.2792 115.344 90.3245 115.453 90.3371 115.568C90.3287 115.682 90.2924 115.791 90.2314 115.887C90.1704 115.983 90.0867 116.062 89.9877 116.118C89.7949 116.238 89.5781 116.311 89.3853 116.438C89.225 116.573 89.0537 116.694 88.8732 116.8C88.5481 116.894 88.2011 116.88 87.8852 116.758C86.409 116.401 84.882 116.305 83.3729 116.474C83.2249 116.492 83.0752 116.492 82.9271 116.474C82.7131 116.412 82.5184 116.296 82.3614 116.137C82.2044 115.979 82.0901 115.783 82.0295 115.568C81.7272 114.647 81.6366 113.668 81.7644 112.707C81.7653 112.601 81.7922 112.497 81.8427 112.405C81.8996 112.327 81.9767 112.266 82.0656 112.23C83.4994 111.517 84.2826 112.936 85.3308 113.624C86.4971 114.404 87.8477 114.862 89.2467 114.952Z" fill="#FFBBAB"/>
<path d="M63.3357 92.4329C63.3357 92.4329 62.9802 97.7941 67.7576 99.4121C71.071 100.529 74.8785 100.324 78.3064 100.016C78.9088 99.9615 79.5715 99.8167 80.186 99.8227C81.3909 99.8227 81.1439 100.62 81.1318 101.634C81.1318 104.202 81.1097 106.768 81.0655 109.332C80.9554 110.677 81.1468 112.03 81.6258 113.292L85.1501 112.35C85.0553 108.634 85.2689 104.916 85.7887 101.235C86.0176 99.6416 86.361 97.6492 85.2947 96.2908C84.2588 95.0746 82.8918 94.1871 81.3607 93.737L71.8181 90.7183L63.3357 92.4329Z" fill="#473F47"/>
<path d="M70.2095 67.8181C70.3842 68.114 70.7457 68.2891 70.8662 68.6211C70.9867 68.9532 70.7336 69.4181 70.5891 69.8286C70.3963 70.378 70.4565 70.9938 70.2637 71.5493C70.2306 71.6702 70.1637 71.7791 70.071 71.8632C69.9812 71.9209 69.8808 71.9599 69.7758 71.9779C69.3678 72.0624 68.9497 72.0868 68.5347 72.0504C68.4568 72.0228 68.3717 72.0228 68.2938 72.0504C68.2337 72.1057 68.1953 72.1806 68.1853 72.2617C67.9448 73.3086 67.9614 74.3983 68.2335 75.4374C68.3239 75.7755 68.4203 76.1981 68.1672 76.4396C68.0798 76.5251 67.9684 76.582 67.8479 76.6026C67.0587 76.7958 66.2997 76.2102 65.7635 75.6004C65.2922 75.0462 64.8877 74.4383 64.5586 73.7892C64.4513 73.6029 64.3798 73.3981 64.3478 73.1854C64.3329 72.932 64.3656 72.6781 64.4441 72.4368C64.668 71.5711 64.8052 70.6853 64.8538 69.7924C64.9141 68.6513 64.8538 67.4619 65.2635 66.4054C65.3944 66.0433 65.6371 65.7324 65.9563 65.5179C66.3325 65.3434 66.7489 65.2745 67.1612 65.3187C67.9967 65.2634 68.8212 65.5338 69.4625 66.0733C69.6492 66.2726 69.9866 67.4499 70.2095 67.8181Z" fill="#FFBBAB"/>
<path d="M71.324 91.6966C70.7902 92.1632 70.161 92.5073 69.4806 92.7048C68.9986 92.8739 68.5046 93.0308 68.0046 93.1878C67.2958 93.4015 66.6033 93.6658 65.9322 93.9787C65.2213 94.2142 64.6911 94.3893 64.2875 94.51C63.9238 94.6392 63.5538 94.7501 63.179 94.8421C63.2158 94.8212 63.254 94.803 63.2935 94.7877C63.2935 94.7877 63.0525 93.7191 62.691 92.2218C62.0886 89.4688 61.0765 85.2848 60.5885 83.7211C60.3585 82.7323 60.2994 81.7113 60.4138 80.7024C60.6608 77.3819 61.9741 73.047 64.3839 73.3247C64.3839 73.3247 67.7937 75.0937 68.8239 76.4702C69.7637 77.7441 71.0168 78.704 71.0288 80.4247C71.059 82.8397 70.0529 85.1037 70.2457 87.6032C70.2491 87.9676 70.34 88.3259 70.5107 88.6477C70.7999 89.1005 71.3722 89.3178 71.6554 89.7706C71.8153 90.0844 71.8694 90.4417 71.8096 90.7889C71.7499 91.1361 71.5795 91.4545 71.324 91.6966Z" fill="#798FFE"/>
<path d="M67.5528 91.2193C67.9537 91.7913 68.1158 92.4975 68.0046 93.1875C67.9466 93.4203 67.8208 93.6305 67.6431 93.7913C67.3544 94.0068 67.0171 94.1478 66.6611 94.2018C65.8815 94.38 65.0867 94.4831 64.2875 94.5097C64.0044 94.5097 63.7212 94.5097 63.4381 94.5097C63.414 93.6898 63.1615 92.893 62.7091 92.2095C62.1067 89.4564 61.0946 85.2725 60.6066 83.7088C60.3766 82.7199 60.3175 81.6989 60.4319 80.6901C60.8367 80.1809 61.1729 79.6207 61.4319 79.0237C61.6127 78.5528 61.9139 78.0396 62.4199 78.0034C62.926 77.9672 63.2212 78.3415 63.4983 78.6917C65.2213 80.8953 66.4804 83.6182 67.9925 85.9849C68.0705 86.0853 68.1148 86.2079 68.1191 86.3351C68.0844 86.4679 68.0003 86.5824 67.8841 86.655C67.2335 87.1984 66.5407 87.8625 66.4684 88.6957C66.3961 89.5288 67.0588 90.4284 67.5528 91.2193Z" fill="url(#paint11_linear)"/>
<path d="M65.8298 88.5328C65.9392 88.8594 66.1021 89.1654 66.3117 89.4384C66.8676 89.9757 67.6059 90.2821 68.3781 90.2958C69.2628 90.3872 70.1515 90.4335 71.0409 90.4346C71.6433 90.4346 72.5952 90.1448 73.1013 90.6278C73.2217 90.7486 73.3121 90.8935 73.4386 91.0082C73.7718 91.2648 74.1886 91.3875 74.6074 91.3523C75.5201 91.3689 76.4301 91.2467 77.3063 90.9901C77.3433 90.9872 77.3789 90.9742 77.4091 90.9526C77.4394 90.931 77.4632 90.9016 77.478 90.8675C77.4929 90.8334 77.4982 90.7959 77.4934 90.759C77.4886 90.7221 77.4739 90.6872 77.4509 90.658C77.2726 90.1289 77.008 89.6332 76.6677 89.1909C76.4963 88.9712 76.278 88.7927 76.0289 88.6684C75.7798 88.5441 75.5061 88.4771 75.2279 88.4725C74.9397 88.5061 74.6553 88.5667 74.3784 88.6536C73.5365 88.776 72.6783 88.7184 71.8602 88.4845C70.9066 88.3546 69.9877 88.0388 69.1552 87.5548C68.9264 87.3663 68.7397 87.1319 68.607 86.8665C68.2278 86.1497 67.9249 85.3949 67.7034 84.6145C67.613 84.3127 67.4805 83.9685 67.1792 83.8659C67.0686 83.8412 66.9542 83.8386 66.8425 83.8583C66.7309 83.878 66.6242 83.9195 66.5286 83.9806C65.789 84.3196 65.204 84.9253 64.8899 85.6771C64.667 86.4499 65.5225 87.7782 65.8298 88.5328Z" fill="#FFBBAB"/>
<path d="M65.7213 77.8104C65.7213 77.8104 67.8721 83.6425 68.2938 84.0712C68.7155 84.4998 64.149 87.0899 64.149 87.0899C64.149 87.0899 61.1729 81.4147 61.3115 78.9575C61.45 76.5002 64.0405 75.492 65.7213 77.8104Z" fill="#798FFE"/>
<path d="M69.1131 65.9828C69.0449 66.5446 68.7777 67.0631 68.36 67.4439C67.9564 67.8243 67.4564 68.0778 67.0407 68.4461C66.8184 68.6103 66.641 68.828 66.5252 69.0793C66.4093 69.3305 66.3587 69.6069 66.378 69.883C66.2165 69.8195 66.038 69.8143 65.8731 69.8683C65.7083 69.9223 65.5673 70.0321 65.4743 70.1788C65.4353 70.279 65.4237 70.3877 65.4406 70.4938C65.4576 70.6 65.5025 70.6997 65.5707 70.7826C65.6454 70.8678 65.7384 70.935 65.8428 70.9789C65.9472 71.0228 66.0601 71.0424 66.1732 71.0362C65.741 71.21 65.3699 71.5083 65.1068 71.8935C64.4381 72.8896 63.661 73.6383 63.902 74.9665C64.0827 75.854 64.5586 76.657 64.8116 77.5264C65.0498 78.346 65.0879 79.2109 64.9226 80.0483C64.7573 80.8857 64.3936 81.6711 63.8621 82.3381C63.3305 83.0052 62.6468 83.5344 61.8684 83.8811C61.09 84.2279 60.2399 84.382 59.3897 84.3305C57.7872 84.24 56.1184 83.1955 55.8593 81.6077C55.5702 79.7964 57.1124 78.1965 57.2871 76.3793C57.3775 75.3952 57.0642 74.3809 57.2871 73.4209C57.6185 72.0927 58.8896 71.2716 59.8535 70.3056C61.9199 68.2227 61.932 64.7814 65.1912 63.906C66.7093 63.5377 69.2637 63.9845 69.1131 65.9828Z" fill="#FC682D"/>
<path d="M75.499 90.6095L79.3004 80.9194H89.3491L84.2946 92.5596L68.9022 91.98L69.3962 91.0442L75.499 90.6095Z" fill="#798FFE"/>
<path d="M75.499 90.6095L79.3004 80.9194H89.3491L84.2946 92.5596L68.9022 91.98L69.3962 91.0442L75.499 90.6095Z" fill="url(#paint12_linear)"/>
<path d="M96.9761 108.661C96.7382 108.564 96.4792 108.531 96.2245 108.565C95.9699 108.599 95.7285 108.698 95.5242 108.854C95.3193 109.06 95.2169 109.343 95.0121 109.549C94.7199 109.778 94.359 109.901 93.9879 109.899C93.3999 109.942 92.8086 109.91 92.2288 109.802C92.1338 109.779 92.0346 109.779 91.9396 109.802C91.8633 109.834 91.7986 109.889 91.7544 109.96C91.7102 110.03 91.6887 110.112 91.6926 110.195C91.7043 110.359 91.7494 110.519 91.8252 110.666C91.9105 110.905 92.0632 111.115 92.265 111.269C92.4678 111.373 92.6943 111.421 92.9216 111.408C94.4825 111.484 96.0469 111.448 97.6026 111.3C97.9928 111.29 98.3675 111.145 98.6629 110.889C99.5304 109.996 97.6508 108.879 96.9761 108.661Z" fill="#798FFE"/>
<path d="M87.2165 114.095C87.0117 114.095 86.8068 114.095 86.614 114.095C86.5402 114.083 86.4649 114.083 86.3911 114.095C86.2499 114.154 86.1301 114.256 86.0477 114.385C85.8489 114.638 85.6682 114.989 85.367 115.115C85.0918 115.228 84.8015 115.299 84.5055 115.327C83.8376 115.383 83.1651 115.336 82.5114 115.188C82.4164 115.164 82.3172 115.164 82.2222 115.188C82.1453 115.219 82.0802 115.274 82.0359 115.344C81.9916 115.415 81.9704 115.497 81.9752 115.58C81.9869 115.745 82.032 115.905 82.1078 116.051C82.1865 116.334 82.3587 116.582 82.5961 116.754C82.8336 116.926 83.1223 117.013 83.4151 116.999H85.873C86.6321 116.999 87.3912 116.999 88.1503 116.969C88.6634 116.96 89.1734 116.887 89.6684 116.752C90.0107 116.667 90.3168 116.474 90.542 116.202C90.649 116.063 90.707 115.892 90.707 115.716C90.707 115.54 90.649 115.369 90.542 115.23C90.3899 115.086 90.2031 114.984 89.9998 114.934L88.4033 114.379C88.1002 114.264 87.7878 114.175 87.4695 114.113L87.2165 114.095Z" fill="#798FFE"/>
<path d="M149.304 74.369H149.262C149.072 74.2294 148.904 74.0626 148.762 73.874C148.33 73.3282 147.801 72.8676 147.202 72.5156C146.955 72.3707 146.599 72.2559 146.407 72.4733C146.34 72.5457 146.31 72.6484 146.238 72.7148C146.069 72.8718 145.798 72.7691 145.605 72.6484C145.412 72.5276 145.165 72.3948 144.967 72.5156C144.907 72.5618 144.86 72.6215 144.829 72.6898C144.797 72.758 144.783 72.8329 144.786 72.908C144.81 73.2581 144.922 73.5965 145.111 73.8921C145.399 74.4711 145.73 75.028 146.099 75.5584C146.19 75.7185 146.323 75.8505 146.483 75.9399C146.644 76.0294 146.825 76.0728 147.009 76.0655C147.582 76.0652 148.146 76.2106 148.648 76.4882C148.742 76.579 148.862 76.6399 148.991 76.6632C149.358 76.6995 149.485 75.5644 149.545 75.3048C149.575 75.178 149.738 74.7554 149.678 74.6286C149.618 74.5019 149.425 74.4354 149.304 74.369Z" fill="#FFBBAB"/>
<path d="M158.919 96.6832L159.504 125.675H163.426L164.558 102.636L167.028 125.675L171.522 126.43L172.553 95.7354L158.919 96.6832Z" fill="#798FFE"/>
<path d="M158.919 96.6832L159.504 125.675H163.426L164.558 102.636L167.028 125.675L171.522 126.43L172.553 95.7354L158.919 96.6832Z" fill="url(#paint13_linear)"/>
<path d="M168.835 125.222V98.3495L172.553 95.7354L171.299 125.675L168.835 125.222Z" fill="url(#paint14_linear)"/>
<path d="M148.244 77.7015L148.328 77.7739C149.166 78.4984 155.75 84.1796 156.762 83.8475C158.121 83.2327 159.434 82.5205 160.69 81.7163L161.022 81.5171V73.5356L156.889 78.4742L149.581 74.1575L148.244 77.7015Z" fill="#798FFE"/>
<path d="M148.328 77.7738C149.166 78.4983 155.75 84.1795 156.762 83.8474C158.121 83.2326 159.434 82.5204 160.69 81.7162C160.732 81.392 160.746 81.0648 160.733 80.7382C160.733 80.0318 160.98 78.3232 159.895 78.7338C159.016 79.0719 158.377 80.2129 157.485 80.6416C157.207 80.8919 156.861 81.0556 156.491 81.1125C155.889 81.1487 155.407 80.6597 154.985 80.231C153.517 78.717 151.794 77.4744 149.895 76.5603C149.813 76.5113 149.719 76.4863 149.624 76.4879C149.515 76.5158 149.42 76.5796 149.352 76.669C149.015 77.0433 148.672 77.4116 148.328 77.7738Z" fill="url(#paint15_linear)"/>
<path d="M169.643 71.0361C170.689 71.5615 171.709 72.1399 172.697 72.7689C174.794 74.1152 174.42 74.7371 174.035 77.0615C173.221 82.0308 172.818 87.0589 172.83 92.0947C172.911 93.3083 172.824 94.5274 172.571 95.7171C172.354 96.4657 171.854 97.0936 171.793 97.8845C168.558 98.3313 161.154 99.9976 158.937 96.677C156.817 93.4893 160.636 82.1873 159.925 77.1279C159.214 72.0685 165.721 71.5312 165.721 71.5312L169.643 71.0361Z" fill="#798FFE"/>
<path d="M165.185 94.2742L171.046 98.2408L172.004 97.0333C172.571 94.9901 172.835 92.8745 172.787 90.7544C172.649 87.5908 172.787 88.7198 172.787 88.7198L164.54 93.9482L165.185 94.2742Z" fill="url(#paint16_linear)"/>
<path d="M162.263 66.134C162.259 66.4691 162.279 66.804 162.323 67.1362C162.479 67.8266 162.75 68.4858 163.124 69.0863C163.221 69.2976 163.365 69.4836 163.546 69.6296C163.92 69.8151 164.352 69.8497 164.751 69.7262C164.846 69.7051 164.945 69.7051 165.04 69.7262C165.269 69.8168 165.299 70.1307 165.287 70.3783L165.221 71.5314C165.197 71.6888 165.224 71.8498 165.299 71.9903C165.378 72.087 165.486 72.1566 165.606 72.1895C166.031 72.3292 166.486 72.3508 166.922 72.2519C167.358 72.1531 167.759 71.9374 168.082 71.628C168.243 71.4789 168.374 71.3006 168.468 71.1028C168.546 70.9098 168.594 70.7063 168.613 70.499C168.751 69.3942 168.613 68.2773 168.715 67.1724C168.858 66.2598 168.884 65.3326 168.793 64.4133C168.707 63.9213 168.499 63.4586 168.19 63.0666C167.881 62.6746 167.48 62.3656 167.022 62.1674C166.072 61.8664 165.048 61.8897 164.112 62.2338C163.653 62.3632 163.2 62.5163 162.757 62.6927C162.541 62.7497 162.354 62.8853 162.233 63.073C162.058 63.4292 162.233 63.9424 162.233 64.3228C162.275 64.9325 162.263 65.5363 162.263 66.134Z" fill="#FFBBAB"/>
<path d="M169.992 62.0041C169.125 60.7 167.1 60.6758 165.691 60.4887C165.489 60.4772 165.293 60.4127 165.124 60.3015C165.083 60.2712 165.049 60.2329 165.023 60.1889C164.997 60.1448 164.98 60.096 164.973 60.0452C164.966 59.9945 164.97 59.9429 164.983 59.8936C164.997 59.8443 165.02 59.7982 165.052 59.7581L163.98 60.3619V59.5649C163.612 59.8566 163.223 60.1209 162.817 60.3558V59.6434C162.344 60.0125 161.991 60.5148 161.804 61.0859C161.618 61.6571 161.605 62.2711 161.769 62.8493C162.112 64.0568 163.932 64.1836 164.95 64.1292C165.23 64.1051 165.513 64.1051 165.793 64.1292C166.073 64.1603 166.333 64.2884 166.528 64.4915C166.754 64.8746 166.881 65.3085 166.896 65.7533C166.899 65.7796 166.91 65.8045 166.926 65.8257C166.944 65.8283 166.962 65.8283 166.98 65.8257C167.293 65.862 167.582 65.4937 167.872 65.6205C167.942 65.6596 168 65.7164 168.041 65.7852C168.083 65.8541 168.105 65.9326 168.107 66.0129C168.129 66.2057 168.102 66.401 168.028 66.5804C167.99 66.6494 167.965 66.7253 167.956 66.8038C167.959 66.8558 167.972 66.9069 167.992 66.9547L168.191 67.5042C168.242 67.7067 168.364 67.8843 168.534 68.0053C168.662 68.0442 168.798 68.0508 168.93 68.0245C169.061 67.9981 169.184 67.9397 169.287 67.8543C169.444 67.7745 169.582 67.6612 169.691 67.5223C169.763 67.3994 169.812 67.2643 169.836 67.1238C170.101 65.756 170.21 64.3625 170.161 62.9701C170.174 62.6397 170.116 62.3104 169.992 62.0041Z" fill="#963637"/>
<path d="M168.619 70.5107C168.619 70.5107 169.516 71.1145 169.492 71.8209C169.468 72.5272 164.6 86.2503 164.6 86.2503C164.6 86.2503 164.492 73.0948 164.6 72.485C164.766 71.8904 164.986 71.3124 165.257 70.7583C165.257 70.7583 167.203 72.171 168.619 70.5107Z" fill="white"/>
<path d="M167.028 71.7485L167.353 72.8111L166.805 73.276L166.54 80.7322L164.606 86.2444L164.558 80.6417L166.221 73.2398L165.612 72.1953L166.414 71.7485H167.028Z" fill="#212741"/>
<path d="M163.426 91.153C163.999 91.8795 164.649 92.5415 165.365 93.1272L165.811 93.4834C165.973 93.6242 166.172 93.7163 166.384 93.7491C166.53 93.7458 166.674 93.7108 166.805 93.6464C169.639 92.5408 172.416 91.2935 175.125 89.9093C176.264 89.3055 177.505 88.5629 177.746 87.3072C177.808 86.8718 177.798 86.4291 177.715 85.997C177.286 82.8241 176.458 79.7184 175.251 76.7537C174.908 75.9145 174.486 74.2965 173.589 73.735L173.48 73.6807L173.354 73.6203C172.149 73.1856 171.101 74.3931 170.769 75.4316C170.394 76.9162 170.442 78.4768 170.908 79.9355C171.374 81.3833 171.718 82.8677 171.938 84.373C171.97 84.5761 171.949 84.7839 171.878 84.9767C171.763 85.1689 171.604 85.3304 171.414 85.4476L163.426 91.153Z" fill="#798FFE"/>
<path d="M163.426 125.675L163.215 127.812L161.871 128.06L161.269 127.529L160.233 128.344H156.202C156.202 128.344 155.178 126.575 157.407 125.971L159.63 125.367L163.426 125.675Z" fill="#212741"/>
<path d="M171.293 125.675L171.083 127.812L169.739 128.06L169.137 127.529L168.113 128.344H164.082C164.082 128.344 163.058 126.575 165.287 125.971L167.51 125.367L171.293 125.675Z" fill="#212741"/>
<path d="M164.558 102.636L162.757 101.169L161.486 125.367L163.426 125.675L164.558 102.636Z" fill="url(#paint17_linear)"/>
<path d="M165.365 93.1273L165.811 93.4835C165.973 93.6243 166.172 93.7163 166.383 93.7491C166.53 93.7459 166.674 93.7108 166.805 93.6465C169.639 92.5408 172.416 91.2935 175.125 89.9093C176.264 89.3056 177.505 88.563 177.746 87.3072C177.808 86.8718 177.798 86.4291 177.715 85.9971C177.286 82.8242 176.458 79.7184 175.251 76.7538C174.908 75.9146 174.486 74.2966 173.589 73.7351L173.48 73.6807L173.354 73.6204C172.788 73.6126 172.234 73.7833 171.77 74.1083C171.306 74.4333 170.956 74.8963 170.769 75.4316C170.769 75.4316 175.059 84.2221 174.872 85.5503C174.685 86.8785 165.685 91.153 165.685 91.153L165.365 93.1273Z" fill="url(#paint18_linear)"/>
<path d="M161.437 91.8896C161.202 91.9491 160.983 92.0582 160.793 92.2096C160.701 92.2882 160.634 92.391 160.597 92.5062C160.561 92.6215 160.558 92.7446 160.588 92.8616C160.659 92.9974 160.742 93.1267 160.835 93.248C160.949 93.4533 160.968 93.7129 161.07 93.9242C161.277 94.2463 161.598 94.479 161.968 94.5762C163.04 94.9626 164.347 95.017 165.215 94.2744C165.817 93.737 167.106 91.5092 165.715 91.1711C165.122 91.1352 164.528 91.1964 163.956 91.3523C163.103 91.4616 162.261 91.6413 161.437 91.8896Z" fill="#FFBBAB"/>
<path d="M125.544 60.8208L125.363 61.02L151.485 77.0735L151.678 76.6388L125.544 60.8208Z" fill="white"/>
<path d="M144.798 73.0405C144.756 72.8447 144.788 72.6403 144.888 72.4669C144.958 72.3902 145.044 72.3303 145.14 72.2917C145.236 72.253 145.339 72.2365 145.443 72.2435C145.542 72.2352 145.642 72.2455 145.738 72.2737C145.955 72.3522 146.081 72.5695 146.22 72.7567C146.264 72.8148 146.314 72.8674 146.37 72.9137C146.447 72.9646 146.53 73.0052 146.617 73.0344C146.741 73.0726 146.858 73.1275 146.967 73.1974C147.134 73.3248 147.273 73.4851 147.376 73.6684C147.478 73.8144 147.565 73.9701 147.636 74.1332C147.714 74.3453 147.749 74.5713 147.738 74.7974C147.745 74.8739 147.726 74.9505 147.684 75.0147C147.627 75.0759 147.55 75.1127 147.467 75.1173C147.135 75.1439 146.805 75.0589 146.527 74.8758C146.244 74.7068 145.991 74.4834 145.726 74.2721C145.49 74.1479 145.285 73.9732 145.124 73.7603C144.964 73.5473 144.853 73.3016 144.798 73.0405Z" fill="#FFBBAB"/>
<defs>
<linearGradient id="paint0_linear" x1="102.862" y1="84.8859" x2="119.385" y2="239.34" gradientUnits="userSpaceOnUse">
<stop offset="0.01"/>
<stop offset="0.08" stop-opacity="0.69"/>
<stop offset="0.21" stop-opacity="0.32"/>
<stop offset="1" stop-opacity="0"/>
</linearGradient>
<linearGradient id="paint1_linear" x1="168.508" y1="45.9568" x2="94.7244" y2="110.054" gradientUnits="userSpaceOnUse">
<stop stop-color="white"/>
<stop offset="1" stop-color="#CBCBCB"/>
</linearGradient>
<linearGradient id="paint2_linear" x1="6920.89" y1="2826.41" x2="6253.31" y2="5352.58" gradientUnits="userSpaceOnUse">
<stop offset="0.01"/>
<stop offset="0.08" stop-opacity="0.69"/>
<stop offset="0.21" stop-opacity="0.32"/>
<stop offset="1" stop-opacity="0"/>
</linearGradient>
<linearGradient id="paint3_linear" x1="-20335.8" y1="62.6197" x2="-20335.8" y2="67.6746" gradientUnits="userSpaceOnUse">
<stop stop-color="white"/>
<stop offset="1" stop-color="#CBCBCB"/>
</linearGradient>
<linearGradient id="paint4_linear" x1="-3055.87" y1="453.501" x2="-3056.44" y2="462.407" gradientUnits="userSpaceOnUse">
<stop stop-color="white"/>
<stop offset="1" stop-color="#CBCBCB"/>
</linearGradient>
<linearGradient id="paint5_linear" x1="44.3346" y1="79.7843" x2="-16.3386" y2="131.36" gradientUnits="userSpaceOnUse">
<stop offset="0.01"/>
<stop offset="0.13" stop-opacity="0.69"/>
<stop offset="0.25" stop-opacity="0.32"/>
<stop offset="1" stop-opacity="0"/>
</linearGradient>
<linearGradient id="paint6_linear" x1="-161.111" y1="13309.8" x2="4853.75" y2="11713.7" gradientUnits="userSpaceOnUse">
<stop offset="0.01"/>
<stop offset="0.13" stop-opacity="0.69"/>
<stop offset="0.25" stop-opacity="0.32"/>
<stop offset="1" stop-opacity="0"/>
</linearGradient>
<linearGradient id="paint7_linear" x1="642.829" y1="1631.09" x2="807.755" y2="1535.94" gradientUnits="userSpaceOnUse">
<stop offset="0.01"/>
<stop offset="0.08" stop-opacity="0.69"/>
<stop offset="0.21" stop-opacity="0.32"/>
<stop offset="1" stop-opacity="0"/>
</linearGradient>
<linearGradient id="paint8_linear" x1="7889.84" y1="982.083" x2="7909.47" y2="2800.8" gradientUnits="userSpaceOnUse">
<stop offset="0.01"/>
<stop offset="0.08" stop-opacity="0.69"/>
<stop offset="0.21" stop-opacity="0.32"/>
<stop offset="1" stop-opacity="0"/>
</linearGradient>
<linearGradient id="paint9_linear" x1="3773.87" y1="3323.17" x2="2587.12" y2="3810.32" gradientUnits="userSpaceOnUse">
<stop offset="0.01"/>
<stop offset="0.08" stop-opacity="0.69"/>
<stop offset="0.21" stop-opacity="0.32"/>
<stop offset="1" stop-opacity="0"/>
</linearGradient>
<linearGradient id="paint10_linear" x1="7889.84" y1="1161.42" x2="7909.43" y2="2978.52" gradientUnits="userSpaceOnUse">
<stop offset="0.01"/>
<stop offset="0.08" stop-opacity="0.69"/>
<stop offset="0.21" stop-opacity="0.32"/>
<stop offset="1" stop-opacity="0"/>
</linearGradient>
<linearGradient id="paint11_linear" x1="751.357" y1="2724.35" x2="1304.02" y2="2825.77" gradientUnits="userSpaceOnUse">
<stop offset="0.01"/>
<stop offset="0.08" stop-opacity="0.69"/>
<stop offset="0.21" stop-opacity="0.32"/>
<stop offset="1" stop-opacity="0"/>
</linearGradient>
<linearGradient id="paint12_linear" x1="2494.11" y1="1919.94" x2="2805.07" y2="1161.14" gradientUnits="userSpaceOnUse">
<stop offset="0.01"/>
<stop offset="0.08" stop-opacity="0.69"/>
<stop offset="0.21" stop-opacity="0.32"/>
<stop offset="1" stop-opacity="0"/>
</linearGradient>
<linearGradient id="paint13_linear" x1="-38528.1" y1="6115.73" x2="-39912.2" y2="6481.28" gradientUnits="userSpaceOnUse">
<stop offset="0.01"/>
<stop offset="0.08" stop-opacity="0.69"/>
<stop offset="0.21" stop-opacity="0.32"/>
<stop offset="1" stop-opacity="0"/>
</linearGradient>
<linearGradient id="paint14_linear" x1="-9317.93" y1="5842.5" x2="-9044.57" y2="5871.59" gradientUnits="userSpaceOnUse">
<stop offset="0.01"/>
<stop offset="0.08" stop-opacity="0.69"/>
<stop offset="0.21" stop-opacity="0.32"/>
<stop offset="1" stop-opacity="0"/>
</linearGradient>
<linearGradient id="paint15_linear" x1="-35509.2" y1="1334.58" x2="-35459.3" y2="1074.61" gradientUnits="userSpaceOnUse">
<stop offset="0.01"/>
<stop offset="0.08" stop-opacity="0.69"/>
<stop offset="0.21" stop-opacity="0.32"/>
<stop offset="1" stop-opacity="0"/>
</linearGradient>
<linearGradient id="paint16_linear" x1="-22785.7" y1="1728.24" x2="-22616" y2="2035.86" gradientUnits="userSpaceOnUse">
<stop offset="0.01"/>
<stop offset="0.08" stop-opacity="0.69"/>
<stop offset="0.21" stop-opacity="0.32"/>
<stop offset="1" stop-opacity="0"/>
</linearGradient>
<linearGradient id="paint17_linear" x1="-7336.66" y1="5249.69" x2="-7432.03" y2="5252.38" gradientUnits="userSpaceOnUse">
<stop offset="0.01"/>
<stop offset="0.08" stop-opacity="0.69"/>
<stop offset="0.21" stop-opacity="0.32"/>
<stop offset="1" stop-opacity="0"/>
</linearGradient>
<linearGradient id="paint18_linear" x1="-35411.4" y1="3125.98" x2="-34571.4" y2="3402.49" gradientUnits="userSpaceOnUse">
<stop offset="0.01"/>
<stop offset="0.08" stop-opacity="0.69"/>
<stop offset="0.21" stop-opacity="0.32"/>
<stop offset="1" stop-opacity="0"/>
</linearGradient>
</defs>
</svg>
