<svg width="191" height="144" viewBox="0 0 191 144" fill="none" xmlns="http://www.w3.org/2000/svg">
<path opacity="0.24" d="M163.84 94.3361C159.565 100.469 153.568 105.189 148.825 110.989C141.862 119.492 137.356 130.533 127.927 136.205C123.468 138.884 118.307 140.081 113.249 141.244C105.12 143.114 96.6972 144.985 88.5045 143.405C82.2244 142.197 76.5253 139.029 70.943 135.904L66.5261 133.424C65.552 132.871 64.5674 132.329 63.5827 131.776L60.7136 130.168C52.2906 125.42 43.9208 120.467 36.8225 113.923C28.9132 106.659 22.626 97.0997 21.319 86.4243C19.803 74.0871 25.6049 61.1299 35.8131 54.0401C41.413 50.1426 48.0898 47.9742 53.5906 43.9315C62.2721 37.5539 67.0503 27.3532 73.0116 18.3926C84.0592 1.77884 105.304 -6.17195 123.195 5.63731C130.148 10.2221 135.408 17.032 139.273 24.4159C142.538 30.6412 144.94 37.3944 149.282 42.9217C154.241 49.2356 161.46 53.6078 165.799 60.3645C172.299 70.4766 170.726 84.4649 163.84 94.3361Z" fill="#798FFE"/>
<path opacity="0.42" d="M72.0765 132.141C71.5558 132.712 72.4094 133.506 73.1391 133.782C77.8999 135.604 82.9536 136.541 88.0511 136.546L87.1833 138.023C95.1732 140.242 103.611 140.286 111.623 138.151L110.391 136.237L117.549 135.883C118.686 135.83 122.675 136.298 123.429 135.288C125.6 132.379 116.763 132.265 115.814 132.226C106.385 131.832 96.9499 131.68 87.5091 131.769C84.9353 131.793 82.3614 131.834 79.7875 131.893C78.569 131.936 72.8345 131.334 72.0765 132.141Z" fill="#798FFE"/>
<path d="M112.321 105.925C112.13 109.705 111.902 113.491 111.638 117.285C111.559 119.202 111.31 121.109 110.894 122.982C110.614 124.096 110.22 125.178 109.718 126.21C109.502 126.653 109.194 127.135 108.708 127.184C108.096 127.248 107.67 126.593 107.451 126.015C106.356 123.181 106.356 120.077 106.286 117.044C106.245 115.475 106.183 113.906 106.098 112.335C105.995 110.439 105.79 108.388 104.507 106.985C104.118 106.56 103.643 106.212 103.261 105.777C101.699 104.005 102.166 101.018 103.849 99.3494C105.156 98.0562 108.949 96.3484 110.78 97.4184C112.955 98.6869 112.424 103.881 112.321 105.925Z" fill="#606161"/>
<path d="M101.355 99.4378C101.903 100.306 102.159 101.326 102.088 102.35C102 105.429 100.172 108.154 99.2546 111.098C97.8803 115.545 98.6453 120.31 98.7835 124.977C98.8474 125.619 98.7675 126.268 98.5497 126.876C98.434 127.177 98.2294 127.436 97.963 127.618C97.6967 127.801 97.3812 127.898 97.0585 127.896C96.5911 127.809 96.1702 127.558 95.8719 127.188C93.6192 124.778 93.6936 121.104 93.3216 117.83C92.9037 114.184 91.7738 110.662 90.8103 107.123C90.3747 105.525 89.9673 103.888 90.07 102.237C90.1728 100.586 90.867 98.8886 92.2307 97.9533C94.7066 96.2596 99.5875 96.9045 101.355 99.4378Z" fill="#606161"/>
<path opacity="0.52" d="M42.6988 66.2388H81.3991C83.774 66.2388 85.6992 64.313 85.6992 61.9374V18.371C85.6992 15.9955 83.774 14.0697 81.3991 14.0697L42.6988 14.0697C40.3239 14.0697 38.3987 15.9955 38.3987 18.371L38.3987 61.9374C38.3987 64.313 40.3239 66.2388 42.6988 66.2388Z" fill="#798FFE"/>
<path d="M42.6988 66.2388H81.3991C83.774 66.2388 85.6992 64.313 85.6992 61.9374V18.371C85.6992 15.9955 83.774 14.0697 81.3991 14.0697L42.6988 14.0697C40.3239 14.0697 38.3987 15.9955 38.3987 18.371L38.3987 61.9374C38.3987 64.313 40.3239 66.2388 42.6988 66.2388Z" fill="url(#paint0_linear)"/>
<path opacity="0.52" d="M117.099 56.1763L161.474 56.1763C163.735 56.1763 165.569 54.3425 165.569 52.0804V28.0261C165.569 25.764 163.735 23.9302 161.474 23.9302L117.099 23.9302C114.838 23.9302 113.005 25.764 113.005 28.0261V52.0804C113.005 54.3425 114.838 56.1763 117.099 56.1763Z" fill="#798FFE"/>
<path d="M117.099 56.1763L161.474 56.1763C163.735 56.1763 165.569 54.3425 165.569 52.0804V28.0261C165.569 25.764 163.735 23.9302 161.474 23.9302L117.099 23.9302C114.838 23.9302 113.005 25.764 113.005 28.0261V52.0804C113.005 54.3425 114.838 56.1763 117.099 56.1763Z" fill="url(#paint1_linear)"/>
<path opacity="0.52" d="M103.53 32.6216L131.409 32.6216C132.829 32.6216 133.981 31.4699 133.981 30.0493V14.9343C133.981 13.5136 132.829 12.3619 131.409 12.3619L103.53 12.3619C102.11 12.3619 100.958 13.5136 100.958 14.9343V30.0493C100.958 31.4699 102.11 32.6216 103.53 32.6216Z" fill="#798FFE"/>
<path d="M103.53 32.6216L131.409 32.6216C132.829 32.6216 133.981 31.4699 133.981 30.0493V14.9343C133.981 13.5136 132.829 12.3619 131.409 12.3619L103.53 12.3619C102.11 12.3619 100.958 13.5136 100.958 14.9343V30.0493C100.958 31.4699 102.11 32.6216 103.53 32.6216Z" fill="url(#paint2_linear)"/>
<path opacity="0.52" d="M59.1445 94.311L139.085 94.311V90.4774L59.1445 90.4774V94.311Z" fill="#798FFE"/>
<path d="M74.7472 85.5454H127.038C129.495 85.5454 131.487 83.553 131.487 81.0952V44.81C131.487 42.3522 129.495 40.3598 127.038 40.3598L74.7472 40.3598C72.2902 40.3598 70.2984 42.3522 70.2984 44.81V81.0952C70.2984 83.553 72.2902 85.5454 74.7472 85.5454Z" fill="#798FFE"/>
<path d="M74.7472 85.5454H127.038C129.495 85.5454 131.487 83.553 131.487 81.0952V44.81C131.487 42.3522 129.495 40.3598 127.038 40.3598L74.7472 40.3598C72.2902 40.3598 70.2984 42.3522 70.2984 44.81V81.0952C70.2984 83.553 72.2902 85.5454 74.7472 85.5454Z" fill="url(#paint3_linear)"/>
<path d="M90.024 47.4355H77.8217V48.332H90.024V47.4355Z" fill="url(#paint4_linear)"/>
<path d="M85.2706 49.168H77.8217V50.0077H85.2706V49.168Z" fill="url(#paint5_linear)"/>
<path d="M111.712 49.168H88.2742V50.0148H111.712V49.168Z" fill="url(#paint6_linear)"/>
<path d="M127.095 49.168H113.904V50.0148H127.095V49.168Z" fill="url(#paint7_linear)"/>
<path d="M91.9367 50.9077H81.6967V51.7935H91.9367V50.9077Z" fill="url(#paint8_linear)"/>
<path d="M97.186 52.6367H84.9837V53.5331H97.186V52.6367Z" fill="url(#paint9_linear)"/>
<path d="M108.212 52.6367H97.983V53.6323H108.212V52.6367Z" fill="url(#paint10_linear)"/>
<path d="M94.3878 54.3691H84.966V55.2089H94.3878V54.3691Z" fill="url(#paint11_linear)"/>
<path d="M114.737 54.3691H95.291V55.301H114.737V54.3691Z" fill="url(#paint12_linear)"/>
<path d="M90.024 56.7148H77.8217V57.6113H90.024V56.7148Z" fill="url(#paint13_linear)"/>
<path d="M85.2706 58.4473H77.8217V59.287H85.2706V58.4473Z" fill="url(#paint14_linear)"/>
<path d="M111.712 58.4473H88.2742V59.2941H111.712V58.4473Z" fill="url(#paint15_linear)"/>
<path d="M127.095 58.4473H113.904V59.2941H127.095V58.4473Z" fill="url(#paint16_linear)"/>
<path d="M91.9367 60.1802H81.6967V61.0659H91.9367V60.1802Z" fill="url(#paint17_linear)"/>
<path d="M97.186 61.916H84.9837V62.8124H97.186V61.916Z" fill="url(#paint18_linear)"/>
<path d="M108.212 61.916H97.983V62.9116H108.212V61.916Z" fill="url(#paint19_linear)"/>
<path d="M94.3878 63.6489H84.966V64.4886H94.3878V63.6489Z" fill="url(#paint20_linear)"/>
<path d="M114.737 63.6489H95.291V64.5808H114.737V63.6489Z" fill="url(#paint21_linear)"/>
<path d="M90.024 65.9907H77.8217V66.8871H90.024V65.9907Z" fill="url(#paint22_linear)"/>
<path d="M85.2706 67.7236H77.8217V68.5634H85.2706V67.7236Z" fill="url(#paint23_linear)"/>
<path d="M111.712 67.7236H88.2742V68.5704H111.712V67.7236Z" fill="url(#paint24_linear)"/>
<path d="M127.095 67.7236H113.904V68.5704H127.095V67.7236Z" fill="url(#paint25_linear)"/>
<path d="M91.9367 69.4561H81.6967V70.3418H91.9367V69.4561Z" fill="url(#paint26_linear)"/>
<path d="M97.186 71.1885H84.9837V72.0849H97.186V71.1885Z" fill="url(#paint27_linear)"/>
<path d="M108.212 71.1885H97.983V72.1841H108.212V71.1885Z" fill="url(#paint28_linear)"/>
<path d="M94.3878 72.9248H84.966V73.7645H94.3878V72.9248Z" fill="url(#paint29_linear)"/>
<path d="M114.737 72.9248H95.291V73.8567H114.737V72.9248Z" fill="url(#paint30_linear)"/>
<g opacity="0.52">
<path opacity="0.52" d="M111.22 15.1328H105.149V15.5792H111.22V15.1328Z" fill="#798FFE"/>
<path opacity="0.52" d="M108.854 15.9976H105.149V16.4156H108.854V15.9976Z" fill="#798FFE"/>
<path opacity="0.52" d="M122.009 15.9976H110.348V16.4192H122.009V15.9976Z" fill="#798FFE"/>
<path opacity="0.52" d="M129.659 15.9976H123.096V16.4192H129.659V15.9976Z" fill="#798FFE"/>
<path opacity="0.52" d="M112.169 16.8584H107.075V17.2977H112.169V16.8584Z" fill="#798FFE"/>
<path opacity="0.52" d="M114.783 17.7227H108.712V18.1691H114.783V17.7227Z" fill="#798FFE"/>
<path opacity="0.52" d="M120.262 17.7227H115.176V18.2187H120.262V17.7227Z" fill="#798FFE"/>
<path opacity="0.52" d="M113.387 18.584H108.701V19.0021H113.387V18.584Z" fill="#798FFE"/>
<path opacity="0.52" d="M123.514 18.584H113.841V19.0481H123.514V18.584Z" fill="#798FFE"/>
<path opacity="0.52" d="M111.22 19.7495H105.149V20.1959H111.22V19.7495Z" fill="#798FFE"/>
<path opacity="0.52" d="M108.854 20.6104H105.149V21.0284H108.854V20.6104Z" fill="#798FFE"/>
<path opacity="0.52" d="M122.009 20.6104H110.348V21.032H122.009V20.6104Z" fill="#798FFE"/>
<path opacity="0.52" d="M129.659 20.6104H123.096V21.032H129.659V20.6104Z" fill="#798FFE"/>
<path opacity="0.52" d="M112.169 21.4712H107.075V21.9105H112.169V21.4712Z" fill="#798FFE"/>
<path opacity="0.52" d="M114.783 22.3359H108.712V22.7824H114.783V22.3359Z" fill="#798FFE"/>
<path opacity="0.52" d="M120.262 22.3359H115.176V22.832H120.262V22.3359Z" fill="#798FFE"/>
<path opacity="0.52" d="M113.387 23.1973H108.701V23.6154H113.387V23.1973Z" fill="#798FFE"/>
<path opacity="0.52" d="M123.514 23.1973H113.841V23.6614H123.514V23.1973Z" fill="#798FFE"/>
<path opacity="0.52" d="M111.22 24.3628H105.149V24.8092H111.22V24.3628Z" fill="#798FFE"/>
<path opacity="0.52" d="M108.854 25.2271H105.149V25.6451H108.854V25.2271Z" fill="#798FFE"/>
<path opacity="0.52" d="M122.009 25.2271H110.348V25.6487H122.009V25.2271Z" fill="#798FFE"/>
<path opacity="0.52" d="M129.659 25.2271H123.096V25.6487H129.659V25.2271Z" fill="#798FFE"/>
<path opacity="0.52" d="M112.169 26.0879H107.075V26.5272H112.169V26.0879Z" fill="#798FFE"/>
<path opacity="0.52" d="M114.783 26.9492H108.712V27.3957H114.783V26.9492Z" fill="#798FFE"/>
<path opacity="0.52" d="M120.262 26.9492H115.176V27.4453H120.262V26.9492Z" fill="#798FFE"/>
<path opacity="0.52" d="M113.387 27.814H108.701V28.2321H113.387V27.814Z" fill="#798FFE"/>
<path opacity="0.52" d="M123.514 27.814H113.841V28.2781H123.514V27.814Z" fill="#798FFE"/>
</g>
<path d="M115.619 87.9938C115.87 88.7024 116.108 89.4465 115.952 90.1763C115.895 90.4289 115.793 90.6691 115.651 90.885C114.942 91.9833 113.263 92.1534 112.109 91.4944C110.954 90.8354 110.302 89.574 109.983 88.3056C109.858 87.8807 109.816 87.4355 109.859 86.9946C109.962 86.2258 110.472 85.5774 111.004 85.0105C111.712 84.2735 113.012 83.3098 113.965 84.1955C114.822 84.9892 115.24 86.9344 115.619 87.9938Z" fill="url(#paint31_linear)"/>
<path d="M86.6484 87.7813C86.4934 88.074 86.4212 88.4036 86.4395 88.7344C86.4825 88.9471 86.5667 89.1493 86.6874 89.3296C86.9854 89.8646 87.3834 90.3373 87.8598 90.7221C88.3405 91.1074 88.9493 91.2961 89.5635 91.25C90.4703 91.1508 91.1893 90.4315 91.671 89.6556C92.1717 88.9183 92.435 88.0454 92.4255 87.1541C92.3978 86.6846 92.2665 86.2269 92.0412 85.8141C91.8158 85.4012 91.5019 85.0433 91.122 84.7661C90.4384 84.27 89.0145 83.8201 88.2424 84.387C87.4702 84.9539 87.0345 86.8671 86.6484 87.7813Z" fill="url(#paint32_linear)"/>
<path d="M107.568 61.757C107.693 61.7205 107.826 61.7134 107.955 61.7362C108.084 61.7589 108.206 61.8108 108.312 61.8881C108.459 62.0565 108.545 62.2701 108.556 62.4939C108.646 62.9453 108.664 63.4081 108.609 63.8651C108.55 64.3194 108.327 64.7364 107.982 65.0379C107.714 65.2356 107.411 65.3821 107.09 65.4702C106.848 65.5797 106.573 65.5899 106.324 65.4985C106.216 65.4246 106.125 65.3274 106.059 65.214C105.993 65.1006 105.953 64.9739 105.942 64.843C105.662 63.4718 106.091 62.0262 107.568 61.757Z" fill="url(#paint33_linear)"/>
<path d="M94.6712 61.2819C94.5305 61.2465 94.3833 61.2465 94.2426 61.2819C94.089 61.3543 93.9593 61.4692 93.8689 61.613C93.7786 61.7568 93.7312 61.9234 93.7325 62.0933C93.7096 62.4265 93.731 62.7613 93.7963 63.0889C93.8574 63.6373 94.082 64.1545 94.4409 64.5735C94.6217 64.7751 94.865 64.9099 95.1317 64.9562C95.3984 65.0024 95.6729 64.9575 95.9109 64.8286C97.4163 63.7869 95.9994 61.5725 94.6712 61.2819Z" fill="url(#paint34_linear)"/>
<path d="M104.206 71.1851C104.276 71.5061 104.295 71.836 104.263 72.163C104.132 73.07 103.229 73.7042 102.322 73.8176C101.415 73.931 100.508 73.6263 99.6619 73.2897C99.4019 73.202 99.1613 73.0649 98.9535 72.8858C98.7459 72.6689 98.6046 72.3972 98.5461 72.1027C98.4446 71.5921 98.4136 71.0699 98.4541 70.5508L98.5107 68.7226C98.4933 68.3649 98.5639 68.0085 98.7162 67.6844C99.0704 67.0786 99.8815 66.9758 100.586 66.9297C101.511 66.8908 102.903 66.9298 103.512 67.773C104.121 68.6163 104.05 70.2036 104.206 71.1851Z" fill="url(#paint35_linear)"/>
<path d="M107.054 56.2614C107.329 57.0327 107.426 57.8565 107.338 58.6707C107.259 60.5507 107.062 62.424 106.75 64.2795C106.516 65.6719 106.147 67.1671 105.046 68.0458C104.731 68.2577 104.434 68.4947 104.157 68.7544C103.965 68.9599 103.831 69.215 103.654 69.4383C102.758 70.5614 100.951 70.5614 99.7186 69.8138C98.4859 69.0662 97.6961 67.7836 96.9735 66.5364C96.1765 65.1617 95.3867 63.7232 95.245 62.1394C95.1281 60.8851 95.4221 59.5636 94.9439 58.3979C94.5897 57.5404 93.8565 56.8531 93.6936 55.9425C93.6306 55.329 93.7056 54.7091 93.9132 54.1284C94.2001 53.0973 94.6393 51.9069 95.6842 51.6269C96.4457 51.4214 97.2321 51.8112 98.0219 51.836C99.0279 51.8714 100.052 51.3081 101.008 51.6269C102.237 52.038 102.779 53.4552 104.004 53.9158C105.23 54.3764 106.484 54.9575 107.054 56.2614Z" fill="#606161"/>
<path d="M111.12 74.4201C107.529 71.4403 102.347 71.5147 97.7244 72.1454C95.8152 72.404 93.8707 72.7477 92.1917 73.6973C89.3793 75.2917 87.7146 78.3742 86.8397 81.4922C86.3757 83.1468 86.1313 85.0353 87.0593 86.488C88.0334 87.9903 89.9744 88.5076 91.7525 88.706C92.0249 88.7121 92.291 88.789 92.5247 88.9292C92.7696 89.1563 92.9233 89.4649 92.9568 89.7973C93.4527 92.3838 92.4468 95.2891 93.775 97.5603C95.0608 99.7535 97.9334 100.331 100.466 100.526C103.742 100.777 107.295 100.685 109.955 98.7543C110.396 98.4577 110.771 98.0728 111.057 97.6241C111.496 96.8729 111.521 95.9588 111.531 95.0907C111.56 93.1987 110.869 89.3934 111.79 87.7245C112.562 86.3356 114.762 86.3285 115.534 84.7412C116.997 81.7225 113.32 76.2412 111.12 74.4201Z" fill="white"/>
<path d="M98.1211 98.5311L98.1459 102.56C98.1635 102.715 98.1338 102.872 98.0609 103.01C97.9431 103.155 97.7724 103.248 97.5863 103.268C96.4953 103.523 95.3548 103.378 94.2355 103.382C93.1162 103.385 91.9084 103.584 91.1043 104.367C92.3263 105.27 93.9025 105.518 95.415 105.695C97.6536 105.962 99.8968 106.139 102.145 106.227C103.602 106.334 105.067 106.258 106.505 106C107.769 105.746 108.955 105.193 109.962 104.388C108.974 103.325 107.337 103.346 105.892 103.346C104.486 103.346 103.081 103.265 101.684 103.105C101.527 103.107 101.37 103.077 101.224 103.016C101.079 102.955 100.947 102.865 100.838 102.751C100.72 102.541 100.673 102.299 100.703 102.06C100.73 101.166 100.843 100.276 101.04 99.4027C101.082 99.1147 101.198 98.8424 101.376 98.6126C101.692 98.3429 102.088 98.1858 102.503 98.1662C104.143 97.8928 105.751 97.4535 107.302 96.8552C107.941 96.6434 108.535 96.3155 109.055 95.8879C110.451 94.6195 110.391 92.4334 110.068 90.5732C107.5 92.0647 104.6 92.8905 101.631 92.9755C99.6017 93.0322 95.1989 92.1606 93.7715 94.1164C93.0631 95.1049 93.8175 96.019 94.6003 96.7028C94.9404 96.9934 98.1211 98.4921 98.1211 98.5311Z" fill="url(#paint36_linear)"/>
<path d="M105.393 80.2236H96.9629C93.6784 80.2236 91.0158 82.8871 91.0158 86.1726V88.6846C91.0158 91.9701 93.6784 94.6336 96.9629 94.6336H105.393C108.677 94.6336 111.34 91.9701 111.34 88.6846V86.1726C111.34 82.8871 108.677 80.2236 105.393 80.2236Z" fill="#798FFE"/>
<path d="M105.393 80.2236H96.9629C93.6784 80.2236 91.0158 82.8871 91.0158 86.1726V88.6846C91.0158 91.9701 93.6784 94.6336 96.9629 94.6336H105.393C108.677 94.6336 111.34 91.9701 111.34 88.6846V86.1726C111.34 82.8871 108.677 80.2236 105.393 80.2236Z" fill="url(#paint37_linear)"/>
<path d="M105.393 81.5488H96.9629C93.6784 81.5488 91.0158 84.2123 91.0158 87.4978V90.0098C91.0158 93.2953 93.6784 95.9588 96.9629 95.9588H105.393C108.677 95.9588 111.34 93.2953 111.34 90.0098V87.4978C111.34 84.2123 108.677 81.5488 105.393 81.5488Z" fill="#798FFE"/>
<path d="M104.306 89.503C103.697 89.7728 103.057 89.9634 102.4 90.0699C100.629 90.3959 98.5603 90.325 97.2852 89.0389C97.0854 88.8434 96.9233 88.6128 96.807 88.3586C96.4528 87.4976 96.9168 86.4594 97.6784 85.9138C98.4399 85.3682 99.4069 85.2229 100.338 85.1768C101.479 85.1201 103.647 84.9253 104.642 85.6941C105.832 86.6153 105.648 88.8723 104.306 89.503Z" fill="url(#paint38_linear)"/>
<path d="M100.838 110.195H100.841C101.606 110.195 102.226 109.575 102.226 108.809V88.6774C102.226 87.9123 101.606 87.292 100.841 87.292H100.838C100.073 87.292 99.4529 87.9123 99.4529 88.6774V108.809C99.4529 109.575 100.073 110.195 100.838 110.195Z" fill="white"/>
<path d="M109.371 126.153C110.079 126.738 110.256 127.751 110.568 128.633C111 129.838 111.8 130.933 111.907 132.208C111.953 132.586 111.89 132.97 111.726 133.314C111.568 133.579 111.342 133.799 111.073 133.951C110.803 134.103 110.498 134.181 110.189 134.178C109.569 134.165 108.965 133.981 108.443 133.647C107.519 133.097 106.757 132.313 106.232 131.375C105.965 130.917 105.793 130.408 105.729 129.88C105.584 128.282 107.242 124.452 109.371 126.153Z" fill="#798FFE"/>
<path d="M110.692 132.914C110.742 133.007 110.768 133.111 110.768 133.216C110.768 133.322 110.742 133.426 110.692 133.519C110.61 133.607 110.502 133.666 110.384 133.686C109.896 133.78 109.39 133.688 108.967 133.427C108.549 133.171 108.166 132.863 107.826 132.51C107.301 132.048 106.835 131.522 106.441 130.944C106.047 130.356 105.886 129.642 105.992 128.942C106.367 127.021 108.06 128.743 108.683 129.452C109.573 130.463 110.256 131.639 110.692 132.914Z" fill="#606161"/>
<path d="M95.5035 126.192C94.7951 126.777 94.618 127.79 94.3063 128.672C93.8742 129.877 93.0737 130.975 92.9674 132.247C92.9212 132.627 92.9838 133.011 93.1481 133.356C93.3069 133.622 93.5324 133.841 93.8021 133.992C94.0718 134.143 94.3763 134.221 94.6853 134.217C95.3055 134.206 95.9103 134.022 96.4316 133.686C97.3556 133.137 98.1181 132.353 98.6418 131.415C98.9101 130.956 99.0813 130.447 99.1448 129.92C99.2864 128.322 97.6288 124.477 95.5035 126.192Z" fill="#798FFE"/>
<path d="M94.0017 133.052C93.9527 133.145 93.9271 133.249 93.9271 133.355C93.9271 133.46 93.9527 133.564 94.0017 133.658C94.0849 133.745 94.1943 133.804 94.3134 133.824C94.8014 133.915 95.3057 133.823 95.7302 133.565C96.1458 133.308 96.5277 133 96.8672 132.648C97.395 132.186 97.8616 131.658 98.2557 131.078C98.6494 130.491 98.8098 129.779 98.7055 129.08C98.3265 127.156 96.637 128.878 96.01 129.59C95.1211 130.602 94.4389 131.778 94.0017 133.052Z" fill="#606161"/>
<path d="M103.094 117.72C102.524 117.992 101.893 118.114 101.263 118.075C100.565 118.115 99.8648 118.064 99.1802 117.922C98.9494 117.877 98.733 117.776 98.5497 117.628C98.3967 117.488 98.2759 117.317 98.1955 117.125C97.6181 115.85 96.9664 113.207 97.8625 112.133C98.8862 110.9 102.949 110.684 104.238 111.977C105.489 113.189 104.582 116.845 103.094 117.72Z" fill="#798FFE"/>
<path d="M103.094 117.72C102.524 117.992 101.893 118.114 101.263 118.075C100.565 118.115 99.8648 118.064 99.1802 117.922C98.9494 117.877 98.733 117.776 98.5497 117.628C98.3967 117.488 98.2759 117.317 98.1955 117.125C97.6181 115.85 96.9664 113.207 97.8625 112.133C98.8862 110.9 102.949 110.684 104.238 111.977C105.489 113.189 104.582 116.845 103.094 117.72Z" fill="url(#paint39_linear)"/>
<path d="M100.275 129.707H102.124V117.774H100.275V129.707Z" fill="white"/>
<path d="M108.51 130.699C108.921 131.036 109.321 131.457 109.849 131.521C110.231 131.564 110.614 131.401 111.004 131.401C111.516 131.437 112 131.654 112.367 132.014C112.714 132.289 112.975 132.658 113.118 133.077C113.405 134.055 112.534 135.125 111.517 135.224C110.501 135.323 109.523 134.629 109.077 133.714C108.98 133.464 108.854 133.226 108.701 133.006C108.554 132.848 108.383 132.714 108.195 132.609C106.69 131.676 105.031 131.019 103.296 130.671C102.995 130.611 102.627 130.582 102.435 130.82C102.343 130.956 102.292 131.116 102.29 131.28C102.212 131.986 102.18 132.696 102.194 133.406C102.185 133.543 102.211 133.679 102.269 133.803C102.361 133.931 102.473 134.042 102.602 134.133C102.806 134.35 102.935 134.629 102.968 134.926C103.002 135.223 102.938 135.522 102.786 135.78C102.466 136.288 101.974 136.665 101.401 136.843C100.721 137.095 99.8638 137.137 99.3573 136.616C99.1784 136.415 99.0589 136.168 99.012 135.903C98.9651 135.637 98.9927 135.364 99.0916 135.114C99.2957 134.614 99.6729 134.204 100.154 133.959C100.322 133.895 100.467 133.785 100.572 133.64C100.631 133.506 100.653 133.36 100.636 133.215L100.586 131.635C100.601 131.514 100.587 131.392 100.545 131.278C100.504 131.164 100.435 131.061 100.345 130.979C100.204 130.905 100.042 130.882 99.885 130.912C97.2817 131.113 94.7886 132.048 92.6947 133.608C93.0772 133.906 93.0099 134.551 92.6663 134.891C92.2879 135.203 91.8017 135.353 91.3133 135.309C90.7764 135.314 90.25 135.16 89.8008 134.866C89.576 134.719 89.3928 134.517 89.2687 134.278C89.1446 134.04 89.0839 133.774 89.0924 133.505C89.1285 133.233 89.2347 132.975 89.4005 132.757C89.5663 132.538 89.786 132.366 90.0382 132.258C90.5449 132.046 91.1023 131.986 91.6427 132.085C91.9208 132.144 92.2053 132.166 92.4892 132.152C92.8077 132.086 93.1106 131.959 93.3818 131.78C95.8351 130.394 98.5558 129.549 101.362 129.3C103.714 129.091 106.608 129.14 108.51 130.699Z" fill="white"/>
<path d="M131.002 82.998H153.377C155.533 82.998 157.28 81.2499 157.28 79.0935V64.5135C157.28 62.3571 155.533 60.609 153.377 60.609H131.002C128.846 60.609 127.099 62.3571 127.099 64.5135V79.0935C127.099 81.2499 128.846 82.998 131.002 82.998Z" fill="white"/>
<path d="M43.4603 84.8511H70.603C72.6903 84.8511 74.3824 83.1585 74.3824 81.0706V75.8976C74.3824 73.8097 72.6903 72.1171 70.603 72.1171H43.4603C41.373 72.1171 39.681 73.8097 39.681 75.8976V81.0706C39.681 83.1585 41.373 84.8511 43.4603 84.8511Z" fill="white"/>
<path d="M45.7803 28.6993L54.6107 24.1499V25.4679L47.1724 29.1776V29.2201L54.6107 32.9475V34.2655L45.7803 29.7162V28.6993Z" fill="#798FFE"/>
<path d="M55.8327 35.0448L61.1457 21.2266H62.4386L57.1255 35.0448H55.8327Z" fill="#798FFE"/>
<path d="M72.4803 29.7835L63.6464 34.3151V32.9652L71.1414 29.2378V29.1776L63.6464 25.4502V24.1499L72.4803 28.6816V29.7835Z" fill="#798FFE"/>
<path d="M90.1409 113.345H110.816C113.271 113.345 115.261 111.354 115.261 108.898V108.618C115.261 106.162 113.271 104.172 110.816 104.172H90.1409C87.6858 104.172 85.6956 106.162 85.6956 108.618V108.898C85.6956 111.354 87.6858 113.345 90.1409 113.345Z" fill="#798FFE"/>
<path d="M90.1409 113.345H110.816C113.271 113.345 115.261 111.354 115.261 108.898V108.618C115.261 106.162 113.271 104.172 110.816 104.172H90.1409C87.6858 104.172 85.6956 106.162 85.6956 108.618V108.898C85.6956 111.354 87.6858 113.345 90.1409 113.345Z" fill="url(#paint40_linear)"/>
<g opacity="0.52">
<path opacity="0.52" d="M138.525 66.4019H130.449V66.9936H138.525V66.4019Z" fill="#798FFE"/>
<path opacity="0.52" d="M135.38 67.5464H130.449V68.1027H135.38V67.5464Z" fill="#798FFE"/>
<path opacity="0.52" d="M152.878 67.5464H137.367V68.1062H152.878V67.5464Z" fill="#798FFE"/>
<path opacity="0.52" d="M139.793 68.6978H133.014V69.2859H139.793V68.6978Z" fill="#798FFE"/>
<path opacity="0.52" d="M143.264 69.8423H135.189V70.434H143.264V69.8423Z" fill="#798FFE"/>
<path opacity="0.52" d="M150.558 69.8423H143.789V70.5013H150.558V69.8423Z" fill="#798FFE"/>
<path opacity="0.52" d="M141.412 70.9902H135.174V71.5465H141.412V70.9902Z" fill="#798FFE"/>
<path opacity="0.52" d="M154.879 70.9902H142.011V71.6068H154.879V70.9902Z" fill="#798FFE"/>
<path opacity="0.52" d="M138.525 72.542H130.449V73.1337H138.525V72.542Z" fill="#798FFE"/>
<path opacity="0.52" d="M135.38 73.6865H130.449V74.2428H135.38V73.6865Z" fill="#798FFE"/>
<path opacity="0.52" d="M152.878 73.6865H137.367V74.2463H152.878V73.6865Z" fill="#798FFE"/>
<path opacity="0.52" d="M139.793 74.8345H133.014V75.4226H139.793V74.8345Z" fill="#798FFE"/>
<path opacity="0.52" d="M143.264 75.9824H135.189V76.5741H143.264V75.9824Z" fill="#798FFE"/>
<path opacity="0.52" d="M150.558 75.9824H143.789V76.6415H150.558V75.9824Z" fill="#798FFE"/>
<path opacity="0.52" d="M141.412 77.1304H135.174V77.6866H141.412V77.1304Z" fill="#798FFE"/>
<path opacity="0.52" d="M154.879 77.1304H142.011V77.7469H154.879V77.1304Z" fill="#798FFE"/>
</g>
<g opacity="0.52">
<path opacity="0.52" d="M53.1124 74.9233H45.0365V75.5151H53.1124V74.9233Z" fill="#798FFE"/>
<path opacity="0.52" d="M49.967 76.0713H45.0365V76.6276H49.967V76.0713Z" fill="#798FFE"/>
<path opacity="0.52" d="M67.4647 76.0713H51.9541V76.6311H67.4647V76.0713Z" fill="#798FFE"/>
<path opacity="0.52" d="M54.3804 77.2192H47.601V77.8074H54.3804V77.2192Z" fill="#798FFE"/>
<path opacity="0.52" d="M57.8516 78.3672H49.7758V78.9589H57.8516V78.3672Z" fill="#798FFE"/>
<path opacity="0.52" d="M65.1482 78.3672H58.3794V79.0262H65.1482V78.3672Z" fill="#798FFE"/>
<path opacity="0.52" d="M56.0027 79.5117H49.7652V80.068H56.0027V79.5117Z" fill="#798FFE"/>
<path opacity="0.52" d="M69.466 79.5117H56.5977V80.1282H69.466V79.5117Z" fill="#798FFE"/>
<path opacity="0.52" d="M53.1124 81.0635H45.0365V81.6552H53.1124V81.0635Z" fill="#798FFE"/>
<path opacity="0.52" d="M49.967 82.2114H45.0365V82.7677H49.967V82.2114Z" fill="#798FFE"/>
<path opacity="0.52" d="M67.4647 82.2114H51.9541V82.7712H67.4647V82.2114Z" fill="#798FFE"/>
</g>
<path d="M60.8978 115.896C59.7254 113.579 58.2909 111.173 58.5671 108.59C58.7336 107.027 59.5235 105.61 60.2957 104.239L63.7739 98.0703C64.8366 99.4521 66.5863 100.292 67.2876 101.886C68.414 104.448 66.225 107.282 66.3419 110.078C66.4198 112.229 67.8473 114.188 67.7587 116.339C67.7021 117.901 65.2297 123.021 63.2285 122.826C62.1694 122.723 61.5637 117.207 60.8978 115.896Z" fill="#798FFE"/>
<path d="M60.8978 115.896C59.7254 113.579 58.2909 111.173 58.5671 108.59C58.7336 107.027 59.5235 105.61 60.2957 104.239L63.7739 98.0703C64.8366 99.4521 66.5863 100.292 67.2876 101.886C68.414 104.448 66.225 107.282 66.3419 110.078C66.4198 112.229 67.8473 114.188 67.7587 116.339C67.7021 117.901 65.2297 123.021 63.2285 122.826C62.1694 122.723 61.5637 117.207 60.8978 115.896Z" fill="url(#paint41_linear)"/>
<path d="M72.8734 114.907C73.6633 114.907 74.6445 115.067 74.8711 115.829C75.0553 116.495 74.4709 117.108 73.9148 117.519C71.9773 118.936 69.551 120.024 68.6017 122.231C67.0255 125.895 62.5626 123.545 64.872 120.374C65.8283 119.063 66.643 117.302 67.8331 116.208C69.2003 114.943 71.113 114.886 72.8734 114.907Z" fill="#798FFE"/>
<path d="M72.8734 114.907C73.6633 114.907 74.6445 115.067 74.8711 115.829C75.0553 116.495 74.4709 117.108 73.9148 117.519C71.9773 118.936 69.551 120.024 68.6017 122.231C67.0255 125.895 62.5626 123.545 64.872 120.374C65.8283 119.063 66.643 117.302 67.8331 116.208C69.2003 114.943 71.113 114.886 72.8734 114.907Z" fill="url(#paint42_linear)"/>
<path d="M61.3016 116.601C60.4125 115.587 59.0913 115.088 57.8304 114.62C57.2318 114.4 56.4632 114.22 56.0594 114.702C55.9262 114.89 55.8547 115.114 55.8547 115.345C55.8547 115.575 55.9262 115.8 56.0594 115.988C56.3371 116.356 56.6762 116.674 57.0618 116.927C57.8375 117.495 58.4735 118.233 58.9213 119.084C59.3712 120.002 59.4916 121.047 59.8919 121.99C60.2921 122.932 61.128 123.822 62.1481 123.779C62.5478 123.739 62.9267 123.581 63.2368 123.326C63.547 123.07 63.7746 122.729 63.8908 122.344C64.2875 121.122 63.7598 120.573 63.1045 119.708C62.3784 118.748 62.1127 117.518 61.3016 116.601Z" fill="#798FFE"/>
<path d="M61.3016 116.601C60.4125 115.587 59.0913 115.088 57.8304 114.62C57.2318 114.4 56.4632 114.22 56.0594 114.702C55.9262 114.89 55.8547 115.114 55.8547 115.345C55.8547 115.575 55.9262 115.8 56.0594 115.988C56.3371 116.356 56.6762 116.674 57.0618 116.927C57.8375 117.495 58.4735 118.233 58.9213 119.084C59.3712 120.002 59.4916 121.047 59.8919 121.99C60.2921 122.932 61.128 123.822 62.1481 123.779C62.5478 123.739 62.9267 123.581 63.2368 123.326C63.547 123.07 63.7746 122.729 63.8908 122.344C64.2875 121.122 63.7598 120.573 63.1045 119.708C62.3784 118.748 62.1127 117.518 61.3016 116.601Z" fill="url(#paint43_linear)"/>
<path d="M68.9914 122.263L67.7977 133.434H66.5332C65.5591 132.881 64.5744 132.339 63.5897 131.787L60.7207 130.178L59.7041 122.263H68.9914Z" fill="#798FFE"/>
<path d="M68.9914 122.263L67.7977 133.434H66.5332C65.5591 132.881 64.5744 132.339 63.5897 131.787L60.7207 130.178L59.7041 122.263H68.9914Z" fill="url(#paint44_linear)"/>
<defs>
<linearGradient id="paint0_linear" x1="62.7042" y1="54.6846" x2="60.2091" y2="-0.506685" gradientUnits="userSpaceOnUse">
<stop stop-color="white" stop-opacity="0"/>
<stop offset="0.95" stop-color="white"/>
</linearGradient>
<linearGradient id="paint1_linear" x1="22231.4" y1="3745.77" x2="27169" y2="4958.17" gradientUnits="userSpaceOnUse">
<stop stop-color="white" stop-opacity="0"/>
<stop offset="0.95" stop-color="white"/>
</linearGradient>
<linearGradient id="paint2_linear" x1="11790.9" y1="-367.503" x2="11812.8" y2="2544.89" gradientUnits="userSpaceOnUse">
<stop stop-color="white" stop-opacity="0"/>
<stop offset="0.95" stop-color="white"/>
</linearGradient>
<linearGradient id="paint3_linear" x1="19156.3" y1="11794.9" x2="18842.7" y2="2533.9" gradientUnits="userSpaceOnUse">
<stop stop-color="white" stop-opacity="0"/>
<stop offset="0.95" stop-color="white"/>
</linearGradient>
<linearGradient id="paint4_linear" x1="84.3886" y1="23.1579" x2="83.7152" y2="59.0571" gradientUnits="userSpaceOnUse">
<stop stop-color="white" stop-opacity="0"/>
<stop offset="0.99" stop-color="white"/>
</linearGradient>
<linearGradient id="paint5_linear" x1="1977.29" y1="370.934" x2="1977.11" y2="285.832" gradientUnits="userSpaceOnUse">
<stop stop-color="white" stop-opacity="0"/>
<stop offset="0.99" stop-color="white"/>
</linearGradient>
<linearGradient id="paint6_linear" x1="7285.29" y1="372.835" x2="7285.23" y2="287.007" gradientUnits="userSpaceOnUse">
<stop stop-color="white" stop-opacity="0"/>
<stop offset="0.99" stop-color="white"/>
</linearGradient>
<linearGradient id="paint7_linear" x1="4927.53" y1="371.904" x2="4927.42" y2="286.092" gradientUnits="userSpaceOnUse">
<stop stop-color="white" stop-opacity="0"/>
<stop offset="0.99" stop-color="white"/>
</linearGradient>
<linearGradient id="paint8_linear" x1="2846.2" y1="390.072" x2="2846.06" y2="300.302" gradientUnits="userSpaceOnUse">
<stop stop-color="white" stop-opacity="0"/>
<stop offset="0.99" stop-color="white"/>
</linearGradient>
<linearGradient id="paint9_linear" x1="3527.38" y1="395.683" x2="3527.26" y2="304.827" gradientUnits="userSpaceOnUse">
<stop stop-color="white" stop-opacity="0"/>
<stop offset="0.99" stop-color="white"/>
</linearGradient>
<linearGradient id="paint10_linear" x1="3330.48" y1="433.009" x2="3330.3" y2="332.099" gradientUnits="userSpaceOnUse">
<stop stop-color="white" stop-opacity="0"/>
<stop offset="0.99" stop-color="white"/>
</linearGradient>
<linearGradient id="paint11_linear" x1="2706.31" y1="375.773" x2="2706.17" y2="290.671" gradientUnits="userSpaceOnUse">
<stop stop-color="white" stop-opacity="0"/>
<stop offset="0.99" stop-color="white"/>
</linearGradient>
<linearGradient id="paint12_linear" x1="6347.12" y1="410.279" x2="6347.04" y2="315.84" gradientUnits="userSpaceOnUse">
<stop stop-color="white" stop-opacity="0"/>
<stop offset="0.99" stop-color="white"/>
</linearGradient>
<linearGradient id="paint13_linear" x1="3270.19" y1="376.625" x2="3270.07" y2="285.769" gradientUnits="userSpaceOnUse">
<stop stop-color="white" stop-opacity="0"/>
<stop offset="0.99" stop-color="white"/>
</linearGradient>
<linearGradient id="paint14_linear" x1="1977.29" y1="358.238" x2="1977.11" y2="273.127" gradientUnits="userSpaceOnUse">
<stop stop-color="white" stop-opacity="0"/>
<stop offset="0.99" stop-color="white"/>
</linearGradient>
<linearGradient id="paint15_linear" x1="7285.29" y1="359.937" x2="7285.23" y2="274.108" gradientUnits="userSpaceOnUse">
<stop stop-color="white" stop-opacity="0"/>
<stop offset="0.99" stop-color="white"/>
</linearGradient>
<linearGradient id="paint16_linear" x1="4927.53" y1="359.022" x2="4927.42" y2="273.194" gradientUnits="userSpaceOnUse">
<stop stop-color="white" stop-opacity="0"/>
<stop offset="0.99" stop-color="white"/>
</linearGradient>
<linearGradient id="paint17_linear" x1="2846.2" y1="376.162" x2="2846.06" y2="286.384" gradientUnits="userSpaceOnUse">
<stop stop-color="white" stop-opacity="0"/>
<stop offset="0.99" stop-color="white"/>
</linearGradient>
<linearGradient id="paint18_linear" x1="3527.38" y1="381.487" x2="3527.26" y2="290.63" gradientUnits="userSpaceOnUse">
<stop stop-color="white" stop-opacity="0"/>
<stop offset="0.99" stop-color="white"/>
</linearGradient>
<linearGradient id="paint19_linear" x1="3330.48" y1="416.226" x2="3330.3" y2="315.316" gradientUnits="userSpaceOnUse">
<stop stop-color="white" stop-opacity="0"/>
<stop offset="0.99" stop-color="white"/>
</linearGradient>
<linearGradient id="paint20_linear" x1="2706.31" y1="363.066" x2="2706.17" y2="277.965" gradientUnits="userSpaceOnUse">
<stop stop-color="white" stop-opacity="0"/>
<stop offset="0.99" stop-color="white"/>
</linearGradient>
<linearGradient id="paint21_linear" x1="6347.12" y1="395.169" x2="6347.04" y2="300.723" gradientUnits="userSpaceOnUse">
<stop stop-color="white" stop-opacity="0"/>
<stop offset="0.99" stop-color="white"/>
</linearGradient>
<linearGradient id="paint22_linear" x1="3270.19" y1="362.435" x2="3270.07" y2="271.588" gradientUnits="userSpaceOnUse">
<stop stop-color="white" stop-opacity="0"/>
<stop offset="0.99" stop-color="white"/>
</linearGradient>
<linearGradient id="paint23_linear" x1="1977.29" y1="345.529" x2="1977.11" y2="260.419" gradientUnits="userSpaceOnUse">
<stop stop-color="white" stop-opacity="0"/>
<stop offset="0.99" stop-color="white"/>
</linearGradient>
<linearGradient id="paint24_linear" x1="7285.29" y1="347.046" x2="7285.23" y2="261.225" gradientUnits="userSpaceOnUse">
<stop stop-color="white" stop-opacity="0"/>
<stop offset="0.99" stop-color="white"/>
</linearGradient>
<linearGradient id="paint25_linear" x1="4927.53" y1="346.132" x2="4927.42" y2="260.302" gradientUnits="userSpaceOnUse">
<stop stop-color="white" stop-opacity="0"/>
<stop offset="0.99" stop-color="white"/>
</linearGradient>
<linearGradient id="paint26_linear" x1="2846.2" y1="362.251" x2="2846.06" y2="272.472" gradientUnits="userSpaceOnUse">
<stop stop-color="white" stop-opacity="0"/>
<stop offset="0.99" stop-color="white"/>
</linearGradient>
<linearGradient id="paint27_linear" x1="3527.38" y1="367.293" x2="3527.26" y2="276.436" gradientUnits="userSpaceOnUse">
<stop stop-color="white" stop-opacity="0"/>
<stop offset="0.99" stop-color="white"/>
</linearGradient>
<linearGradient id="paint28_linear" x1="3330.48" y1="399.427" x2="3330.3" y2="298.515" gradientUnits="userSpaceOnUse">
<stop stop-color="white" stop-opacity="0"/>
<stop offset="0.99" stop-color="white"/>
</linearGradient>
<linearGradient id="paint29_linear" x1="2706.31" y1="350.36" x2="2706.17" y2="265.25" gradientUnits="userSpaceOnUse">
<stop stop-color="white" stop-opacity="0"/>
<stop offset="0.99" stop-color="white"/>
</linearGradient>
<linearGradient id="paint30_linear" x1="6347.12" y1="380.043" x2="6347.04" y2="285.595" gradientUnits="userSpaceOnUse">
<stop stop-color="white" stop-opacity="0"/>
<stop offset="0.99" stop-color="white"/>
</linearGradient>
<linearGradient id="paint31_linear" x1="109.852" y1="87.8662" x2="116.001" y2="87.8662" gradientUnits="userSpaceOnUse">
<stop stop-color="#E5C6D6"/>
<stop offset="0.42" stop-color="#EAD4D0"/>
<stop offset="1" stop-color="#F0E9CB"/>
</linearGradient>
<linearGradient id="paint32_linear" x1="1687.8" y1="1862.22" x2="1789.25" y2="1862.22" gradientUnits="userSpaceOnUse">
<stop stop-color="#E5C6D6"/>
<stop offset="0.42" stop-color="#EAD4D0"/>
<stop offset="1" stop-color="#F0E9CB"/>
</linearGradient>
<linearGradient id="paint33_linear" x1="1001.25" y1="757.646" x2="1023.06" y2="757.646" gradientUnits="userSpaceOnUse">
<stop stop-color="#E5C6D6"/>
<stop offset="0.42" stop-color="#EAD4D0"/>
<stop offset="1" stop-color="#F0E9CB"/>
</linearGradient>
<linearGradient id="paint34_linear" x1="909.915" y1="730.068" x2="932.648" y2="730.068" gradientUnits="userSpaceOnUse">
<stop stop-color="#E5C6D6"/>
<stop offset="0.42" stop-color="#EAD4D0"/>
<stop offset="1" stop-color="#F0E9CB"/>
</linearGradient>
<linearGradient id="paint35_linear" x1="1858.34" y1="1453.98" x2="1954.78" y2="1453.98" gradientUnits="userSpaceOnUse">
<stop stop-color="#E5C6D6"/>
<stop offset="0.42" stop-color="#EAD4D0"/>
<stop offset="1" stop-color="#F0E9CB"/>
</linearGradient>
<linearGradient id="paint36_linear" x1="91.1043" y1="98.4248" x2="110.274" y2="98.4248" gradientUnits="userSpaceOnUse">
<stop stop-color="#010101" stop-opacity="0"/>
<stop offset="0.95" stop-color="#010101"/>
</linearGradient>
<linearGradient id="paint37_linear" x1="4104.04" y1="3635.87" x2="5270.24" y2="3635.87" gradientUnits="userSpaceOnUse">
<stop stop-color="#010101" stop-opacity="0"/>
<stop offset="0.95" stop-color="#010101"/>
</linearGradient>
<linearGradient id="paint38_linear" x1="2798.93" y1="1296.09" x2="2795.63" y2="1594.74" gradientUnits="userSpaceOnUse">
<stop stop-color="#010101" stop-opacity="0"/>
<stop offset="0.95" stop-color="#010101"/>
</linearGradient>
<linearGradient id="paint39_linear" x1="2376.46" y1="2439.35" x2="2396.78" y2="2254.66" gradientUnits="userSpaceOnUse">
<stop stop-color="#010101" stop-opacity="0"/>
<stop offset="0.95" stop-color="#010101"/>
</linearGradient>
<linearGradient id="paint40_linear" x1="9151.05" y1="2774.75" x2="9153.55" y2="3101.87" gradientUnits="userSpaceOnUse">
<stop stop-color="#010101" stop-opacity="0"/>
<stop offset="0.95" stop-color="#010101"/>
</linearGradient>
<linearGradient id="paint41_linear" x1="1919.97" y1="8072.19" x2="1939.24" y2="9895.19" gradientUnits="userSpaceOnUse">
<stop stop-color="#010101" stop-opacity="0"/>
<stop offset="0.95" stop-color="#010101"/>
</linearGradient>
<linearGradient id="paint42_linear" x1="2397.83" y1="3173.63" x2="2473.19" y2="3510.77" gradientUnits="userSpaceOnUse">
<stop stop-color="#010101" stop-opacity="0"/>
<stop offset="0.95" stop-color="#010101"/>
</linearGradient>
<linearGradient id="paint43_linear" x1="1648.12" y1="3219.87" x2="1484.99" y2="3564.47" gradientUnits="userSpaceOnUse">
<stop stop-color="#010101" stop-opacity="0"/>
<stop offset="0.95" stop-color="#010101"/>
</linearGradient>
<linearGradient id="paint44_linear" x1="1988.94" y1="4030.72" x2="1751.84" y2="4603.3" gradientUnits="userSpaceOnUse">
<stop stop-color="#010101" stop-opacity="0"/>
<stop offset="0.95" stop-color="#010101"/>
</linearGradient>
</defs>
</svg>
