<svg width="182" height="138" viewBox="0 0 182 138" fill="none" xmlns="http://www.w3.org/2000/svg">
<g clip-path="url(#clip0)">
<path opacity="0.18" d="M111.336 135.944C119.08 136.038 126.848 136.125 134.535 135.193C138.371 134.729 142.238 133.991 145.679 132.222C149.468 130.276 152.545 127.18 155.354 123.963C161.417 117.021 166.619 109.144 169.353 100.324C172.088 91.5044 172.209 81.6519 168.457 73.2172C165.968 67.5837 161.821 62.6888 160.291 56.7297C157.752 46.846 162.864 36.0734 159.871 26.318C158.726 22.5873 156.449 19.2979 153.873 16.3841C143.544 4.73208 127.43 -1.45544 112.021 0.294094C92.7577 2.48492 75.974 15.9867 56.6455 17.2792C50.1124 17.7143 43.4487 16.7253 37.0463 18.093C25.825 20.4841 16.7036 30.6871 15.5245 42.1639C14.7406 49.8286 17.1578 57.3995 18.8657 64.9109C20.6701 72.8573 21.6656 81.2607 19.4257 89.0913C17.7333 94.9878 14.2801 100.239 12.4509 106.092C10.7554 111.463 10.5065 117.181 10.6994 122.805C10.7585 124.47 10.8736 126.185 11.5923 127.687C14.0281 132.761 23.5011 134.241 28.4662 134.689C37.2454 135.487 46.4041 134.948 55.2206 135.102C73.9301 135.431 92.6353 135.712 111.336 135.944Z" fill="#798FFE"/>
<path d="M89.8956 133.108C89.9855 133.354 89.9964 133.622 89.9267 133.875C89.8693 134.013 89.787 134.139 89.684 134.247C88.7228 135.339 87.2886 135.862 85.9198 136.341C85.4427 136.52 84.9529 136.662 84.4545 136.767C83.9215 136.849 83.382 136.881 82.843 136.864C81.0752 136.851 79.3095 136.739 77.5544 136.526C77.9352 135.549 78.5527 134.683 79.3509 134.007C80.149 133.332 81.1025 132.868 82.1244 132.657C83.0919 132.466 84.0874 132.513 85.0674 132.416C85.1351 132.42 85.2028 132.407 85.2646 132.379C85.3264 132.35 85.3804 132.307 85.422 132.253C85.46 132.153 85.46 132.041 85.422 131.941L85.03 130.47C84.982 130.346 84.9744 130.21 85.0082 130.081C85.0736 129.9 85.282 129.819 85.4656 129.768C86.1282 129.574 86.5669 127.618 87.2762 127.578C87.9855 127.537 88.9716 129.872 89.0961 130.614C89.2454 131.527 89.7929 132.723 89.8956 133.108Z" fill="#798FFE"/>
<path d="M89.8956 133.108C89.9855 133.354 89.9964 133.622 89.9267 133.875C89.8693 134.013 89.787 134.139 89.684 134.247C88.7228 135.339 87.2886 135.862 85.9198 136.341C85.4427 136.52 84.9529 136.662 84.4545 136.767C83.9215 136.849 83.382 136.881 82.843 136.864C81.0752 136.851 79.3095 136.739 77.5544 136.526C77.9352 135.549 78.5527 134.683 79.3509 134.007C80.149 133.332 81.1025 132.868 82.1244 132.657C83.0919 132.466 84.0874 132.513 85.0674 132.416C85.1351 132.42 85.2028 132.407 85.2646 132.379C85.3264 132.35 85.3804 132.307 85.422 132.253C85.46 132.153 85.46 132.041 85.422 131.941L85.03 130.47C84.982 130.346 84.9744 130.21 85.0082 130.081C85.0736 129.9 85.282 129.819 85.4656 129.768C86.1282 129.574 86.5669 127.618 87.2762 127.578C87.9855 127.537 88.9716 129.872 89.0961 130.614C89.2454 131.527 89.7929 132.723 89.8956 133.108Z" fill="url(#paint0_linear)"/>
<path d="M109.545 134.864C111.386 136.639 114.183 137.005 116.7 136.714C117.126 136.664 117.611 136.561 117.823 136.185C118.034 135.809 117.876 135.337 117.649 134.971C117.114 134.119 116.246 133.537 115.371 133.043C114.08 132.316 112.716 131.73 111.302 131.293C111.004 131.222 110.721 131.095 110.469 130.921C109.918 130.483 109.865 129.669 109.429 129.105C109.246 128.871 107.171 128.311 106.969 128.48C106.346 128.961 107.09 130.483 107.361 131.196C107.88 132.52 108.502 133.86 109.545 134.864Z" fill="#798FFE"/>
<path d="M109.545 134.864C111.386 136.639 114.183 137.005 116.7 136.714C117.126 136.664 117.611 136.561 117.823 136.185C118.034 135.809 117.876 135.337 117.649 134.971C117.114 134.119 116.246 133.537 115.371 133.043C114.08 132.316 112.716 131.73 111.302 131.293C111.004 131.222 110.721 131.095 110.469 130.921C109.918 130.483 109.865 129.669 109.429 129.105C109.246 128.871 107.171 128.311 106.969 128.48C106.346 128.961 107.09 130.483 107.361 131.196C107.88 132.52 108.502 133.86 109.545 134.864Z" fill="url(#paint1_linear)"/>
<path d="M153.938 75.2139H138.663V137.821H153.938V75.2139Z" fill="#798FFE"/>
<path d="M42.2012 75.2139H26.9263V137.821H42.2012V75.2139Z" fill="#798FFE"/>
<path d="M42.2012 75.2139H26.9263V92.6966H42.2012V75.2139Z" fill="url(#paint2_linear)"/>
<path d="M153.898 75.2139H138.623V92.6966H153.898V75.2139Z" fill="url(#paint3_linear)"/>
<path d="M157.335 70.0908H21.2705V76.3503H157.335V70.0908Z" fill="#798FFE"/>
<path d="M90.0076 84.8885C90.0076 84.8885 69.3569 93.9961 68.5076 95.561C67.6583 97.1259 67.9414 101.11 69.2169 102.819C70.4924 104.528 84.4918 130.282 84.4918 130.282L89.1583 128.999L79.9654 101.11C79.9654 101.11 105.426 99.6891 107.264 97.8394C109.103 95.9898 111.648 90.4407 111.648 90.4407L98.3512 78.3442L90.0076 84.8885Z" fill="#798FFE"/>
<path d="M90.0076 84.8885C90.0076 84.8885 69.3569 93.9961 68.5076 95.561C67.6583 97.1259 67.9414 101.11 69.2169 102.819C70.4924 104.528 84.4918 130.282 84.4918 130.282L89.1583 128.999L79.9654 101.11C79.9654 101.11 105.426 99.6891 107.264 97.8394C109.103 95.9898 111.648 90.4407 111.648 90.4407L98.3512 78.3442L90.0076 84.8885Z" fill="url(#paint4_linear)"/>
<path d="M101.867 18.5811H41.943C40.1338 18.5811 38.6671 20.0566 38.6671 21.8767V57.4025C38.6671 59.2226 40.1338 60.6981 41.943 60.6981H101.867C103.676 60.6981 105.143 59.2226 105.143 57.4025V21.8767C105.143 20.0566 103.676 18.5811 101.867 18.5811Z" fill="#798FFE"/>
<path d="M99.9161 20.3433H43.7256C42.059 20.3433 40.7079 21.7025 40.7079 23.3791V55.5091C40.7079 57.1858 42.059 58.545 43.7256 58.545H99.9161C101.583 58.545 102.934 57.1858 102.934 55.5091V23.3791C102.934 21.7025 101.583 20.3433 99.9161 20.3433Z" fill="url(#paint5_linear)"/>
<path d="M99.9161 20.3433H43.7256C42.059 20.3433 40.7079 21.7025 40.7079 23.3791V55.5091C40.7079 57.1858 42.059 58.545 43.7256 58.545H99.9161C101.583 58.545 102.934 57.1858 102.934 55.5091V23.3791C102.934 21.7025 101.583 20.3433 99.9161 20.3433Z" fill="url(#paint6_linear)"/>
<path d="M94.5683 36.4242C93.0128 39.241 90.8351 41.6571 89.3885 44.5303C88.3401 46.6303 87.7179 48.9119 86.7722 51.0652C85.8264 53.2184 84.4732 55.3028 82.4168 56.4358C81.58 56.899 80.5813 57.2558 80.1489 58.1102C84.5288 58.8013 88.9594 59.1154 93.3923 59.0492C93.6756 59.065 93.959 59.0191 94.223 58.9146C94.5313 58.726 94.7862 58.4609 94.9634 58.1447C97.9748 53.8068 102.955 50.6865 104.415 45.6038C105.09 43.2658 104.915 40.7746 104.726 38.3459C104.495 35.1692 104.262 31.9862 103.792 28.8314C103.444 26.4497 103.192 23.8614 100.681 22.8505C99.2348 22.2652 97.2064 22.2245 95.8469 23.0821C93.9648 24.2495 94.8732 25.5859 95.5918 27.2102C96.9917 30.2367 96.1144 33.6481 94.5683 36.4242Z" fill="url(#paint7_linear)"/>
<path d="M103.351 35.7541C103.44 35.7387 103.533 35.7553 103.612 35.801C103.663 35.8564 103.696 35.9264 103.705 36.0013C103.768 36.4724 103.799 36.947 103.799 37.4222C103.802 37.9004 103.968 38.363 104.268 38.7336C104.735 39.2312 105.491 39.2782 106.169 39.297C106.312 39.3075 106.456 39.2959 106.595 39.2625C106.782 39.1783 106.958 39.0733 107.121 38.9495C107.603 38.671 108.213 38.7179 108.708 38.4644C108.898 38.3611 109.071 38.2268 109.218 38.067C110.198 37.0341 110.288 35.4161 109.958 34.0233C109.629 32.6306 108.96 31.3443 108.599 29.9546C108.288 28.7309 108.201 27.3976 107.501 26.346C107.436 26.2221 107.343 26.1158 107.228 26.0362C107.114 25.9566 106.982 25.9061 106.844 25.8891C105.8 25.7018 104.737 25.6377 103.677 25.6982C102.825 25.6982 101.935 25.7451 101.188 26.1551C100.709 26.4149 99.3717 24.3618 99.0357 24.7906C98.7992 25.1035 99.3623 31.554 99.4401 32.0516C100.103 36.2611 102.178 35.8135 103.351 35.7541Z" fill="url(#paint8_linear)"/>
<path d="M93.6132 47.8948C93.6132 47.8948 95.878 39.7825 100.616 38.2896C105.354 36.7968 112.497 36.368 114.124 36.7936C115.751 37.2193 120.417 39.8545 120.912 47.3972C121.407 54.9399 121.83 58.7081 121.83 58.7081L120.557 90.4406C120.557 90.4406 103.161 93.2856 98.4943 91.1511L96.7958 83.3267L95.1003 89.4454L90.0076 84.8916L92.8355 75.3584C92.8355 75.3584 92.4124 52.5895 93.6132 47.8948Z" fill="#798FFE"/>
<path d="M93.6132 47.8948C93.6132 47.8948 95.878 39.7825 100.616 38.2896C105.354 36.7968 112.497 36.368 114.124 36.7936C115.751 37.2193 120.417 39.8545 120.912 47.3972C121.407 54.9399 121.83 58.7081 121.83 58.7081L120.557 90.4406C120.557 90.4406 103.161 93.2856 98.4943 91.1511L96.7958 83.3267L95.1003 89.4454L90.0076 84.8916L92.8355 75.3584C92.8355 75.3584 92.4124 52.5895 93.6132 47.8948Z" fill="url(#paint9_linear)"/>
<path opacity="0.48" d="M111.828 58.7954C110.68 60.7045 110.154 62.9141 109.65 65.0799L106.343 79.1388C105.656 82.0682 104.953 85.0415 103.525 87.6861C102.097 90.3307 99.8321 92.6655 96.9544 93.4918C94.8203 94.1177 92.543 93.858 90.3373 94.1021C88.1238 94.3655 85.996 95.1197 84.1072 96.3103C82.2184 97.501 80.6157 99.0985 79.4147 100.988C88.5179 101.109 97.6185 100.597 106.651 99.4539C107.986 99.2849 109.367 99.0846 110.506 98.3617C111.84 97.5104 112.662 96.0519 113.306 94.606C114.709 91.5138 115.611 88.2182 116.417 84.9037C117.723 79.4695 118.753 73.9717 119.503 68.4319C120.187 63.3836 121.584 57.0678 120.725 52.0508C117.437 52.7957 113.576 55.9035 111.828 58.7954Z" fill="url(#paint10_linear)"/>
<path d="M84.3332 69.1675L92.4839 69.0956L92.6955 65.3242L84.3332 69.1675Z" stroke="#3CB6D5" stroke-width="0.888304" stroke-miterlimit="10"/>
<path d="M89.4445 100.969L106.415 129.713L110.092 128.858L101.605 99.9736L89.4445 100.969Z" fill="#798FFE"/>
<path d="M89.4445 100.969L106.415 129.713L110.092 128.858L101.605 99.9736L89.4445 100.969Z" fill="url(#paint11_linear)"/>
<path d="M142.484 69.95C141.774 72.8012 135.686 96.5529 135.686 96.5529C135.686 96.5529 134.131 103.1 129.327 103.1C126.748 103.1 114.121 102.875 102.968 102.662C93.3239 102.481 84.778 102.312 84.778 102.312C84.778 102.312 83.6487 98.1147 87.1766 97.8236C90.7044 97.5325 100.753 97.8236 100.753 97.8236C100.753 97.8236 105.712 97.5513 107.687 92.5656C109.314 88.4969 113.02 71.975 114.317 66.1537C114.661 64.565 115.362 63.0768 116.367 61.8033C118.597 58.9365 123.028 54.3889 128.904 54.0102C135.008 53.6002 138.928 55.9037 140.947 57.9506C141.594 58.5665 142.116 59.3031 142.484 60.1195C143.19 61.9754 143.19 67.0988 142.484 69.95Z" fill="#798FFE"/>
<path d="M140.947 57.9564C140.947 58.138 140.947 58.307 140.931 58.4885C140.931 58.4885 129.041 54.2289 120.134 67.6743L111.859 96.9062C111.859 96.9062 110.217 102.455 102.968 102.668C93.3239 102.487 84.778 102.318 84.778 102.318C84.778 102.318 83.6487 98.1205 87.1766 97.8295C90.7044 97.5384 100.753 97.8295 100.753 97.8295C100.753 97.8295 105.712 97.5572 107.687 92.5715C109.314 88.5028 113.02 71.9809 114.317 66.1595C114.661 64.5709 115.362 63.0827 116.367 61.8092C118.597 58.9423 123.028 54.3948 128.904 54.0161C135.008 53.6061 138.928 55.9096 140.947 57.9564Z" fill="url(#paint12_linear)"/>
<path d="M109.949 102.759H107.687V137.966H109.949V102.759Z" fill="#798FFE"/>
<path d="M109.949 102.759H107.687V137.966H109.949V102.759Z" fill="url(#paint13_linear)"/>
<path d="M117.568 135.184H101.272C100.499 135.184 99.8725 135.814 99.8725 136.592C99.8725 137.37 100.499 138 101.272 138H117.568C118.341 138 118.968 137.37 118.968 136.592C118.968 135.814 118.341 135.184 117.568 135.184Z" fill="#798FFE"/>
<path d="M117.568 135.184H101.272C100.499 135.184 99.8725 135.814 99.8725 136.592C99.8725 137.37 100.499 138 101.272 138H117.568C118.341 138 118.968 137.37 118.968 136.592C118.968 135.814 118.341 135.184 117.568 135.184Z" fill="url(#paint14_linear)"/>
<path d="M83.0794 60.6797H63.7727V68.72H83.0794V60.6797Z" fill="#798FFE"/>
<path d="M83.0794 60.6797H63.7727V68.72H83.0794V60.6797Z" fill="url(#paint15_linear)"/>
<path d="M90.4027 66.6543H55.0433V70.0689H90.4027V66.6543Z" fill="#798FFE"/>
<path d="M90.9595 66.9048H55.6002V69.5807H90.9595V66.9048Z" fill="url(#paint16_linear)"/>
<path d="M102.76 19.3827C102.175 19.8208 101.668 20.3623 101.052 20.7535C100.204 21.2601 99.2373 21.5281 98.2517 21.5297C97.5828 21.5516 96.7646 21.561 96.4442 22.1556C96.1798 22.6407 96.4442 23.2542 96.7802 23.6861C97.0969 24.0782 97.4856 24.4055 97.925 24.65C98.1497 24.7543 98.359 24.8891 98.5472 25.0506C98.9299 25.4419 98.933 26.0616 99.1694 26.5561C99.5054 27.2509 100.271 27.6202 100.762 28.2148C101.73 29.3822 101.493 31.1849 102.318 32.4494C102.817 33.1259 103.504 33.638 104.293 33.9203C105.353 34.3833 106.518 34.5436 107.662 34.3835C108.805 34.2195 109.838 33.6089 110.537 32.6841C111.125 31.861 111.361 30.8407 111.529 29.8423C111.862 27.8737 111.977 25.8299 111.486 23.8958C110.515 20.0931 106.514 16.5753 102.76 19.3827Z" fill="#3F3D56"/>
<path d="M102.76 19.3827C102.175 19.8208 101.668 20.3623 101.052 20.7535C100.204 21.2601 99.2373 21.5281 98.2517 21.5297C97.5828 21.5516 96.7646 21.561 96.4442 22.1556C96.1798 22.6407 96.4442 23.2542 96.7802 23.6861C97.0969 24.0782 97.4856 24.4055 97.925 24.65C98.1497 24.7543 98.359 24.8891 98.5472 25.0506C98.9299 25.4419 98.933 26.0616 99.1694 26.5561C99.5054 27.2509 100.271 27.6202 100.762 28.2148C101.73 29.3822 101.493 31.1849 102.318 32.4494C102.817 33.1259 103.504 33.638 104.293 33.9203C105.353 34.3833 106.518 34.5436 107.662 34.3835C108.805 34.2195 109.838 33.6089 110.537 32.6841C111.125 31.861 111.361 30.8407 111.529 29.8423C111.862 27.8737 111.977 25.8299 111.486 23.8958C110.515 20.0931 106.514 16.5753 102.76 19.3827Z" fill="url(#paint17_linear)"/>
<path d="M103.749 41.3659C104.159 41.9419 104.44 42.6008 104.572 43.2968C104.704 43.9928 104.684 44.7094 104.514 45.397C103.699 48.9555 101.444 57.3996 97.645 61.0457C92.7639 65.7403 85.3411 70.6509 69.9573 70.2253L70.172 65.9563C70.172 65.9563 86.8251 64.4603 88.309 58.9112C89.7929 53.3622 95.6291 41.4097 97.7508 40.236C99.4183 39.3221 102.072 39.125 103.749 41.3659Z" fill="#798FFE"/>
<path d="M103.749 41.3659C104.159 41.9419 104.44 42.6008 104.572 43.2968C104.704 43.9928 104.684 44.7094 104.514 45.397C103.699 48.9555 101.444 57.3996 97.645 61.0457C92.7639 65.7403 85.3411 70.6509 69.9573 70.2253L70.172 65.9563C70.172 65.9563 86.8251 64.4603 88.309 58.9112C89.7929 53.3622 95.6291 41.4097 97.7508 40.236C99.4183 39.3221 102.072 39.125 103.749 41.3659Z" fill="url(#paint18_linear)"/>
<path d="M66.6939 65.7374C65.4342 65.4945 64.1329 65.5933 62.9236 66.0233C61.7144 66.4534 60.6406 67.1994 59.8124 68.1848L63.4989 68.5479C63.7383 68.5504 63.973 68.6151 64.1802 68.7357C64.3384 68.8844 64.489 69.0411 64.6313 69.2051C64.9496 69.4283 65.3327 69.5384 65.7202 69.5181C66.8744 69.5713 68.0316 69.5744 69.1858 69.5181C69.3289 69.5275 69.4711 69.4889 69.5902 69.4085C69.6812 69.3156 69.741 69.1963 69.7613 69.0674C69.9138 68.4728 70.2498 66.8077 69.6773 66.3915C69.4098 66.2006 68.5885 66.2256 68.2432 66.1348C67.7268 66.0159 67.2197 65.8438 66.6939 65.7374Z" fill="url(#paint19_linear)"/>
<path opacity="0.18" d="M147.918 16.1149V30.6525C147.918 31.4231 147.613 32.1619 147.071 32.7065C146.529 33.251 145.794 33.5569 145.028 33.5569H134.426L129.928 40.3078V33.5569H122.604C122.225 33.5574 121.849 33.4825 121.499 33.3368C121.148 33.191 120.829 32.9771 120.561 32.7074C120.293 32.4376 120.08 32.1173 119.934 31.7647C119.789 31.4121 119.714 31.0342 119.714 30.6525V16.1149C119.714 15.7332 119.789 15.3552 119.934 15.0027C120.08 14.6501 120.293 14.3298 120.561 14.06C120.829 13.7903 121.148 13.5764 121.499 13.4306C121.849 13.2849 122.225 13.21 122.604 13.2105H145.028C145.794 13.2105 146.529 13.5163 147.071 14.0609C147.613 14.6055 147.918 15.3443 147.918 16.1149Z" fill="#798FFE"/>
<path d="M146.802 15.3668V29.9045C146.802 30.2862 146.727 30.6641 146.582 31.0167C146.436 31.3693 146.223 31.6896 145.955 31.9593C145.687 32.2291 145.368 32.4429 145.017 32.5887C144.667 32.7345 144.291 32.8093 143.912 32.8089H133.312L128.811 39.5598V32.8183H121.491C121.111 32.8187 120.735 32.7439 120.384 32.5982C120.034 32.4524 119.715 32.2386 119.446 31.9689C119.178 31.6992 118.964 31.3789 118.819 31.0263C118.673 30.6737 118.598 30.2957 118.598 29.9139V15.3668C118.598 14.985 118.673 14.607 118.819 14.2544C118.964 13.9018 119.178 13.5815 119.446 13.3118C119.715 13.0421 120.034 12.8283 120.384 12.6825C120.735 12.5368 121.111 12.462 121.491 12.4624H143.912C144.291 12.462 144.667 12.5368 145.017 12.6826C145.368 12.8284 145.687 13.0422 145.955 13.312C146.223 13.5817 146.436 13.902 146.582 14.2546C146.727 14.6072 146.802 14.9851 146.802 15.3668Z" fill="white"/>
<path d="M47.3748 22.8691H44.7491V55.5437H47.3748V22.8691Z" fill="url(#paint20_linear)"/>
<path d="M126.838 22.8689L131.387 20.5122V21.1945L127.554 23.1162V23.1381L131.387 25.0691V25.7514L126.838 23.3947V22.8689Z" fill="#798FFE"/>
<path d="M132.021 26.1554L134.756 19.0039H135.422L132.678 26.1554H132.021Z" fill="#798FFE"/>
<path d="M140.586 23.4291L136.041 25.7764V25.0785L139.901 23.1475V23.1162L136.041 21.1851V20.5122L140.586 22.8595V23.4291Z" fill="#798FFE"/>
<path d="M60.8204 28.0674H52.3803V28.6902H60.8204V28.0674Z" fill="url(#paint21_linear)"/>
<path d="M57.5321 29.2725H52.3803V29.8577H57.5321V29.2725Z" fill="url(#paint22_linear)"/>
<path d="M75.8215 29.2725H59.6102V29.8609H75.8215V29.2725Z" fill="url(#paint23_linear)"/>
<path d="M86.4611 29.2725H77.3366V29.8609H86.4611V29.2725Z" fill="url(#paint24_linear)"/>
<path d="M62.1425 30.4805H55.0589V31.097H62.1425V30.4805Z" fill="url(#paint25_linear)"/>
<path d="M65.7731 31.6855H57.333V32.3084H65.7731V31.6855Z" fill="url(#paint26_linear)"/>
<path d="M73.3981 31.6855H66.3237V32.3772H73.3981V31.6855Z" fill="url(#paint27_linear)"/>
<path d="M63.838 32.8906H57.3205V33.4759H63.838V32.8906Z" fill="url(#paint28_linear)"/>
<path d="M89.1801 32.8906H82.6626V33.4759H89.1801V32.8906Z" fill="url(#paint29_linear)"/>
<path d="M77.9121 32.8906H64.4633V33.5385H77.9121V32.8906Z" fill="url(#paint30_linear)"/>
<path d="M82.1555 32.8906H79.1907V33.551H82.1555V32.8906Z" fill="url(#paint31_linear)"/>
<path d="M60.8204 34.521H52.3803V35.1438H60.8204V34.521Z" fill="url(#paint32_linear)"/>
<path d="M57.5321 35.7261H52.3803V36.3113H57.5321V35.7261Z" fill="url(#paint33_linear)"/>
<path d="M75.8215 35.7261H59.6102V36.3145H75.8215V35.7261Z" fill="url(#paint34_linear)"/>
<path d="M86.4611 35.7261H77.3366V36.3145H86.4611V35.7261Z" fill="url(#paint35_linear)"/>
<path d="M62.1425 36.9312H55.0589V37.5477H62.1425V36.9312Z" fill="url(#paint36_linear)"/>
<path d="M65.7731 38.1392H57.333V38.762H65.7731V38.1392Z" fill="url(#paint37_linear)"/>
<path d="M73.3981 38.1392H66.3237V38.8308H73.3981V38.1392Z" fill="url(#paint38_linear)"/>
<path d="M63.838 39.3442H57.3205V39.9295H63.838V39.3442Z" fill="url(#paint39_linear)"/>
<path d="M89.1801 39.3442H82.6626V39.9295H89.1801V39.3442Z" fill="url(#paint40_linear)"/>
<path d="M77.9121 39.3442H64.4633V39.9921H77.9121V39.3442Z" fill="url(#paint41_linear)"/>
<path d="M82.1555 39.3442H79.1907V40.0046H82.1555V39.3442Z" fill="url(#paint42_linear)"/>
<path d="M60.8204 40.9746H52.3803V41.5974H60.8204V40.9746Z" fill="url(#paint43_linear)"/>
<path d="M57.5321 42.1797H52.3803V42.7649H57.5321V42.1797Z" fill="url(#paint44_linear)"/>
<path d="M75.8215 42.1797H59.6102V42.7681H75.8215V42.1797Z" fill="url(#paint45_linear)"/>
<path d="M86.4611 42.1797H77.3366V42.7681H86.4611V42.1797Z" fill="url(#paint46_linear)"/>
<path d="M62.1425 43.3843H55.0589V44.0008H62.1425V43.3843Z" fill="url(#paint47_linear)"/>
<path d="M65.7731 44.5894H57.333V45.2122H65.7731V44.5894Z" fill="url(#paint48_linear)"/>
<path d="M73.3981 44.5894H66.3237V45.281H73.3981V44.5894Z" fill="url(#paint49_linear)"/>
<path d="M63.838 45.7974H57.3205V46.3826H63.838V45.7974Z" fill="url(#paint50_linear)"/>
<path d="M89.1801 45.7974H82.6626V46.3826H89.1801V45.7974Z" fill="url(#paint51_linear)"/>
<path d="M77.9121 45.7974H64.4633V46.4452H77.9121V45.7974Z" fill="url(#paint52_linear)"/>
<path d="M82.1555 45.7974H79.1907V46.4577H82.1555V45.7974Z" fill="url(#paint53_linear)"/>
</g>
<defs>
<linearGradient id="paint0_linear" x1="75.0127" y1="127.703" x2="98.696" y2="141.325" gradientUnits="userSpaceOnUse">
<stop stop-opacity="0"/>
<stop offset="0.99"/>
</linearGradient>
<linearGradient id="paint1_linear" x1="3891.99" y1="3614.41" x2="3713.25" y2="3908.5" gradientUnits="userSpaceOnUse">
<stop stop-opacity="0"/>
<stop offset="0.99"/>
</linearGradient>
<linearGradient id="paint2_linear" x1="98.2601" y1="4544.15" x2="14403.1" y2="6728.99" gradientUnits="userSpaceOnUse">
<stop stop-opacity="0"/>
<stop offset="0.99"/>
</linearGradient>
<linearGradient id="paint3_linear" x1="5694.11" y1="4544.15" x2="19998.9" y2="6728.99" gradientUnits="userSpaceOnUse">
<stop stop-opacity="0"/>
<stop offset="0.99"/>
</linearGradient>
<linearGradient id="paint4_linear" x1="7170.23" y1="17878.1" x2="27486.6" y2="17308.8" gradientUnits="userSpaceOnUse">
<stop stop-opacity="0"/>
<stop offset="0.99"/>
</linearGradient>
<linearGradient id="paint5_linear" x1="12295.5" y1="4629" x2="11593.3" y2="26948.1" gradientUnits="userSpaceOnUse">
<stop stop-opacity="0"/>
<stop offset="0.99"/>
</linearGradient>
<linearGradient id="paint6_linear" x1="71.1271" y1="73.283" x2="72.5377" y2="5.38654" gradientUnits="userSpaceOnUse">
<stop stop-color="white" stop-opacity="0"/>
<stop offset="0.99" stop-color="white"/>
</linearGradient>
<linearGradient id="paint7_linear" x1="5889.15" y1="4937" x2="18026.6" y2="5437.53" gradientUnits="userSpaceOnUse">
<stop stop-opacity="0"/>
<stop offset="0.99"/>
</linearGradient>
<linearGradient id="paint8_linear" x1="98.9766" y1="32.0203" x2="110.129" y2="32.0203" gradientUnits="userSpaceOnUse">
<stop stop-color="#ECC4D7"/>
<stop offset="0.42" stop-color="#EFD4D1"/>
<stop offset="1" stop-color="#F2EAC9"/>
</linearGradient>
<linearGradient id="paint9_linear" x1="8601.17" y1="11444.9" x2="24225.8" y2="12471.4" gradientUnits="userSpaceOnUse">
<stop stop-opacity="0"/>
<stop offset="0.99"/>
</linearGradient>
<linearGradient id="paint10_linear" x1="10492.3" y1="11242" x2="30188.4" y2="20831.2" gradientUnits="userSpaceOnUse">
<stop stop-opacity="0"/>
<stop offset="0.99"/>
</linearGradient>
<linearGradient id="paint11_linear" x1="5907.72" y1="11967" x2="7859.96" y2="2775.22" gradientUnits="userSpaceOnUse">
<stop stop-opacity="0"/>
<stop offset="0.99"/>
</linearGradient>
<linearGradient id="paint12_linear" x1="16123.7" y1="16743.9" x2="22658.7" y2="2703.45" gradientUnits="userSpaceOnUse">
<stop stop-color="white" stop-opacity="0"/>
<stop offset="0.99" stop-color="white"/>
</linearGradient>
<linearGradient id="paint13_linear" x1="818.416" y1="14874.7" x2="3241" y2="10807.6" gradientUnits="userSpaceOnUse">
<stop stop-opacity="0"/>
<stop offset="0.99"/>
</linearGradient>
<linearGradient id="paint14_linear" x1="5974.5" y1="1342.67" x2="6034.54" y2="1662.33" gradientUnits="userSpaceOnUse">
<stop stop-opacity="0"/>
<stop offset="0.99"/>
</linearGradient>
<linearGradient id="paint15_linear" x1="3960.65" y1="1775.92" x2="3959.98" y2="1311.35" gradientUnits="userSpaceOnUse">
<stop stop-opacity="0"/>
<stop offset="0.99"/>
</linearGradient>
<linearGradient id="paint16_linear" x1="7157.89" y1="614.243" x2="7158.23" y2="737.554" gradientUnits="userSpaceOnUse">
<stop stop-opacity="0"/>
<stop offset="0.99"/>
</linearGradient>
<linearGradient id="paint17_linear" x1="4680.24" y1="1356.79" x2="5303.39" y2="1729.58" gradientUnits="userSpaceOnUse">
<stop stop-opacity="0"/>
<stop offset="0.99"/>
</linearGradient>
<linearGradient id="paint18_linear" x1="8852.42" y1="5922.59" x2="7973.66" y2="4806.44" gradientUnits="userSpaceOnUse">
<stop stop-color="white" stop-opacity="0"/>
<stop offset="0.99" stop-color="white"/>
</linearGradient>
<linearGradient id="paint19_linear" x1="1684.43" y1="943.212" x2="2017.93" y2="943.212" gradientUnits="userSpaceOnUse">
<stop stop-color="#ECC4D7"/>
<stop offset="0.42" stop-color="#EFD4D1"/>
<stop offset="1" stop-color="#F2EAC9"/>
</linearGradient>
<linearGradient id="paint20_linear" x1="275.65" y1="4260.11" x2="475.016" y2="4257.38" gradientUnits="userSpaceOnUse">
<stop stop-color="white" stop-opacity="0"/>
<stop offset="0.99" stop-color="white"/>
</linearGradient>
<linearGradient id="paint21_linear" x1="1307.93" y1="50.3145" x2="1307.86" y2="100.027" gradientUnits="userSpaceOnUse">
<stop stop-color="white" stop-opacity="0"/>
<stop offset="0.99" stop-color="white"/>
</linearGradient>
<linearGradient id="paint22_linear" x1="791.918" y1="50.1253" x2="791.819" y2="96.8334" gradientUnits="userSpaceOnUse">
<stop stop-color="white" stop-opacity="0"/>
<stop offset="0.99" stop-color="white"/>
</linearGradient>
<linearGradient id="paint23_linear" x1="3051.41" y1="50.6841" x2="3051.38" y2="97.6487" gradientUnits="userSpaceOnUse">
<stop stop-color="white" stop-opacity="0"/>
<stop offset="0.99" stop-color="white"/>
</linearGradient>
<linearGradient id="paint24_linear" x1="2177.07" y1="51.1901" x2="2177.01" y2="98.1485" gradientUnits="userSpaceOnUse">
<stop stop-color="white" stop-opacity="0"/>
<stop offset="0.99" stop-color="white"/>
</linearGradient>
<linearGradient id="paint25_linear" x1="1155.44" y1="52.5842" x2="1155.36" y2="101.791" gradientUnits="userSpaceOnUse">
<stop stop-color="white" stop-opacity="0"/>
<stop offset="0.99" stop-color="white"/>
</linearGradient>
<linearGradient id="paint26_linear" x1="1449.1" y1="54.1194" x2="1449.04" y2="103.831" gradientUnits="userSpaceOnUse">
<stop stop-color="white" stop-opacity="0"/>
<stop offset="0.99" stop-color="white"/>
</linearGradient>
<linearGradient id="paint27_linear" x1="1421.7" y1="56.9457" x2="1421.6" y2="112.154" gradientUnits="userSpaceOnUse">
<stop stop-color="white" stop-opacity="0"/>
<stop offset="0.99" stop-color="white"/>
</linearGradient>
<linearGradient id="paint28_linear" x1="1112.11" y1="53.9424" x2="1112.03" y2="100.65" gradientUnits="userSpaceOnUse">
<stop stop-color="white" stop-opacity="0"/>
<stop offset="0.99" stop-color="white"/>
</linearGradient>
<linearGradient id="paint29_linear" x1="1668.18" y1="54.832" x2="1668.1" y2="101.546" gradientUnits="userSpaceOnUse">
<stop stop-color="white" stop-opacity="0"/>
<stop offset="0.99" stop-color="white"/>
</linearGradient>
<linearGradient id="paint30_linear" x1="2699.48" y1="56.6087" x2="2699.43" y2="108.313" gradientUnits="userSpaceOnUse">
<stop stop-color="white" stop-opacity="0"/>
<stop offset="0.99" stop-color="white"/>
</linearGradient>
<linearGradient id="paint31_linear" x1="750.442" y1="57.4433" x2="750.221" y2="110.146" gradientUnits="userSpaceOnUse">
<stop stop-color="white" stop-opacity="0"/>
<stop offset="0.99" stop-color="white"/>
</linearGradient>
<linearGradient id="paint32_linear" x1="1307.93" y1="69.611" x2="1307.86" y2="119.323" gradientUnits="userSpaceOnUse">
<stop stop-color="white" stop-opacity="0"/>
<stop offset="0.99" stop-color="white"/>
</linearGradient>
<linearGradient id="paint33_linear" x1="791.918" y1="68.6414" x2="791.819" y2="115.356" gradientUnits="userSpaceOnUse">
<stop stop-color="white" stop-opacity="0"/>
<stop offset="0.99" stop-color="white"/>
</linearGradient>
<linearGradient id="paint34_linear" x1="3051.41" y1="69.2709" x2="3051.38" y2="116.236" gradientUnits="userSpaceOnUse">
<stop stop-color="white" stop-opacity="0"/>
<stop offset="0.99" stop-color="white"/>
</linearGradient>
<linearGradient id="paint35_linear" x1="2177.07" y1="69.771" x2="2177.01" y2="116.736" gradientUnits="userSpaceOnUse">
<stop stop-color="white" stop-opacity="0"/>
<stop offset="0.99" stop-color="white"/>
</linearGradient>
<linearGradient id="paint36_linear" x1="1155.44" y1="71.742" x2="1155.36" y2="120.954" gradientUnits="userSpaceOnUse">
<stop stop-color="white" stop-opacity="0"/>
<stop offset="0.99" stop-color="white"/>
</linearGradient>
<linearGradient id="paint37_linear" x1="1449.1" y1="73.4162" x2="1449.04" y2="123.129" gradientUnits="userSpaceOnUse">
<stop stop-color="white" stop-opacity="0"/>
<stop offset="0.99" stop-color="white"/>
</linearGradient>
<linearGradient id="paint38_linear" x1="1421.7" y1="77.662" x2="1421.6" y2="132.871" gradientUnits="userSpaceOnUse">
<stop stop-color="white" stop-opacity="0"/>
<stop offset="0.99" stop-color="white"/>
</linearGradient>
<linearGradient id="paint39_linear" x1="1112.11" y1="72.4649" x2="1112.03" y2="119.174" gradientUnits="userSpaceOnUse">
<stop stop-color="white" stop-opacity="0"/>
<stop offset="0.99" stop-color="white"/>
</linearGradient>
<linearGradient id="paint40_linear" x1="1668.18" y1="73.3545" x2="1668.1" y2="120.064" gradientUnits="userSpaceOnUse">
<stop stop-color="white" stop-opacity="0"/>
<stop offset="0.99" stop-color="white"/>
</linearGradient>
<linearGradient id="paint41_linear" x1="2699.48" y1="76.4151" x2="2699.43" y2="128.126" gradientUnits="userSpaceOnUse">
<stop stop-color="white" stop-opacity="0"/>
<stop offset="0.99" stop-color="white"/>
</linearGradient>
<linearGradient id="paint42_linear" x1="750.442" y1="77.5138" x2="750.221" y2="130.216" gradientUnits="userSpaceOnUse">
<stop stop-color="white" stop-opacity="0"/>
<stop offset="0.99" stop-color="white"/>
</linearGradient>
<linearGradient id="paint43_linear" x1="1307.93" y1="88.9073" x2="1307.86" y2="138.614" gradientUnits="userSpaceOnUse">
<stop stop-color="white" stop-opacity="0"/>
<stop offset="0.99" stop-color="white"/>
</linearGradient>
<linearGradient id="paint44_linear" x1="791.918" y1="87.1621" x2="791.819" y2="133.875" gradientUnits="userSpaceOnUse">
<stop stop-color="white" stop-opacity="0"/>
<stop offset="0.99" stop-color="white"/>
</linearGradient>
<linearGradient id="paint45_linear" x1="3051.41" y1="87.8564" x2="3051.38" y2="134.815" gradientUnits="userSpaceOnUse">
<stop stop-color="white" stop-opacity="0"/>
<stop offset="0.99" stop-color="white"/>
</linearGradient>
<linearGradient id="paint46_linear" x1="2177.07" y1="88.3566" x2="2177.01" y2="135.321" gradientUnits="userSpaceOnUse">
<stop stop-color="white" stop-opacity="0"/>
<stop offset="0.99" stop-color="white"/>
</linearGradient>
<linearGradient id="paint47_linear" x1="1155.44" y1="90.9083" x2="1155.36" y2="140.12" gradientUnits="userSpaceOnUse">
<stop stop-color="white" stop-opacity="0"/>
<stop offset="0.99" stop-color="white"/>
</linearGradient>
<linearGradient id="paint48_linear" x1="1449.1" y1="92.7083" x2="1449.04" y2="142.42" gradientUnits="userSpaceOnUse">
<stop stop-color="white" stop-opacity="0"/>
<stop offset="0.99" stop-color="white"/>
</linearGradient>
<linearGradient id="paint49_linear" x1="1421.7" y1="98.3739" x2="1421.6" y2="153.582" gradientUnits="userSpaceOnUse">
<stop stop-color="white" stop-opacity="0"/>
<stop offset="0.99" stop-color="white"/>
</linearGradient>
<linearGradient id="paint50_linear" x1="1112.11" y1="90.9793" x2="1112.03" y2="137.693" gradientUnits="userSpaceOnUse">
<stop stop-color="white" stop-opacity="0"/>
<stop offset="0.99" stop-color="white"/>
</linearGradient>
<linearGradient id="paint51_linear" x1="1668.18" y1="91.8748" x2="1668.1" y2="138.583" gradientUnits="userSpaceOnUse">
<stop stop-color="white" stop-opacity="0"/>
<stop offset="0.99" stop-color="white"/>
</linearGradient>
<linearGradient id="paint52_linear" x1="2699.48" y1="96.2269" x2="2699.43" y2="147.938" gradientUnits="userSpaceOnUse">
<stop stop-color="white" stop-opacity="0"/>
<stop offset="0.99" stop-color="white"/>
</linearGradient>
<linearGradient id="paint53_linear" x1="750.442" y1="97.5776" x2="750.221" y2="150.287" gradientUnits="userSpaceOnUse">
<stop stop-color="white" stop-opacity="0"/>
<stop offset="0.99" stop-color="white"/>
</linearGradient>
<clipPath id="clip0">
<rect width="182" height="138" fill="white"/>
</clipPath>
</defs>
</svg>
