<svg width="182" height="137" viewBox="0 0 182 137" fill="none" xmlns="http://www.w3.org/2000/svg">
<g clip-path="url(#clip0)">
<path opacity="0.24" d="M178.867 96.4156C176.422 101.281 172.446 105.176 168.538 108.98C164.14 113.252 159.689 117.576 154.848 121.303C151.761 123.728 148.446 125.848 144.949 127.634C133.084 133.587 119.389 134.511 106.117 135.186C94.7378 135.767 83.3415 136.248 71.9453 136.476C61.9951 136.674 50.7968 137.92 41.0145 135.715C34.6019 134.258 31.5893 130.286 27.1048 125.911C26.0805 124.913 25.0434 123.942 23.9932 122.996C18.2177 117.744 12.2226 113.016 7.75101 106.327C0.865063 95.9557 -2.0959 82.2183 3.01692 70.8492C7.25608 61.393 16.2767 54.9068 25.5856 50.3291C30.8964 47.7072 36.4783 45.5322 41.518 42.3944C51.2573 36.3252 58.4273 27.0495 66.2644 18.6506C74.1014 10.2517 83.3975 2.31702 94.7119 0.425763C109.392 -2.04147 124.119 6.53366 133.364 18.1907C139.415 25.8245 143.813 34.9111 151.349 41.0706C155.05 44.0794 159.358 46.2758 163.15 49.1901C167.669 52.6287 171.37 57.0818 174.404 61.8916C180.89 72.1817 184.302 85.5581 178.867 96.4156Z" fill="#798FFE"/>
<path d="M138.907 88.4376C138.944 81.3745 136.375 74.5452 131.69 69.2542C131.258 68.8433 130.919 68.345 130.695 67.7928C130.537 67.1057 130.602 66.3861 130.88 65.7382C131.548 63.8765 132.688 62.2199 134.19 60.9307C135.691 59.6415 137.502 58.7639 139.445 58.3838L145.724 66.9546C149.86 72.6112 154.103 78.4827 155.536 85.3342C156.97 92.1857 154.701 100.322 148.508 103.593C146.146 104.844 143.434 105.287 140.762 105.437C133.738 105.824 126.422 104.148 120.904 99.798C119.841 98.9383 118.826 97.9798 118.292 96.7333C117.758 95.4868 117.758 93.9609 117.935 92.5597C118.339 89.3359 120.685 80.6318 124.95 80.7565C127.076 80.8167 129.46 83.645 131.156 84.7367C133.575 86.2887 136.179 87.532 138.907 88.4376Z" fill="#798FFE"/>
<path d="M45.3483 92.6719H37.5844V104.853H45.3483V92.6719Z" fill="#798FFE"/>
<path d="M45.3483 92.6719H37.5844V104.853H45.3483V92.6719Z" fill="url(#paint0_linear)"/>
<path d="M50.0272 88.3323L44.5973 91.666L47.7459 96.7815L53.1758 93.4478L50.0272 88.3323Z" fill="#798FFE"/>
<path d="M50.0272 88.3323L44.5973 91.666L47.7459 96.7815L53.1758 93.4478L50.0272 88.3323Z" fill="url(#paint1_linear)"/>
<path d="M51.7221 96.7466H44.2982V107.746H51.7221V96.7466Z" fill="#798FFE"/>
<path d="M51.7221 96.7466H44.2982V107.746H51.7221V96.7466Z" fill="url(#paint2_linear)"/>
<path d="M36.3794 90.041H27.1393V106.654H36.3794V90.041Z" fill="#798FFE"/>
<path d="M36.3794 90.041H27.1393V106.654H36.3794V90.041Z" fill="url(#paint3_linear)"/>
<path d="M25.0477 106.344L34.2878 95.2373L41.1264 101.298L44.083 99.5743L47.4098 102.777L43.4676 106.714L25.0477 106.344Z" fill="#798FFE"/>
<path d="M25.0477 106.344L34.2878 95.2373L41.1264 101.298L44.083 99.5743L47.4098 102.777L43.4676 106.714L25.0477 106.344Z" fill="url(#paint4_linear)"/>
<path d="M151.246 66.7827H136.824V106.284H151.246V66.7827Z" fill="#798FFE"/>
<path d="M151.246 66.7827H136.824V106.284H151.246V66.7827Z" fill="url(#paint5_linear)"/>
<path d="M129.452 102.932C126.103 100.22 124.924 95.6634 124.425 91.3866C123.926 87.1098 123.874 82.6568 122.028 78.7668C119.467 73.381 113.993 70.1057 108.815 67.1613C104.361 64.6124 99.6483 62.0034 94.5097 61.9303C90.7827 61.8916 86.2896 61.8013 82.7821 63.065C78.5128 64.6038 74.3252 66.3475 70.2195 68.2961C68.0418 69.332 65.8641 70.4453 64.0609 72.0485C61.81 74.0558 60.265 76.7294 58.9481 79.4416C55.9903 85.5447 54.0012 92.0702 53.052 98.784C52.3806 103.542 47.724 108.18 46.0713 112.693C45.5635 114.077 45.0944 115.573 45.4645 116.992C46.0369 119.21 48.3738 120.43 50.5128 121.26C62.4255 125.863 75.4399 126.551 88.2004 127.187C100.5 127.802 112.818 128.412 125.118 127.914C128.608 127.772 132.176 127.523 135.378 126.126C138.58 124.729 141.403 121.969 141.911 118.518C142.853 112.255 134.358 106.912 129.452 102.932Z" fill="#798FFE"/>
<path d="M88.0068 81.7278C88.1233 81.6363 88.2562 81.5677 88.3984 81.5257C88.5973 81.5035 88.7986 81.5316 88.9837 81.6074C89.9468 81.8919 90.9495 82.0196 91.9533 81.9857C92.2997 81.948 92.6501 81.9669 92.9905 82.0415C93.5158 82.2485 93.966 82.6097 94.2816 83.0774L96.2355 85.4587C96.4937 85.7725 96.8638 86.1163 97.2382 85.9616C97.4375 85.8572 97.5909 85.6825 97.6686 85.4716C98.4831 83.7812 98.7738 81.8864 98.5035 80.0299C98.4648 79.5352 98.284 79.0621 97.9828 78.6674C97.5787 78.269 97.0357 78.0425 96.4679 78.0355C94.9702 77.941 93.5629 78.6889 92.1297 79.1488C90.7489 79.5874 89.2971 79.7596 87.8518 79.656C87.5403 79.6082 87.2222 79.6257 86.9179 79.7076C86.6622 79.8163 86.4332 79.9791 86.2465 80.1847C85.6569 80.7606 83.6643 82.553 84.3744 83.4041C85.1534 84.3583 87.3311 82.1963 88.0068 81.7278Z" fill="url(#paint6_linear)"/>
<path d="M52.854 99.5575C53.5039 98.7494 53.7793 94.5757 54.7519 94.2232C55.7246 93.8708 61.4916 92.8908 62.5589 93.0971C71.9754 94.8981 80.6044 101.909 90.1285 100.778C96.6357 100.009 102.885 97.8252 108.97 95.3967C111.914 94.2232 115.176 92.9724 118.167 94.0341C120.508 94.8637 122.14 96.9441 123.642 98.9213L131.302 109.031C131.797 109.684 132.318 110.419 132.249 111.236C132.116 112.934 129.839 113.364 128.135 113.321C102.674 112.659 77.2245 111.704 51.7867 110.458C48.8042 110.458 52.3289 100.211 52.854 99.5575Z" fill="url(#paint7_linear)"/>
<path d="M54.9241 106.344C57.7146 106.344 59.9767 104.085 59.9767 101.298C59.9767 98.5112 57.7146 96.252 54.9241 96.252C52.1336 96.252 49.8715 98.5112 49.8715 101.298C49.8715 104.085 52.1336 106.344 54.9241 106.344Z" fill="#798FFE"/>
<path d="M54.9241 106.344C57.7146 106.344 59.9767 104.085 59.9767 101.298C59.9767 98.5112 57.7146 96.252 54.9241 96.252C52.1336 96.252 49.8715 98.5112 49.8715 101.298C49.8715 104.085 52.1336 106.344 54.9241 106.344Z" fill="url(#paint8_linear)"/>
<path d="M130.936 66.3057H110.309V106.469H130.936V66.3057Z" fill="#798FFE"/>
<path d="M130.936 66.3057H110.309V106.469H130.936V66.3057Z" fill="url(#paint9_linear)"/>
<path d="M105.29 42.8582C105.57 42.8863 105.839 42.984 106.071 43.1425C106.303 43.3009 106.492 43.515 106.62 43.7651C107.201 44.7623 107.051 46.0217 106.749 47.1307C106.246 48.8844 105.192 50.6424 103.47 51.2485C103.368 51.3016 103.254 51.3293 103.139 51.3293C103.023 51.3293 102.91 51.3016 102.807 51.2485C102.669 51.096 102.594 50.8957 102.601 50.6897C102.428 49.5853 102.373 48.4658 102.437 47.3499C102.536 46.0217 103.53 42.8238 105.29 42.8582Z" fill="url(#paint10_linear)"/>
<path d="M72.4359 43.598C72.156 43.6261 71.8876 43.7238 71.6553 43.8823C71.423 44.0407 71.2341 44.2548 71.1061 44.5049C70.5251 45.5022 70.6757 46.7573 70.9769 47.8705C71.4762 49.6242 72.5306 51.3822 74.2521 51.9883C74.3549 52.0425 74.4694 52.0708 74.5856 52.0708C74.7019 52.0708 74.8163 52.0425 74.9191 51.9883C75.0664 51.8379 75.1484 51.6356 75.1473 51.4252C75.3198 50.3223 75.3746 49.2042 75.3108 48.0897C75.1903 46.7616 74.1961 43.5593 72.4359 43.598Z" fill="url(#paint11_linear)"/>
<path d="M84.6843 69.4608C84.4304 71.61 83.7504 73.8021 84.34 75.8782C85.0888 78.5174 87.968 80.284 90.7009 80.0218C93.4338 79.7596 95.8309 77.6706 96.7261 75.0787C98.0172 71.3607 96.4808 67.316 94.9659 63.6839C94.8685 63.271 94.6336 62.9033 94.2998 62.6409C93.966 62.3786 93.553 62.2371 93.1282 62.2397L90.3953 61.8098C88.5878 61.5133 85.3987 61.0662 84.6111 63.2756C84.0387 64.8745 84.8995 67.6684 84.6843 69.4608Z" fill="url(#paint12_linear)"/>
<path d="M83.2985 65.4028C83.2985 65.4028 79.9115 72.9936 81.5555 79.6603L83.5051 84.8913L88.2392 79.8666C88.2392 79.8666 83.8279 71.9663 85.0071 66.3785C85.5063 63.9499 83.2985 65.4028 83.2985 65.4028Z" fill="white"/>
<path d="M84.7402 66.4731C84.7402 66.4731 85.1448 70.0923 87.146 71.7342C90.589 74.5668 97.2382 72.7185 97.1177 70.7499C96.9972 68.7813 95.5856 65.4888 95.5856 65.4888L84.7402 66.4731Z" fill="url(#paint13_linear)"/>
<path d="M96.8552 65.2012C96.8552 65.2012 101.271 72.1816 99.1147 79.6607L97.3674 84.9949L93.2616 79.0589C93.2616 79.0589 95.9299 75.775 95.8438 72.1816C95.7578 68.5882 95.5383 66.1296 95.5383 66.1296C95.5383 66.1296 96.0332 65.2012 96.8552 65.2012Z" fill="white"/>
<path d="M74.2822 50.5652C74.9062 52.7444 82.6788 68.257 89.1472 68.6181C97.8192 69.1124 101.086 58.4182 101.792 55.8779C104.066 47.7045 104.536 39.1354 103.169 30.7629C102.738 28.2097 102.067 25.5147 100.156 23.761C98.2453 22.0072 95.4221 21.543 92.814 21.3109C88.7513 20.9585 84.5853 20.937 80.6775 22.0975C67.0304 26.1895 71.261 39.9871 74.2822 50.5652Z" fill="url(#paint14_linear)"/>
<path d="M75.0569 38.139C75.1774 37.8725 75.3538 37.5673 75.6465 37.5587C75.9391 37.5501 76.0769 37.735 76.2619 37.8811C77.1485 38.5602 78.4138 38.3453 79.4639 37.9456C80.514 37.5458 81.5469 36.9828 82.6615 37.0515C83.9096 37.1332 84.9554 37.9886 86.1045 38.4872C87.205 38.9585 88.417 39.1076 89.5991 38.917C91.7854 38.5645 94.0148 37.0687 96.0289 37.9886C96.5712 38.2336 97.0575 38.6505 97.6514 38.7236C98.4562 38.8267 99.205 38.2594 100.018 38.2078C101.46 38.1089 102.51 39.6176 102.803 41.0318C103.096 42.4459 102.979 43.9675 103.591 45.2742C104.491 42.8392 105.247 40.3534 105.854 37.8295C106.047 37.1804 106.12 36.5017 106.069 35.8265C105.906 34.6531 105.037 33.6774 104.899 32.4953C104.872 31.8201 104.94 31.1444 105.101 30.488C105.368 28.8546 105.286 27.1832 104.86 25.5837C104.641 24.6099 104.187 23.7041 103.539 22.9445C102.81 22.2466 101.96 21.6873 101.03 21.2939L95.237 18.4098C93.9501 17.7006 92.5795 17.1548 91.1571 16.785C89.979 16.5337 88.7624 16.5214 87.5795 16.7488C86.3966 16.9762 85.2716 17.4387 84.2711 18.1089C83.5051 18.6247 82.8208 19.2608 82.0246 19.7294C80.8109 20.4472 79.395 20.7352 78.0178 21.0532C76.1199 21.4831 74.1961 22.0161 72.5951 23.1207C70.9942 24.2254 69.7418 26.0135 69.7719 27.9606C69.7719 28.73 69.9914 29.4908 70.0129 30.2602C70.0818 32.8392 68.0892 35.3279 68.7648 37.8209C69.0489 38.874 69.7762 39.6907 70.2238 40.6621C70.7101 41.7238 70.5337 42.6866 70.7876 43.7784C71.1061 45.1581 72.8921 46.9162 74.3554 46.8861C73.9121 43.8472 73.8045 41.0404 75.0569 38.139Z" fill="#606060"/>
<path d="M75.0569 38.139C75.1774 37.8725 75.3538 37.5673 75.6465 37.5587C75.9391 37.5501 76.0769 37.735 76.2619 37.8811C77.1485 38.5602 78.4138 38.3453 79.4639 37.9456C80.514 37.5458 81.5469 36.9828 82.6615 37.0515C83.9096 37.1332 84.9554 37.9886 86.1045 38.4872C87.205 38.9585 88.417 39.1076 89.5991 38.917C91.7854 38.5645 94.0148 37.0687 96.0289 37.9886C96.5712 38.2336 97.0575 38.6505 97.6514 38.7236C98.4562 38.8267 99.205 38.2594 100.018 38.2078C101.46 38.1089 102.51 39.6176 102.803 41.0318C103.096 42.4459 102.979 43.9675 103.591 45.2742C104.491 42.8392 105.247 40.3534 105.854 37.8295C106.047 37.1804 106.12 36.5017 106.069 35.8265C105.906 34.6531 105.037 33.6774 104.899 32.4953C104.872 31.8201 104.94 31.1444 105.101 30.488C105.368 28.8546 105.286 27.1832 104.86 25.5837C104.641 24.6099 104.187 23.7041 103.539 22.9445C102.81 22.2466 101.96 21.6873 101.03 21.2939L95.237 18.4098C93.9501 17.7006 92.5795 17.1548 91.1571 16.785C89.979 16.5337 88.7624 16.5214 87.5795 16.7488C86.3966 16.9762 85.2716 17.4387 84.2711 18.1089C83.5051 18.6247 82.8208 19.2608 82.0246 19.7294C80.8109 20.4472 79.395 20.7352 78.0178 21.0532C76.1199 21.4831 74.1961 22.0161 72.5951 23.1207C70.9942 24.2254 69.7418 26.0135 69.7719 27.9606C69.7719 28.73 69.9914 29.4908 70.0129 30.2602C70.0818 32.8392 68.0892 35.3279 68.7648 37.8209C69.0489 38.874 69.7762 39.6907 70.2238 40.6621C70.7101 41.7238 70.5337 42.6866 70.7876 43.7784C71.1061 45.1581 72.8921 46.9162 74.3554 46.8861C73.9121 43.8472 73.8045 41.0404 75.0569 38.139Z" fill="url(#paint15_linear)"/>
<path d="M154.856 106.422V121.303C151.77 123.728 148.454 125.848 144.958 127.634C133.093 133.587 119.398 134.511 106.125 135.186C94.7464 135.766 83.3501 136.248 71.9539 136.476C62.0037 136.673 50.8054 137.92 41.0231 135.715C34.6019 134.258 31.5893 130.286 27.1048 125.91C26.0806 124.913 25.0434 123.942 23.9933 122.996V106.422H154.856Z" fill="#798FFE"/>
<path d="M129.99 97.0518H111.324V106.465H129.99V97.0518Z" fill="#798FFE"/>
<path d="M129.99 87.2085H111.324V96.6218H129.99V87.2085Z" fill="#798FFE"/>
<path d="M129.99 77.2407H111.324V86.654H129.99V77.2407Z" fill="#798FFE"/>
<path d="M129.99 67.2729H111.324V76.6863H129.99V67.2729Z" fill="#798FFE"/>
<path d="M129.99 100.095H111.324V106.469H129.99V100.095Z" fill="url(#paint16_linear)"/>
<path d="M129.99 81.4185H111.324V86.6538H129.99V81.4185Z" fill="url(#paint17_linear)"/>
<path d="M129.99 70.8447H111.324V76.6904H129.99V70.8447Z" fill="url(#paint18_linear)"/>
<path d="M137.753 106.374L151.246 97.146V106.284L137.753 106.374Z" fill="#798FFE"/>
<path d="M137.753 96.9614L151.246 87.7329V96.8711L137.753 96.9614Z" fill="#798FFE"/>
<path d="M137.753 87.5478L151.246 78.3193V87.4532L137.753 87.5478Z" fill="#798FFE"/>
<path d="M137.753 78.1347L151.246 68.9062V78.0402L137.753 78.1347Z" fill="#798FFE"/>
<path d="M137.753 106.374L151.246 97.146V106.284L137.753 106.374Z" fill="url(#paint19_linear)"/>
<path d="M137.753 96.9614L151.246 87.7329V96.8711L137.753 96.9614Z" fill="url(#paint20_linear)"/>
<path d="M137.753 87.5478L151.246 78.3193V87.4532L137.753 87.5478Z" fill="url(#paint21_linear)"/>
<path d="M137.753 78.1347L151.246 68.9062V78.0402L137.753 78.1347Z" fill="url(#paint22_linear)"/>
<path d="M40.2613 97.2363H30.0357V106.344H40.2613V97.2363Z" fill="#798FFE"/>
<path d="M40.2613 97.2363H30.0357V106.344H40.2613V97.2363Z" fill="url(#paint23_linear)"/>
<path d="M39.1553 94.1631L46.4242 106.22L55.5395 101.174L39.1553 94.1631Z" fill="#798FFE"/>
<path d="M39.1553 94.1631L46.4242 106.22L55.5395 101.174L39.1553 94.1631Z" fill="url(#paint24_linear)"/>
<path d="M138.946 58.5605C137.181 56.6219 135.33 54.6232 132.92 53.6346C131.801 53.2162 130.635 52.9376 129.447 52.805C126.971 52.3991 124.443 52.4369 121.98 52.9168C119.501 53.4096 117.262 54.7261 115.628 56.652C115.456 56.8223 115.325 57.0288 115.244 57.2565C115.163 57.4841 115.134 57.727 115.159 57.9673C115.285 58.327 115.533 58.6312 115.86 58.827C117.141 59.7559 118.61 60.3914 120.164 60.6881C121.201 60.8816 122.273 60.9246 123.259 61.2985C124.244 61.6725 125.152 62.4977 125.225 63.5465C125.255 63.9764 125.152 64.4406 125.367 64.8102C125.604 65.1253 125.949 65.3413 126.336 65.4163C128.952 66.2201 131.866 66.4135 134.366 65.3131C136.867 64.2128 139.225 61.2985 138.95 58.5777L138.946 58.5605Z" fill="url(#paint25_linear)"/>
<path d="M109.129 58.8652L127.988 57.4897L128.608 63.8899L109.525 65.4889L109.129 58.8652Z" fill="#798FFE"/>
<path d="M109.129 58.8652L127.988 57.4897L128.608 63.8899L109.525 65.4889L109.129 58.8652Z" fill="url(#paint26_linear)"/>
<path d="M129.99 91.2573H111.324V96.6216H129.99V91.2573Z" fill="url(#paint27_linear)"/>
</g>
<defs>
<linearGradient id="paint0_linear" x1="35.4627" y1="94.9457" x2="45.6207" y2="101.422" gradientUnits="userSpaceOnUse">
<stop stop-opacity="0"/>
<stop offset="0.95"/>
</linearGradient>
<linearGradient id="paint1_linear" x1="694.867" y1="1344.01" x2="821.063" y2="1437.42" gradientUnits="userSpaceOnUse">
<stop stop-opacity="0"/>
<stop offset="0.95"/>
</linearGradient>
<linearGradient id="paint2_linear" x1="768.799" y1="2622.53" x2="962.158" y2="2705.56" gradientUnits="userSpaceOnUse">
<stop stop-opacity="0"/>
<stop offset="0.95"/>
</linearGradient>
<linearGradient id="paint3_linear" x1="580.805" y1="3664.82" x2="908.619" y2="3857.66" gradientUnits="userSpaceOnUse">
<stop stop-color="#798FFE"/>
<stop offset="0.95"/>
</linearGradient>
<linearGradient id="paint4_linear" x1="1920.01" y1="2615.93" x2="1903.94" y2="3088.91" gradientUnits="userSpaceOnUse">
<stop stop-opacity="0"/>
<stop offset="0.95"/>
</linearGradient>
<linearGradient id="paint5_linear" x1="5314.67" y1="8070.57" x2="3704.83" y2="8040.33" gradientUnits="userSpaceOnUse">
<stop stop-opacity="0"/>
<stop offset="0.95"/>
</linearGradient>
<linearGradient id="paint6_linear" x1="3126.24" y1="1330.83" x2="3103" y2="2203.46" gradientUnits="userSpaceOnUse">
<stop stop-opacity="0"/>
<stop offset="0.95"/>
</linearGradient>
<linearGradient id="paint7_linear" x1="16929.2" y1="3647.96" x2="16973.5" y2="7931.3" gradientUnits="userSpaceOnUse">
<stop stop-opacity="0.2"/>
<stop offset="0.95"/>
</linearGradient>
<linearGradient id="paint8_linear" x1="56.68" y1="100.447" x2="47.4444" y2="104.948" gradientUnits="userSpaceOnUse">
<stop stop-opacity="0"/>
<stop offset="0.63" stop-opacity="0.4"/>
<stop offset="0.95"/>
</linearGradient>
<linearGradient id="paint9_linear" x1="6565.35" y1="5614.48" x2="1886.51" y2="10101.6" gradientUnits="userSpaceOnUse">
<stop stop-opacity="0"/>
<stop offset="0.95"/>
</linearGradient>
<linearGradient id="paint10_linear" x1="102.381" y1="47.092" x2="107.021" y2="47.092" gradientUnits="userSpaceOnUse">
<stop stop-color="#E5C5D5"/>
<stop offset="0.42" stop-color="#EAD4D1"/>
<stop offset="1" stop-color="#F0E9CB"/>
</linearGradient>
<linearGradient id="paint11_linear" x1="2898.52" y1="987.087" x2="2848.65" y2="987.087" gradientUnits="userSpaceOnUse">
<stop stop-color="#E5C5D5"/>
<stop offset="0.42" stop-color="#EAD4D1"/>
<stop offset="1" stop-color="#F0E9CB"/>
</linearGradient>
<linearGradient id="paint12_linear" x1="2806.31" y1="3682.42" x2="2836.03" y2="2634.81" gradientUnits="userSpaceOnUse">
<stop stop-color="#E5C5D5"/>
<stop offset="0.42" stop-color="#EAD4D1"/>
<stop offset="1" stop-color="#F0E9CB"/>
</linearGradient>
<linearGradient id="paint13_linear" x1="2630" y1="1501.82" x2="2673.14" y2="934.417" gradientUnits="userSpaceOnUse">
<stop stop-opacity="0"/>
<stop offset="0.95"/>
</linearGradient>
<linearGradient id="paint14_linear" x1="5407.68" y1="4987.19" x2="7896.88" y2="4987.19" gradientUnits="userSpaceOnUse">
<stop stop-color="#E5C5D5"/>
<stop offset="0.42" stop-color="#EAD4D1"/>
<stop offset="1" stop-color="#F0E9CB"/>
</linearGradient>
<linearGradient id="paint15_linear" x1="5952.49" y1="2256.03" x2="9214.52" y2="2256.03" gradientUnits="userSpaceOnUse">
<stop stop-opacity="0"/>
<stop offset="0.95"/>
</linearGradient>
<linearGradient id="paint16_linear" x1="5395.08" y1="1537.26" x2="5370.33" y2="1825.78" gradientUnits="userSpaceOnUse">
<stop stop-opacity="0.3"/>
<stop offset="0.95"/>
</linearGradient>
<linearGradient id="paint17_linear" x1="5367.08" y1="1035.19" x2="5357.02" y2="1250.28" gradientUnits="userSpaceOnUse">
<stop stop-opacity="0.3"/>
<stop offset="0.95"/>
</linearGradient>
<linearGradient id="paint18_linear" x1="5409.82" y1="988.618" x2="5377.2" y2="1326.08" gradientUnits="userSpaceOnUse">
<stop stop-opacity="0.3"/>
<stop offset="0.95"/>
</linearGradient>
<linearGradient id="paint19_linear" x1="4643.86" y1="2007.9" x2="4654.66" y2="2610.46" gradientUnits="userSpaceOnUse">
<stop stop-opacity="0"/>
<stop offset="0.95"/>
</linearGradient>
<linearGradient id="paint20_linear" x1="4656.95" y1="1923.83" x2="4655.18" y2="2284.49" gradientUnits="userSpaceOnUse">
<stop stop-opacity="0"/>
<stop offset="0.95"/>
</linearGradient>
<linearGradient id="paint21_linear" x1="4649.4" y1="1800.53" x2="4661.16" y2="2092.97" gradientUnits="userSpaceOnUse">
<stop stop-opacity="0"/>
<stop offset="0.95"/>
</linearGradient>
<linearGradient id="paint22_linear" x1="4647.37" y1="1598.8" x2="4663.68" y2="1840.44" gradientUnits="userSpaceOnUse">
<stop stop-opacity="0"/>
<stop offset="0.95"/>
</linearGradient>
<linearGradient id="paint23_linear" x1="868.027" y1="2001.2" x2="840.106" y2="2682.15" gradientUnits="userSpaceOnUse">
<stop stop-opacity="0.2"/>
<stop offset="0.95"/>
</linearGradient>
<linearGradient id="paint24_linear" x1="1847.65" y1="2753.52" x2="1772.54" y2="3252.81" gradientUnits="userSpaceOnUse">
<stop stop-opacity="0.2"/>
<stop offset="0.95"/>
</linearGradient>
<linearGradient id="paint25_linear" x1="6429.82" y1="1923.08" x2="7750.02" y2="1923.08" gradientUnits="userSpaceOnUse">
<stop stop-color="#E5C5D5"/>
<stop offset="0.42" stop-color="#EAD4D1"/>
<stop offset="1" stop-color="#F0E9CB"/>
</linearGradient>
<linearGradient id="paint26_linear" x1="116.717" y1="68.4676" x2="124.094" y2="44.0954" gradientUnits="userSpaceOnUse">
<stop stop-opacity="0"/>
<stop offset="0.81" stop-opacity="0.66"/>
<stop offset="0.95"/>
</linearGradient>
<linearGradient id="paint27_linear" x1="5368.76" y1="1181.39" x2="5358.51" y2="1418.21" gradientUnits="userSpaceOnUse">
<stop stop-opacity="0.3"/>
<stop offset="0.95"/>
</linearGradient>
<clipPath id="clip0">
<rect width="182" height="137" fill="white"/>
</clipPath>
</defs>
</svg>
