<svg width="184" height="139" viewBox="0 0 184 139" fill="none" xmlns="http://www.w3.org/2000/svg">
<g clip-path="url(#clip0)">
<path opacity="0.18" d="M170.443 87.6136C168.786 82.3172 166.253 77.3371 162.951 72.8812C157.626 65.7049 150.483 59.7787 146.635 51.7106C134.086 25.4116 116.995 0.0255993 84.9466 0C55.1793 0 46.0189 22.9114 44.2651 26.2777C40.0084 34.4481 40.4894 44.2313 37.9268 53.0844C34.3554 65.4105 25.195 75.1382 17.6819 85.5102C15.0172 89.1965 12.4759 93.1644 11.7224 97.6528C11.2627 100.401 11.4968 103.199 11.7522 105.99C12.378 112.778 15.5833 116.72 18.4651 122.471C21.2861 128.105 25.8005 132.709 31.3715 135.634C41.3492 140.792 55.7072 138.915 66.4341 137.033C79.4384 134.755 91.7999 129.52 105.226 130.113C113.316 130.484 121.359 131.551 129.268 133.3C134.614 134.486 138.581 137.106 144.23 136.333C155.906 134.733 166.267 125.266 170.256 114.391C173.393 105.836 173.171 96.3729 170.443 87.6136Z" fill="#798FFE"/>
<path d="M40.3149 123.879L40.2468 123.948C36.1092 128.15 46.1679 130.71 48.7602 131.141C55.1708 132.203 63.0287 130.177 69.516 129.763C84.2726 128.833 99.0647 128.531 113.892 128.858C121.078 129.021 128.608 129.259 135.048 126.055C135.9 125.629 136.781 125.057 136.96 124.14C137.296 122.433 135.031 121.08 135.325 119.387C136.793 117.889 139.177 118.03 141.233 117.625C143.289 117.219 145.528 115.227 144.562 113.358C144.204 112.663 143.485 112.24 142.791 111.878C135.108 107.85 127.501 106.442 118.834 105.879C99.462 104.629 80.907 106.852 61.7517 109.249C50.4076 110.67 39.14 108.396 28.1619 111.174C25.3653 111.886 25.2376 115.867 27.9746 116.767C31.3922 117.878 34.9231 118.602 38.5015 118.926C39.05 118.977 39.5727 119.183 40.0091 119.52C40.4456 119.857 40.778 120.311 40.9677 120.829C41.1575 121.347 41.1968 121.909 41.0813 122.449C40.9658 122.989 40.7 123.485 40.3149 123.879Z" fill="url(#paint0_linear)"/>
<g opacity="0.41">
<path opacity="0.41" d="M61.4155 76.9087H45.2654V91.0096H61.4155V76.9087Z" fill="#798FFE"/>
</g>
<path d="M77.4378 65.9395H61.2878V91.0055H77.4378V65.9395Z" fill="#798FFE"/>
<g opacity="0.5">
<path opacity="0.5" d="M93.4601 54.3647H77.3101V91.0102H93.4601V54.3647Z" fill="#798FFE"/>
</g>
<path d="M109.482 43.0923H93.3324V91.0057H109.482V43.0923Z" fill="#798FFE"/>
<path d="M125.505 31.7344H109.355V91.0096H125.505V31.7344Z" fill="#798FFE"/>
<path d="M125.505 31.7344H109.355V91.0096H125.505V31.7344Z" fill="url(#paint1_linear)"/>
<path d="M47.9344 89.6572L132.158 82.6558L135.895 122.292L51.6675 129.293L47.9344 89.6572Z" fill="#798FFE"/>
<path d="M53.3106 94.1969L127.697 88.0146L130.489 117.62L56.103 123.802L53.3106 94.1969Z" fill="url(#paint2_linear)"/>
<path d="M68.0219 127.932L130.494 102.696L122.763 83.4366L124.73 83.2744L117.408 65.2227L106.767 68.1452L101.727 71.8571L56.55 128.543L68.0219 127.932Z" fill="url(#paint3_linear)"/>
<path d="M101.704 106.54C102.115 100.276 97.1893 94.8511 90.7007 94.4225C84.2121 93.994 78.6182 98.7244 78.2064 104.988C77.7946 111.252 82.7209 116.677 89.2094 117.106C95.698 117.534 101.292 112.804 101.704 106.54Z" fill="#798FFE"/>
<path d="M89.5226 114.561L89.4119 112.462C88.2581 112.51 87.1131 112.241 86.1002 111.685L86.5259 110.286C87.4718 110.817 88.5457 111.075 89.629 111.033C91.1529 110.964 92.1235 110.081 92.0639 108.899C92.0043 107.718 91.1359 107.103 89.5098 106.549C87.2878 105.823 85.8959 104.936 85.8022 103.135C85.7086 101.429 86.8962 100.076 88.8458 99.6794L88.7351 97.5845L90.0589 97.5205L90.1611 99.5173C91.132 99.4862 92.0959 99.6912 92.9705 100.115L92.5236 101.523C91.6837 101.088 90.7431 100.886 89.7993 100.938C88.1562 101.011 87.59 101.988 87.6326 102.811C87.6922 103.878 88.5095 104.377 90.3867 105.038C92.6385 105.802 93.7921 106.826 93.8942 108.656C93.9794 110.282 92.8854 111.86 90.7145 112.308L90.8252 114.442L89.5226 114.561Z" fill="url(#paint4_linear)"/>
<path d="M69.7882 108.266C69.8934 106.664 68.6324 105.277 66.9715 105.168C65.3107 105.058 63.879 106.267 63.7737 107.868C63.6684 109.47 64.9295 110.857 66.5903 110.966C68.2512 111.076 69.6829 109.867 69.7882 108.266Z" fill="#798FFE"/>
<path d="M116.91 104.649C117.022 103.045 115.764 101.649 114.099 101.532C112.435 101.415 110.995 102.622 110.883 104.226C110.771 105.831 112.029 107.227 113.693 107.343C115.358 107.46 116.798 106.254 116.91 104.649Z" fill="#798FFE"/>
<path d="M132.631 88.3393C132.804 85.7129 130.738 83.4381 128.017 83.2584C125.296 83.0787 122.95 85.0621 122.777 87.6884C122.604 90.3148 124.67 92.5895 127.391 92.7693C130.113 92.949 132.459 90.9656 132.631 88.3393Z" fill="#798FFE"/>
<path d="M135.424 117.943C135.597 115.316 133.531 113.042 130.81 112.862C128.088 112.682 125.743 114.666 125.57 117.292C125.397 119.918 127.463 122.193 130.184 122.373C132.906 122.553 135.251 120.569 135.424 117.943Z" fill="#798FFE"/>
<path d="M58.2355 94.5233C58.4082 91.897 56.3422 89.6222 53.621 89.4425C50.8999 89.2628 48.554 91.2462 48.3813 93.8725C48.2086 96.4989 50.2746 98.7736 52.9958 98.9533C55.7169 99.1331 58.0629 97.1497 58.2355 94.5233Z" fill="#798FFE"/>
<path d="M61.033 124.123C61.2057 121.497 59.1397 119.222 56.4185 119.042C53.6973 118.862 51.3514 120.846 51.1788 123.472C51.0061 126.098 53.0721 128.373 55.7932 128.553C58.5144 128.733 60.8603 126.749 61.033 124.123Z" fill="#798FFE"/>
<path d="M34.879 93.1772L113.807 64.2158L128.608 101.416L49.6797 130.377L34.879 93.1772Z" fill="#798FFE"/>
<path d="M41.328 96.1341L111.036 70.5562L122.095 98.34L52.3869 123.918L41.328 96.1341Z" fill="url(#paint5_linear)"/>
<path d="M91.5485 98.3876C91.9603 92.1239 87.0341 86.6987 80.5455 86.2702C74.0569 85.8417 68.4631 90.572 68.0513 96.8357C67.6395 103.099 72.5657 108.525 79.0543 108.953C85.5429 109.382 91.1367 104.651 91.5485 98.3876Z" fill="#798FFE"/>
<path d="M81.8733 106.199L81.1752 104.21C80.072 104.559 78.8953 104.602 77.7698 104.334L77.7911 102.866C78.8436 103.13 79.9483 103.098 80.9836 102.773C82.4309 102.303 83.112 101.194 82.7204 100.08C82.3287 98.9668 81.3327 98.5828 79.63 98.4804C77.2888 98.3695 75.701 97.8788 75.1008 96.1807C74.5304 94.5594 75.2881 92.9467 77.0504 92.0464L76.3438 90.0497L77.5995 89.623L78.2636 91.5174C79.1927 91.2315 80.1773 91.1758 81.1326 91.3553L81.0986 92.8272C80.1731 92.6313 79.2122 92.6858 78.3147 92.9851C76.7567 93.4885 76.4885 94.5765 76.7652 95.3573C77.1228 96.3727 78.0422 96.6373 80.0386 96.7781C82.4181 96.9189 83.8186 97.5972 84.4316 99.338C84.9764 100.882 84.372 102.691 82.4096 103.698L83.1248 105.729L81.8733 106.199Z" fill="white"/>
<path d="M61.1955 106.144C61.3008 104.543 60.0397 103.156 58.3789 103.047C56.718 102.937 55.2863 104.146 55.1811 105.747C55.0758 107.348 56.3368 108.735 57.9977 108.845C59.6585 108.955 61.0903 107.746 61.1955 106.144Z" fill="#798FFE"/>
<path d="M105.322 90.389C105.434 88.7843 104.176 87.3888 102.511 87.272C100.847 87.1552 99.4067 88.3614 99.2946 89.9661C99.1826 91.5707 100.441 92.9663 102.105 93.083C103.77 93.1998 105.21 91.9936 105.322 90.389Z" fill="#798FFE"/>
<path d="M115.968 70.8822C116.141 68.2559 114.075 65.9811 111.354 65.8014C108.633 65.6217 106.287 67.605 106.114 70.2314C105.941 72.8577 108.007 75.1325 110.728 75.3122C113.45 75.492 115.796 73.5086 115.968 70.8822Z" fill="#798FFE"/>
<path d="M127.03 98.6567C127.203 96.0303 125.137 93.7555 122.416 93.5758C119.695 93.3961 117.349 95.3795 117.176 98.0058C117.003 100.632 119.069 102.907 121.791 103.087C124.512 103.266 126.858 101.283 127.03 98.6567Z" fill="#798FFE"/>
<path d="M46.2568 96.4638C46.4294 93.8374 44.3635 91.5626 41.6423 91.3829C38.9211 91.2032 36.5752 93.1866 36.4026 95.8129C36.2299 98.4393 38.2959 100.714 41.017 100.894C43.7382 101.073 46.0841 99.0901 46.2568 96.4638Z" fill="#798FFE"/>
<path d="M57.3104 124.238C57.4831 121.611 55.4171 119.337 52.6959 119.157C49.9747 118.977 47.6288 120.961 47.4562 123.587C47.2835 126.213 49.3495 128.488 52.0706 128.668C54.7918 128.847 57.1377 126.864 57.3104 124.238Z" fill="#798FFE"/>
<path d="M59.6446 63.4737C59.62 63.5001 59.5999 63.5303 59.585 63.5633C59.5062 63.9 59.5062 64.2505 59.585 64.5873C59.6898 65.3285 59.868 66.0574 60.1171 66.7632C60.1348 66.83 60.1684 66.8915 60.215 66.9424C60.2698 66.9834 60.3377 67.0031 60.4058 66.9976C60.474 66.9921 60.5378 66.9618 60.5854 66.9125C60.6755 66.8094 60.7372 66.6843 60.7641 66.5499C60.8588 66.1563 60.9299 65.7573 60.977 65.3552C61.0493 64.8432 61.7389 64.5531 62.1348 64.3227C62.1682 64.3069 62.1963 64.2817 62.2157 64.2502C62.2157 64.2075 62.4541 64.7494 62.4413 64.7067C62.3447 64.3961 62.2237 64.0937 62.0795 63.8022C62.0795 63.7766 61.8241 63.158 61.8028 63.1452C61.7815 63.1324 61.7134 63.1452 61.6751 63.1708C61.3452 63.3272 60.9693 63.3561 60.6194 63.2518C60.4514 63.2044 60.2742 63.1999 60.1039 63.2386C59.9337 63.2774 59.7758 63.3582 59.6446 63.4737Z" fill="#FCAB9A"/>
<path d="M60.198 63.1064C59.9041 63.0354 59.5947 63.067 59.3211 63.196C59.2324 63.2327 59.1577 63.297 59.1083 63.3795C59.0757 63.4621 59.064 63.5515 59.0742 63.6398C59.0936 64.784 59.2785 65.9194 59.6234 67.0103C59.6628 67.1518 59.7277 67.2848 59.8149 67.4029C59.859 67.4627 59.918 67.5099 59.9859 67.5399C60.0539 67.5698 60.1285 67.5814 60.2023 67.5735C60.3044 67.5556 60.3991 67.5081 60.4747 67.437C60.6129 67.3159 60.7255 67.1683 60.8059 67.0029C60.8863 66.8375 60.9328 66.6576 60.9427 66.4739C60.9526 66.2902 60.9257 66.1064 60.8636 65.9332C60.8015 65.7601 60.7055 65.6012 60.5811 65.4658C60.482 65.3767 60.3935 65.2765 60.3172 65.1672C60.2561 65.056 60.2157 64.9345 60.198 64.8088C60.1343 64.4895 60.0959 64.1657 60.0831 63.8403C60.1079 63.5937 60.1463 63.3488 60.198 63.1064Z" fill="#473F47"/>
<path d="M69.0775 57.5345C68.85 58.22 68.5652 58.8851 68.2262 59.5227C67.4685 60.8027 66.2809 61.7925 65.0847 62.6927C64.4334 63.1834 63.7779 63.657 63.1053 64.1178C62.7562 64.3087 62.3917 64.47 62.0156 64.5999C61.9798 64.6216 61.9383 64.632 61.8964 64.6298C61.8635 64.6195 61.834 64.6003 61.8113 64.5743C61.292 64.1092 60.9259 63.5077 61.4963 63.0426C62.0736 62.6016 62.6003 62.0979 63.067 61.5408C63.9865 60.3803 64.7697 59.0534 65.9872 58.183C66.1231 58.1173 66.2312 58.0052 66.292 57.8668C66.3529 57.7283 66.3625 57.5727 66.3192 57.4278C66.2 55.7212 66.139 54.0046 66.1361 52.2781C66.1025 51.8071 66.1752 51.3346 66.349 50.8957C66.8726 49.8078 68.7668 49.6712 69.7884 49.7694C70.0283 49.7711 70.2629 49.8406 70.4652 49.9699C71.6358 50.8957 71.1123 52.052 70.6951 53.1783L69.0775 57.5345Z" fill="#473F47"/>
<path d="M74.7134 43.7793C74.9348 43.9756 78.3019 45.0593 78.736 44.9398C79.2511 44.8075 80.592 41.0316 80.9921 39.6536C81.0079 39.6165 81.0161 39.5766 81.0161 39.5362C81.0161 39.4959 81.0079 39.456 80.9921 39.4189C80.9733 39.3873 80.947 39.3609 80.9155 39.3421C80.0897 38.8088 79.5959 40.0631 79.3958 40.6221C79.0784 41.4853 78.6491 42.303 78.1188 43.054C77.2675 43.1223 75.22 42.2988 74.9731 42.2903C74.841 42.2862 74.7103 42.3187 74.5954 42.3842C74.4806 42.4497 74.3859 42.5456 74.3218 42.6615C74.1303 43.0711 74.4155 43.502 74.7134 43.7793Z" fill="#FCAB9A"/>
<path d="M75.0795 41.7055C75.1817 41.7738 75.2839 41.8378 75.3903 41.8975C75.4367 41.9158 75.4747 41.9508 75.4967 41.9956C75.5073 42.0318 75.5073 42.0704 75.4967 42.1066L75.2966 43.0196C75.2353 43.4275 75.0904 43.8183 74.871 44.1673C74.7475 44.3337 73.8451 43.7407 73.7174 43.6425C73.3427 43.3942 73.0155 43.0806 72.7511 42.7167C72.6285 42.5596 72.5348 42.3819 72.4744 42.1919C72.3883 41.7299 72.4587 41.2524 72.6745 40.8351C73.0278 40.1482 73.6152 40.4853 74.0664 40.9077C74.3773 41.2062 74.7166 41.4734 75.0795 41.7055Z" fill="#798FFE"/>
<path d="M69.8778 65.3637C69.8972 65.3895 69.9202 65.4125 69.9459 65.4319C70.2385 65.5707 70.5588 65.6407 70.8824 65.6367C71.5772 65.6802 72.2746 65.653 72.9639 65.5557C73.0298 65.552 73.0939 65.533 73.1512 65.5002C73.1979 65.4577 73.2275 65.3996 73.2346 65.3368C73.2416 65.274 73.2256 65.2107 73.1896 65.1589C73.1134 65.0549 73.0104 64.9738 72.8916 64.9242C72.5501 64.7607 72.199 64.6182 71.8402 64.4976C71.6827 64.4378 71.5465 64.4122 71.5465 64.2117C71.549 64.1177 71.5692 64.0251 71.6061 63.9387L71.7167 63.6144C71.755 63.4992 71.7934 63.3584 71.7167 63.2688C71.6645 63.2225 71.5989 63.1941 71.5294 63.1877C71.2143 63.1237 70.8932 63.0937 70.5717 63.0981C70.5403 63.0943 70.5086 63.1019 70.4823 63.1195C70.4643 63.1355 70.4511 63.1562 70.444 63.1792C70.2184 63.704 69.4564 64.8218 69.8778 65.3637Z" fill="#FCAB9A"/>
<path d="M67.128 48.5576C67.128 48.5576 65.4253 50.9469 67.1748 53.0716C68.3965 54.5479 70.2226 55.5505 71.904 56.3953C72.1977 56.5446 72.5468 56.6683 72.832 56.8475C73.3896 57.1931 73.0448 57.4918 72.7511 57.9611C72.0147 59.1557 71.2655 60.3376 70.5121 61.5194C70.0726 62.1114 69.7728 62.7956 69.6352 63.5204L71.5422 64.0964C72.5645 62.3427 73.7306 60.6773 75.0285 59.1173C75.5903 58.4432 76.3055 57.6198 76.2161 56.6811C76.0856 55.8169 75.7053 55.01 75.1221 54.3601L71.5422 50.2045L67.128 48.5576Z" fill="#473F47"/>
<path d="M75.4158 37.1445C75.4754 37.3237 75.6457 37.4602 75.6712 37.6522C75.6967 37.8442 75.5052 38.0788 75.3817 38.2623C75.2115 38.5311 75.1689 38.8681 74.9986 39.1412C74.9684 39.2019 74.921 39.2524 74.8624 39.2863C74.8058 39.3034 74.747 39.3121 74.6879 39.3119C74.461 39.3069 74.236 39.2696 74.0196 39.2009C73.9817 39.1766 73.9366 39.166 73.8919 39.1711C73.854 39.1941 73.8243 39.2284 73.8068 39.2692C73.5535 39.8012 73.4322 40.3867 73.4534 40.9758C73.4534 41.1635 73.4534 41.4025 73.3002 41.5006C73.2425 41.5351 73.1757 41.5514 73.1086 41.5475C72.683 41.5475 72.3297 41.155 72.1168 40.7625C71.9319 40.4108 71.7891 40.0384 71.6912 39.6532C71.6572 39.5413 71.6442 39.4242 71.6529 39.3076C71.6739 39.1702 71.7216 39.0383 71.7933 38.9193C72.0148 38.4843 72.193 38.0284 72.3254 37.5583C72.4412 36.9446 72.6524 36.3529 72.9512 35.8048C73.0621 35.6261 73.2279 35.4884 73.4236 35.4122C73.6461 35.3603 73.8783 35.3692 74.0962 35.4378C74.5477 35.51 74.9544 35.7528 75.2328 36.1162C75.3051 36.2527 75.3434 36.9226 75.4158 37.1445Z" fill="#FCAB9A"/>
<path d="M71.0484 50.516C70.6669 50.5797 70.2762 50.5593 69.9033 50.4563C69.3561 50.3439 68.7954 50.3123 68.239 50.3624C67.9082 50.4407 67.5849 50.5478 67.2727 50.6824C66.6512 50.8659 65.5232 50.7123 65.5359 49.8889C65.5828 47.3289 66.5703 44.8927 67.6643 42.5803C68.1283 41.5861 68.6604 40.5536 69.5883 39.9777C69.9143 39.7705 70.2811 39.6365 70.6637 39.5847C71.0462 39.5329 71.4353 39.5646 71.8044 39.6777C72.1736 39.7908 72.5139 39.9825 72.8022 40.2397C73.0905 40.497 73.3199 40.8136 73.4747 41.168C73.7274 41.7663 73.8715 42.4049 73.9004 43.0538C73.9728 43.8645 73.9855 44.7605 73.5343 45.4218C73.3209 45.7027 73.0861 45.9666 72.832 46.2111C72.2234 46.8722 71.8158 47.6937 71.6571 48.579C71.5166 49.2617 72.0955 50.3027 71.0484 50.516Z" fill="#798FFE"/>
<path d="M75.2072 35.8306C74.9007 36.3212 74.3857 36.1207 73.9643 36.3212C73.5428 36.5218 73.5386 37.1362 73.1129 37.4178C72.9341 37.55 72.7128 37.6439 72.6064 37.8444C72.5349 38.017 72.51 38.2053 72.534 38.3905C72.5489 38.6648 72.5489 38.9397 72.534 39.214C72.5346 39.4593 72.4603 39.699 72.3212 39.9009C72.0104 40.2635 71.44 40.1654 70.9633 40.2123C70.031 40.3062 69.716 41.1894 69.0988 41.7867C68.7966 42.0811 68.4603 42.3371 68.1836 42.64C67.7659 43.1518 67.4339 43.7282 67.2003 44.3466C67.0159 44.8333 66.7714 45.2948 66.4724 45.7205C66.3236 45.9335 66.1341 46.1148 65.9149 46.254C65.6957 46.3931 65.4512 46.4873 65.1954 46.5311C64.9526 46.5504 64.7085 46.519 64.4785 46.4389C64.2484 46.3589 64.0374 46.2319 63.8588 46.0661C63.5473 45.7794 63.3249 45.4087 63.2185 44.9985C63.112 44.5883 63.1259 44.156 63.2586 43.7536C63.3297 43.6233 63.3494 43.4711 63.3139 43.3269C63.2732 43.2492 63.2167 43.1809 63.1479 43.1264C62.8398 42.808 62.6674 42.3818 62.6674 41.9382C62.6674 41.4945 62.8398 41.0684 63.1479 40.7499C63.4842 40.4299 64.2887 40.127 64.3313 39.6022C64.3739 39.0774 63.9056 38.5655 64.1057 37.9639C64.1732 37.78 64.2726 37.6095 64.3994 37.4604C64.6391 37.0988 64.9674 36.805 65.3529 36.6071C65.7387 36.4726 66.1449 36.4062 66.5533 36.4108C67.8644 36.317 69.235 35.9159 70.0991 34.9176C70.2951 34.6587 70.5099 34.4149 70.7419 34.188C71.0136 33.9778 71.3228 33.8214 71.6528 33.7272C72.4474 33.425 73.3225 33.4114 74.126 33.6888C74.4044 33.807 74.6526 33.9865 74.8523 34.214C75.052 34.4414 75.1981 34.7111 75.2796 35.0029C75.3289 35.1377 75.3481 35.2818 75.3356 35.4248C75.323 35.5679 75.2792 35.7064 75.2072 35.8306Z" fill="#FC682D"/>
<path d="M75.0582 38.0235C74.8922 38.0235 74.6326 38.0235 74.4836 37.9766C74.4325 38.079 74.6794 38.4587 74.7347 38.5056C74.7605 38.5287 74.7938 38.5415 74.8284 38.5415C74.8629 38.5415 74.8963 38.5287 74.922 38.5056C74.9485 38.4759 74.9649 38.4386 74.9688 38.399L75.0582 38.0192" fill="white"/>
<path d="M74.607 37.1788C74.6917 37.1788 74.7603 37.11 74.7603 37.0252C74.7603 36.9403 74.6917 36.8716 74.607 36.8716C74.5224 36.8716 74.4538 36.9403 74.4538 37.0252C74.4538 37.11 74.5224 37.1788 74.607 37.1788Z" fill="#231F20"/>
<path d="M79.9449 38.4246C79.8182 38.4357 79.6968 38.4813 79.5941 38.5565C79.4913 38.6317 79.411 38.7336 79.3618 38.8512C79.3219 39.0087 79.3306 39.1746 79.3869 39.327C79.4431 39.4794 79.5442 39.611 79.6768 39.7045C79.9454 39.8849 80.2535 39.9976 80.5749 40.0331C80.621 40.0475 80.6697 40.0515 80.7176 40.0449C80.7654 40.0382 80.8112 40.0211 80.8516 39.9947C80.8935 39.9479 80.9216 39.8902 80.9325 39.8283C81.0097 39.6095 81.0416 39.3772 81.0262 39.1456C80.9559 38.9193 80.8101 38.7241 80.6132 38.5928C80.4163 38.4615 80.1804 38.4021 79.9449 38.4246Z" fill="#FCAB9A"/>
<path d="M69.6437 64.7831C69.5239 65.0389 69.4953 65.328 69.5628 65.6023C69.58 65.6907 69.6247 65.7714 69.6905 65.8327C69.7595 65.8786 69.8382 65.9078 69.9204 65.918C70.9743 66.114 72.0509 66.1571 73.1172 66.046C73.2542 66.0363 73.3884 66.0016 73.513 65.9436C73.5747 65.9124 73.6279 65.8665 73.668 65.81C73.708 65.7535 73.7337 65.6881 73.7429 65.6194C73.7431 65.5257 73.7165 65.4339 73.6663 65.3549C73.5833 65.2032 73.4705 65.07 73.3348 64.9633C73.199 64.8566 73.0431 64.7785 72.8764 64.7338C72.7097 64.6892 72.5357 64.6788 72.3649 64.7035C72.1941 64.7281 72.0301 64.7871 71.8827 64.877C71.7823 64.9493 71.6754 65.0121 71.5635 65.0647C71.45 65.0967 71.3321 65.1096 71.2144 65.1031C70.9091 65.1053 70.6042 65.0796 70.3035 65.0263C70.0789 64.9586 69.8585 64.8774 69.6437 64.7831Z" fill="#473F47"/>
<path d="M67.7111 41.5178C67.3451 41.5178 67.2855 40.929 66.9918 41.1594C66.1374 41.824 65.344 42.5636 64.6208 43.3695C64.1185 43.9497 62.4541 46.8425 62.1135 47.3075C61.5809 47.9309 61.1811 48.6569 60.9387 49.4408C60.8658 49.6656 60.8749 49.909 60.9642 50.1277C61.3899 50.981 62.7648 49.3469 63.0117 48.9459C63.199 49.0824 63.48 49.2019 63.6332 49.0269C63.846 48.788 63.5225 48.4296 63.4204 48.2078C63.2992 47.9127 63.2902 47.5833 63.3948 47.2819C63.5317 46.9235 63.7338 46.5937 63.9908 46.3092C65.1254 44.9316 66.5347 43.8068 68.1283 43.0068C68.3582 42.8916 68.6178 42.7551 68.6859 42.5077C68.7145 42.3852 68.7041 42.2569 68.6561 42.1407C68.5828 41.9513 68.4524 41.7895 68.283 41.6779C68.1136 41.5662 67.9137 41.5103 67.7111 41.5178Z" fill="#FCAB9A"/>
<path d="M71.5422 41.8593C71.5422 41.8593 67.2855 43.8859 67.0386 44.1035C66.7917 44.3211 65.5232 41.7441 65.5232 41.7441C65.5232 41.7441 69.7203 39.261 71.0569 39.4146C72.3935 39.5682 72.8703 41.0145 71.5422 41.8593Z" fill="#798FFE"/>
<path d="M117.43 31.7304C121.367 31.7304 124.56 28.5309 124.56 24.584C124.56 20.6371 121.367 17.4375 117.43 17.4375C113.492 17.4375 110.3 20.6371 110.3 24.584C110.3 28.5309 113.492 31.7304 117.43 31.7304Z" fill="#F8C244"/>
<path d="M117.43 30.6765C120.787 30.6765 123.508 27.9487 123.508 24.5838C123.508 21.219 120.787 18.4912 117.43 18.4912C114.073 18.4912 111.351 21.219 111.351 24.5838C111.351 27.9487 114.073 30.6765 117.43 30.6765Z" fill="#E8A825"/>
<path d="M117.877 28.4366L117.625 27.4895C117.122 27.6248 116.591 27.6144 116.093 27.4596L116.148 26.7769C116.614 26.9291 117.113 26.9439 117.587 26.8196C118.255 26.6447 118.6 26.1412 118.46 25.6122C118.319 25.0831 117.877 24.8741 117.11 24.7589C116.059 24.6394 115.357 24.3663 115.144 23.5557C115.048 23.1725 115.099 22.7673 115.285 22.4194C115.472 22.0714 115.781 21.8057 116.153 21.6741L115.901 20.7312L116.48 20.5776L116.719 21.4821C117.145 21.3734 117.591 21.3734 118.017 21.4821L117.94 22.2117C117.53 22.0945 117.095 22.0945 116.685 22.2117C115.965 22.4037 115.812 22.9029 115.91 23.2784C116.038 23.7648 116.446 23.9141 117.345 24.0335C118.413 24.1701 119.026 24.5285 119.247 25.3562C119.34 25.7556 119.286 26.175 119.095 26.5378C118.904 26.9005 118.59 27.1823 118.209 27.3316L118.468 28.3044L117.877 28.4366Z" fill="#F8C244"/>
</g>
<defs>
<linearGradient id="paint0_linear" x1="85.2701" y1="62.3556" x2="85.6122" y2="198.16" gradientUnits="userSpaceOnUse">
<stop offset="0.01"/>
<stop offset="0.08" stop-opacity="0.69"/>
<stop offset="0.21" stop-opacity="0.32"/>
<stop offset="1" stop-opacity="0"/>
</linearGradient>
<linearGradient id="paint1_linear" x1="111.5" y1="33" x2="125" y2="87.5" gradientUnits="userSpaceOnUse">
<stop stop-color="#798FFE"/>
<stop offset="1" stop-opacity="0.69"/>
</linearGradient>
<linearGradient id="paint2_linear" x1="82.3083" y1="24.7624" x2="101.244" y2="263.449" gradientUnits="userSpaceOnUse">
<stop offset="0.01"/>
<stop offset="0.13" stop-opacity="0.69"/>
<stop offset="0.25" stop-opacity="0.32"/>
<stop offset="1" stop-opacity="0"/>
</linearGradient>
<linearGradient id="paint3_linear" x1="93.5218" y1="65.2227" x2="93.5218" y2="128.543" gradientUnits="userSpaceOnUse">
<stop stop-color="#798FFE"/>
<stop offset="1" stop-opacity="0.69"/>
</linearGradient>
<linearGradient id="paint4_linear" x1="-10710.5" y1="-49247" x2="-5429.11" y2="-44306.7" gradientUnits="userSpaceOnUse">
<stop offset="0.01"/>
<stop offset="0.13" stop-opacity="0.69"/>
<stop offset="0.25" stop-opacity="0.32"/>
<stop offset="1" stop-opacity="0"/>
</linearGradient>
<linearGradient id="paint5_linear" x1="99" y1="113" x2="47" y2="87.5" gradientUnits="userSpaceOnUse">
<stop stop-color="#5A6ABC"/>
<stop offset="1" stop-color="#5565B2"/>
</linearGradient>
<clipPath id="clip0">
<rect width="184" height="139" fill="white"/>
</clipPath>
</defs>
</svg>
