<svg width="483" height="413" viewBox="0 0 483 413" fill="none" xmlns="http://www.w3.org/2000/svg">
<ellipse cx="236.5" cy="216" rx="218.5" ry="174" fill="url(#paint0_radial)"/>
<path d="M58 102C58 96.4772 62.4772 92 68 92H404.349C409.872 92 414.349 96.4772 414.349 102V329C414.349 334.523 409.872 339 404.349 339H68C62.4772 339 58 334.523 58 329V102Z" fill="#4E4C6A" fill-opacity="0.85"/>
<circle cx="74.0807" cy="108.724" r="3.85938" fill="#6FD1C5"/>
<circle cx="86.3021" cy="108.724" r="3.85938" fill="#6FD1C5"/>
<circle cx="98.5234" cy="108.724" r="3.85938" fill="#6FD1C5"/>
<rect x="77.9401" y="143.458" width="201.974" height="8.36198" rx="4" fill="#6FD1C5"/>
<rect x="77.9401" y="172.404" width="237.352" height="8.36198" rx="4" fill="#6FD1C5"/>
<path d="M77.9401 205.349C77.9401 203.14 79.7309 201.349 81.9401 201.349H355.674C357.884 201.349 359.674 203.14 359.674 205.349V205.711C359.674 207.92 357.884 209.711 355.674 209.711H81.9401C79.7309 209.711 77.9401 207.92 77.9401 205.711V205.349Z" fill="#6FD1C5"/>
<path d="M77.9401 234.294C77.9401 232.085 79.7309 230.294 81.9401 230.294H244.396C246.605 230.294 248.396 232.085 248.396 234.294V234.656C248.396 236.865 246.605 238.656 244.396 238.656H81.9401C79.7309 238.656 77.9401 236.865 77.9401 234.656V234.294Z" fill="#6FD1C5"/>
<rect x="77.9401" y="259.24" width="133.792" height="8.36198" rx="4" fill="#6FD1C5"/>
<circle cx="387" cy="360" r="4" fill="#6FD1C5"/>
<circle cx="95" cy="409" r="4" fill="#6FD1C5"/>
<circle cx="276" cy="4" r="4" fill="#6FD1C5"/>
<g filter="url(#filter0_d)">
<circle cx="36.5" cy="160.5" r="32.5" fill="url(#paint1_radial)"/>
</g>
<g filter="url(#filter1_d)">
<path fill-rule="evenodd" clip-rule="evenodd" d="M44.2052 171.794V174.099C44.2052 175.372 43.1759 176.398 41.9061 176.398H24.6345C23.3609 176.398 22.3354 175.363 22.3354 174.087V147.63C22.3354 146.354 23.3705 145.32 24.6473 145.32H36.1479V152.228C36.1479 153.508 37.1816 154.528 38.4568 154.528H44.2052V156.83H32.7027C30.7912 156.83 29.2417 158.375 29.2417 160.282V168.342C29.2417 170.248 30.7795 171.794 32.7027 171.794H44.2052ZM37.299 145.32V152.223C37.299 152.86 37.8181 153.377 38.4394 153.377H44.2052L37.299 145.32ZM32.6885 157.981C31.4206 157.981 30.3927 159.017 30.3927 160.274V168.35C30.3927 169.616 31.4313 170.643 32.6885 170.643H52.2688C53.5367 170.643 54.5646 169.607 54.5646 168.35V160.274C54.5646 159.008 53.526 157.981 52.2688 157.981H32.6885ZM43.8319 168.206C43.5873 168.293 43.3235 168.341 43.0486 168.341H41.9087C40.63 168.341 39.601 167.307 39.601 166.032V162.592C39.601 161.304 40.6342 160.283 41.9087 160.283H43.0486C44.3273 160.283 45.3563 161.317 45.3563 162.592V166.032C45.3563 166.613 45.1457 167.14 44.7975 167.544L45.6645 168.41L44.8506 169.224L43.8319 168.206ZM42.8158 167.19H41.9019C41.2616 167.19 40.7521 166.674 40.7521 166.039V162.585C40.7521 161.945 41.2669 161.434 41.9019 161.434H43.0554C43.6957 161.434 44.2052 161.95 44.2052 162.585V166.039C44.2052 166.297 44.1213 166.534 43.9795 166.726L42.4088 165.155L41.5949 165.969L42.8158 167.19ZM35.0025 160.283C33.728 160.283 32.6948 161.305 32.6948 162.585C32.6948 163.857 33.7166 164.888 34.9969 164.888H36.1371C36.7788 164.888 37.299 165.398 37.299 166.039C37.299 166.674 36.7894 167.19 36.1491 167.19H34.9957C34.3606 167.19 33.8458 166.664 33.8458 166.044V166.031H32.6948V166.037C32.6948 167.309 33.7237 168.341 35.0025 168.341H36.1423C37.4168 168.341 38.45 167.319 38.45 166.039C38.45 164.767 37.4282 163.736 36.1479 163.736H35.0077C34.366 163.736 33.8458 163.226 33.8458 162.585C33.8458 161.95 34.3554 161.434 34.9957 161.434H36.1491C36.7842 161.434 37.299 161.956 37.299 162.585H38.45C38.45 161.314 37.4211 160.283 36.1423 160.283H35.0025ZM52.2625 167.19V168.341H46.5073V160.283H47.6583V167.19H52.2625Z" fill="#157EFB"/>
</g>
<g filter="url(#filter2_d)">
<circle cx="422" cy="275" r="45" fill="url(#paint2_radial)"/>
</g>
<g filter="url(#filter3_d)">
<path d="M436.32 283.509L436.32 289.378C436.314 290.856 434.928 292.331 432.158 293.458C426.585 295.727 417.518 295.727 411.908 293.458C409.084 292.316 407.674 290.817 407.68 289.321L407.68 283.452C407.674 284.948 409.084 286.447 411.908 287.589C417.517 289.858 426.585 289.858 432.158 287.589C434.928 286.462 436.314 284.987 436.32 283.509Z" fill="#798FFE"/>
<path d="M436.32 283.503C436.325 280.294 429.918 277.682 422.009 277.67C414.101 277.657 407.685 280.249 407.68 283.458C407.675 286.667 414.082 289.278 421.991 289.291C429.899 289.303 436.315 286.712 436.32 283.503Z" fill="#8CA1FD"/>
<path d="M435.963 282.231C436.308 283.842 434.975 285.498 431.948 286.731C426.49 288.953 417.61 288.953 412.116 286.731C409.053 285.492 407.694 283.824 408.032 282.206C407.01 284.083 408.295 286.128 411.908 287.589C417.517 289.858 426.585 289.858 432.158 287.589C435.732 286.135 436.989 284.102 435.963 282.231Z" fill="#B7C5FD"/>
<path d="M435.199 275.7L435.199 281.11C435.193 282.472 433.916 283.832 431.363 284.871C426.226 286.962 417.868 286.962 412.698 284.871C410.095 283.818 408.796 282.437 408.801 281.057L408.801 275.648C408.796 277.027 410.095 278.409 412.698 279.461C417.868 281.553 426.226 281.553 431.363 279.461C433.916 278.422 435.193 277.062 435.199 275.7Z" fill="#3955D1"/>
<path d="M436.32 272.094L436.32 277.963C436.314 279.441 434.928 280.916 432.158 282.043C426.585 284.312 417.518 284.312 411.908 282.043C409.084 280.901 407.674 279.403 407.68 277.906L407.68 272.037C407.674 273.534 409.084 275.032 411.908 276.174C417.517 278.443 426.585 278.443 432.158 276.174C434.928 275.047 436.314 273.572 436.32 272.094Z" fill="#798FFE"/>
<path d="M436.32 272.088C436.325 268.879 429.918 266.267 422.009 266.255C414.101 266.242 407.685 268.834 407.68 272.043C407.675 275.252 414.082 277.864 421.991 277.876C429.899 277.889 436.315 275.297 436.32 272.088Z" fill="#8CA1FD"/>
<path d="M435.963 270.816C436.308 272.427 434.975 274.083 431.948 275.316C426.49 277.538 417.61 277.538 412.116 275.316C409.053 274.077 407.694 272.409 408.032 270.791C407.01 272.668 408.295 274.713 411.908 276.174C417.517 278.444 426.585 278.443 432.158 276.174C435.732 274.72 436.989 272.687 435.963 270.816Z" fill="#B7C5FD"/>
<path d="M435.199 264.285L435.199 269.695C435.193 271.057 433.916 272.417 431.363 273.456C426.226 275.547 417.868 275.547 412.698 273.456C410.095 272.403 408.796 271.022 408.801 269.642L408.801 264.233C408.796 265.612 410.095 266.994 412.698 268.046C417.868 270.138 426.226 270.138 431.363 268.046C433.916 267.007 435.193 265.647 435.199 264.285Z" fill="#3955D1"/>
<path d="M436.32 260.68L436.32 266.549C436.314 268.026 434.928 269.501 432.158 270.629C426.585 272.898 417.518 272.898 411.908 270.629C409.084 269.487 407.674 267.988 407.68 266.491L407.68 260.622C407.674 262.119 409.084 263.618 411.908 264.76C417.517 267.029 426.585 267.029 432.158 264.76C434.928 263.632 436.314 262.157 436.32 260.68Z" fill="#798FFE"/>
<path d="M436.32 260.673C436.325 257.464 429.918 254.853 422.009 254.84C414.101 254.828 407.685 257.419 407.68 260.628C407.675 263.837 414.082 266.449 421.991 266.461C429.899 266.474 436.315 263.882 436.32 260.673Z" fill="#8CA1FD"/>
<path d="M435.963 259.401C436.308 261.012 434.975 262.669 431.948 263.901C426.49 266.123 417.61 266.124 412.116 263.901C409.053 262.662 407.694 260.995 408.032 259.376C407.01 261.253 408.295 263.299 411.908 264.76C417.517 267.029 426.585 267.028 432.158 264.76C435.732 263.305 436.989 261.272 435.963 259.401Z" fill="#B7C5FD"/>
</g>
<defs>
<filter id="filter0_d" x="0" y="124" width="85" height="85" filterUnits="userSpaceOnUse" color-interpolation-filters="sRGB">
<feFlood flood-opacity="0" result="BackgroundImageFix"/>
<feColorMatrix in="SourceAlpha" type="matrix" values="0 0 0 0 0 0 0 0 0 0 0 0 0 0 0 0 0 0 127 0"/>
<feOffset dx="6" dy="6"/>
<feGaussianBlur stdDeviation="5"/>
<feColorMatrix type="matrix" values="0 0 0 0 0.168627 0 0 0 0 0.160784 0 0 0 0 0.247059 0 0 0 1 0"/>
<feBlend mode="normal" in2="BackgroundImageFix" result="effect1_dropShadow"/>
<feBlend mode="normal" in="SourceGraphic" in2="effect1_dropShadow" result="shape"/>
</filter>
<filter id="filter1_d" x="6.03333" y="139.867" width="52.8333" height="52.8333" filterUnits="userSpaceOnUse" color-interpolation-filters="sRGB">
<feFlood flood-opacity="0" result="BackgroundImageFix"/>
<feColorMatrix in="SourceAlpha" type="matrix" values="0 0 0 0 0 0 0 0 0 0 0 0 0 0 0 0 0 0 127 0"/>
<feOffset dx="-6" dy="6"/>
<feGaussianBlur stdDeviation="4"/>
<feColorMatrix type="matrix" values="0 0 0 0 0.124242 0 0 0 0 0.116667 0 0 0 0 0.2 0 0 0 0.5 0"/>
<feBlend mode="normal" in2="BackgroundImageFix" result="effect1_dropShadow"/>
<feBlend mode="normal" in="SourceGraphic" in2="effect1_dropShadow" result="shape"/>
</filter>
<filter id="filter2_d" x="373" y="226" width="110" height="110" filterUnits="userSpaceOnUse" color-interpolation-filters="sRGB">
<feFlood flood-opacity="0" result="BackgroundImageFix"/>
<feColorMatrix in="SourceAlpha" type="matrix" values="0 0 0 0 0 0 0 0 0 0 0 0 0 0 0 0 0 0 127 0"/>
<feOffset dx="6" dy="6"/>
<feGaussianBlur stdDeviation="5"/>
<feColorMatrix type="matrix" values="0 0 0 0 0.168627 0 0 0 0 0.160784 0 0 0 0 0.247059 0 0 0 1 0"/>
<feBlend mode="normal" in2="BackgroundImageFix" result="effect1_dropShadow"/>
<feBlend mode="normal" in="SourceGraphic" in2="effect1_dropShadow" result="shape"/>
</filter>
<filter id="filter3_d" x="383" y="250" width="62" height="62" filterUnits="userSpaceOnUse" color-interpolation-filters="sRGB">
<feFlood flood-opacity="0" result="BackgroundImageFix"/>
<feColorMatrix in="SourceAlpha" type="matrix" values="0 0 0 0 0 0 0 0 0 0 0 0 0 0 0 0 0 0 127 0"/>
<feOffset dx="-8" dy="6"/>
<feGaussianBlur stdDeviation="5"/>
<feColorMatrix type="matrix" values="0 0 0 0 0.124242 0 0 0 0 0.116667 0 0 0 0 0.2 0 0 0 0.5 0"/>
<feBlend mode="normal" in2="BackgroundImageFix" result="effect1_dropShadow"/>
<feBlend mode="normal" in="SourceGraphic" in2="effect1_dropShadow" result="shape"/>
</filter>
<radialGradient id="paint0_radial" cx="0" cy="0" r="1" gradientUnits="userSpaceOnUse" gradientTransform="translate(236.5 216) rotate(90) scale(174 218.5)">
<stop stop-color="#6FD1C5" stop-opacity="0.5"/>
<stop offset="0.39485" stop-color="#6FD1C5" stop-opacity="0.15"/>
<stop offset="0.686437" stop-color="#6FD1C5" stop-opacity="0.1"/>
<stop offset="1" stop-color="#6FD1C5" stop-opacity="0"/>
</radialGradient>
<radialGradient id="paint1_radial" cx="0" cy="0" r="1" gradientUnits="userSpaceOnUse" gradientTransform="translate(36.5 160.5) rotate(90) scale(32.5)">
<stop stop-color="#35353D" stop-opacity="0.75"/>
<stop offset="1" stop-color="#23222E"/>
</radialGradient>
<radialGradient id="paint2_radial" cx="0" cy="0" r="1" gradientUnits="userSpaceOnUse" gradientTransform="translate(422 275) rotate(90) scale(45)">
<stop stop-color="#35353D" stop-opacity="0.75"/>
<stop offset="1" stop-color="#23222E"/>
</radialGradient>
</defs>
</svg>
