<svg width="1440" height="480" viewBox="0 0 1440 480" fill="none" xmlns="http://www.w3.org/2000/svg">
<path fill-rule="evenodd" clip-rule="evenodd" d="M-1 1L59 30C119 59 239 117 359 145C479 174 599 174 719 145C839 117 959 59 1079 45C1199 30 1319 59 1379 73L1439 88V347H1379C1319 347 1199 347 1079 347C959 347 839 347 719 347C599 347 479 347 359 347C239 347 119 347 59 347H-1V1Z" fill="url(#paint0_linear)" stroke="url(#paint1_linear)"/>
<path fill-rule="evenodd" clip-rule="evenodd" d="M-1 160L59 189C119 218 239 276 359 304C479 333 599 333 719 304C839 276 959 218 1079 204C1199 189 1319 218 1379 232L1439 247V506H1379C1319 506 1199 506 1079 506C959 506 839 506 719 506C599 506 479 506 359 506C239 506 119 506 59 506H-1V160Z" fill="url(#paint2_linear)" stroke="url(#paint3_linear)"/>
<defs>
<linearGradient id="paint0_linear" x1="709" y1="75" x2="710" y2="263.5" gradientUnits="userSpaceOnUse">
<stop stop-color="white" stop-opacity="0.2"/>
<stop offset="0.550771" stop-color="white" stop-opacity="0.1"/>
<stop offset="1" stop-color="white" stop-opacity="0"/>
</linearGradient>
<linearGradient id="paint1_linear" x1="626" y1="130.5" x2="631" y2="354" gradientUnits="userSpaceOnUse">
<stop stop-color="white" stop-opacity="0.3"/>
<stop offset="0.24479" stop-color="white" stop-opacity="0.19129"/>
<stop offset="0.408285" stop-color="white" stop-opacity="0.0386314"/>
<stop offset="1" stop-color="white" stop-opacity="0"/>
</linearGradient>
<linearGradient id="paint2_linear" x1="709" y1="234" x2="709.5" y2="506" gradientUnits="userSpaceOnUse">
<stop stop-color="#2B293F" stop-opacity="0.2"/>
<stop offset="1" stop-color="#2B293F" stop-opacity="0.5"/>
<stop offset="1" stop-color="#2B293F"/>
</linearGradient>
<linearGradient id="paint3_linear" x1="719" y1="160" x2="719" y2="506" gradientUnits="userSpaceOnUse">
<stop stop-color="white" stop-opacity="0.4"/>
<stop offset="1" stop-opacity="0"/>
</linearGradient>
</defs>
</svg>
