<svg width="524" height="442" viewBox="0 0 524 442" fill="none" xmlns="http://www.w3.org/2000/svg">
<ellipse cx="277.5" cy="242" rx="218.5" ry="174" fill="url(#paint0_radial)"/>
<path d="M100 128C100 122.477 104.477 118 110 118H446.349C451.872 118 456.349 122.477 456.349 128V355C456.349 360.523 451.872 365 446.349 365H110C104.477 365 100 360.523 100 355V128Z" fill="#4E4C6A" fill-opacity="0.85"/>
<circle cx="116.081" cy="134.724" r="3.85938" fill="#6FD1C5"/>
<circle cx="128.302" cy="134.724" r="3.85938" fill="#6FD1C5"/>
<circle cx="140.523" cy="134.724" r="3.85938" fill="#6FD1C5"/>
<rect x="119.94" y="169.458" width="201.974" height="8.36198" rx="4" fill="#6FD1C5"/>
<rect x="119.94" y="198.404" width="237.352" height="8.36198" rx="4" fill="#6FD1C5"/>
<path d="M119.94 231.349C119.94 229.14 121.731 227.349 123.94 227.349H397.674C399.884 227.349 401.674 229.14 401.674 231.349V231.711C401.674 233.92 399.884 235.711 397.674 235.711H123.94C121.731 235.711 119.94 233.92 119.94 231.711V231.349Z" fill="#6FD1C5"/>
<path d="M119.94 260.294C119.94 258.085 121.731 256.294 123.94 256.294H286.396C288.605 256.294 290.396 258.085 290.396 260.294V260.656C290.396 262.865 288.605 264.656 286.396 264.656H123.94C121.731 264.656 119.94 262.865 119.94 260.656V260.294Z" fill="#6FD1C5"/>
<rect x="119.94" y="285.24" width="133.792" height="8.36198" rx="4" fill="#6FD1C5"/>
<g filter="url(#filter0_d)">
<circle cx="467.5" cy="199.5" r="42.5" fill="url(#paint1_radial)"/>
</g>
<g filter="url(#filter1_d)">
<path d="M449.916 179.326L453.072 215.073L467.246 219.045L481.414 215.076L484.576 179.326H449.916Z" fill="#2299F8"/>
<path d="M477.827 191.016L477.429 195.507L476.225 208.969L467.246 211.459L467.238 211.461L458.263 208.969L457.637 201.929H462.034L462.361 205.58L467.241 206.901L467.243 206.899L472.13 205.578L472.796 199.493L457.427 199.536L456.991 195.375L473.165 195.184L473.492 190.73L456.558 190.778L456.273 186.635H478.218L477.827 191.016Z" fill="#FCFCFC"/>
</g>
<g filter="url(#filter2_d)">
<circle cx="372.5" cy="21.5" r="17.5" fill="url(#paint2_radial)"/>
</g>
<g filter="url(#filter3_d)">
<path d="M372.5 28.7916C376.527 28.7916 379.792 25.527 379.792 21.4999C379.792 17.4728 376.527 14.2083 372.5 14.2083C368.473 14.2083 365.208 17.4728 365.208 21.4999C365.208 25.527 368.473 28.7916 372.5 28.7916Z" fill="url(#paint3_radial)"/>
<path d="M368.533 19.4438C367.775 20.5375 367.862 21.9667 368.446 23.1334C368.46 23.1625 368.475 23.1917 368.49 23.2209C368.504 23.2354 368.504 23.25 368.519 23.2792C368.519 23.2938 368.533 23.2938 368.533 23.3084C368.548 23.3229 368.548 23.3375 368.562 23.3667C368.577 23.3959 368.606 23.425 368.621 23.4688C368.635 23.4834 368.635 23.4979 368.65 23.5271C368.665 23.5563 368.694 23.6 368.708 23.6292C368.723 23.6438 368.723 23.6584 368.737 23.6729C368.767 23.7167 368.796 23.7604 368.825 23.8042L368.84 23.8188C368.869 23.8625 368.898 23.8917 368.927 23.9354C368.942 23.95 368.942 23.9646 368.956 23.9792C368.985 24.0084 369.015 24.0375 369.029 24.0813C369.044 24.0959 369.044 24.1104 369.058 24.1104C369.087 24.1542 369.131 24.1979 369.175 24.2417C369.219 24.2854 369.248 24.3146 369.292 24.3584C369.306 24.3729 369.321 24.3875 369.321 24.3875C369.35 24.4167 369.379 24.4459 369.408 24.475C369.423 24.4896 369.437 24.5042 369.452 24.5042C369.496 24.5479 369.54 24.5771 369.569 24.6209L369.583 24.6354C369.627 24.6646 369.656 24.6938 369.7 24.7229C369.715 24.7375 369.729 24.7521 369.744 24.7667C369.773 24.7959 369.802 24.8104 369.831 24.8396C369.846 24.8542 369.86 24.8688 369.875 24.8834C369.904 24.9125 369.948 24.9271 369.977 24.9563C369.992 24.9709 370.006 24.9709 370.021 24.9854C370.021 24.9854 370.021 24.9854 370.035 25C370.065 25.0292 370.108 25.0438 370.137 25.0729C370.152 25.0875 370.167 25.0875 370.181 25.1021C370.24 25.1313 370.283 25.1604 370.342 25.2042C370.356 25.2188 370.371 25.2188 370.385 25.2334C370.429 25.2625 370.458 25.2771 370.502 25.3063C370.517 25.3209 370.546 25.3354 370.56 25.3354C370.59 25.35 370.619 25.3646 370.648 25.3792C370.648 25.3792 370.662 25.3792 370.662 25.3938C370.677 25.3938 370.692 25.4084 370.692 25.4084C370.735 25.4229 370.779 25.4521 370.823 25.4667C370.837 25.4667 370.837 25.4813 370.852 25.4813C370.91 25.5104 370.954 25.525 371.012 25.5396C371.027 25.5396 371.042 25.5542 371.056 25.5542C371.1 25.5688 371.158 25.5979 371.202 25.6125H371.217C371.275 25.6271 371.333 25.6563 371.377 25.6709C371.392 25.6709 371.406 25.6854 371.421 25.6854C371.479 25.7 371.537 25.7292 371.596 25.7292C375.285 26.4 376.365 23.5125 376.365 23.5125C375.46 24.6938 373.856 25 372.354 24.65C372.296 24.6354 372.237 24.6209 372.179 24.6063C372.165 24.6063 372.15 24.5917 372.135 24.5917C372.077 24.5771 372.033 24.5625 371.975 24.5334C371.96 24.5334 371.96 24.5334 371.946 24.5188C371.902 24.5042 371.844 24.4896 371.8 24.4604C371.785 24.4604 371.771 24.4459 371.756 24.4459C371.698 24.4313 371.654 24.4021 371.596 24.3875C371.581 24.3875 371.581 24.3729 371.567 24.3729C371.523 24.3584 371.479 24.3292 371.435 24.3146C371.421 24.3146 371.406 24.3 371.392 24.3C371.362 24.2854 371.319 24.2709 371.29 24.2417C371.26 24.2271 371.246 24.2125 371.217 24.2125C371.173 24.1834 371.129 24.1688 371.1 24.1396C371.085 24.125 371.071 24.125 371.056 24.1104C370.998 24.0813 370.954 24.0521 370.896 24.0084C370.881 23.9938 370.867 23.9938 370.852 23.9792C370.808 23.95 370.779 23.9354 370.735 23.9063C370.721 23.8917 370.706 23.8917 370.706 23.8771C370.677 23.8479 370.633 23.8334 370.604 23.8042C370.59 23.7896 370.575 23.775 370.56 23.775C370.531 23.7459 370.502 23.7313 370.458 23.7021C370.444 23.6875 370.429 23.6729 370.415 23.6729C370.371 23.6438 370.342 23.6 370.298 23.5709C370.298 23.5709 370.283 23.5709 370.283 23.5563C370.24 23.5125 370.196 23.4834 370.152 23.4396C370.137 23.425 370.123 23.4104 370.123 23.4104C370.094 23.3813 370.065 23.3521 370.035 23.3229C370.021 23.3084 370.006 23.2938 370.006 23.2938C369.962 23.25 369.933 23.2209 369.89 23.1771C369.846 23.1334 369.817 23.0896 369.773 23.0459C369.758 23.0313 369.758 23.0167 369.744 23.0167C369.715 22.9875 369.685 22.9438 369.656 22.9146C369.642 22.9 369.642 22.8854 369.627 22.8709C369.598 22.8271 369.569 22.7834 369.54 22.7396C368.694 21.5875 368.402 20.0125 369.073 18.7146" fill="#78CFF5"/>
<path d="M370.896 18.5104C370.342 19.3125 370.371 20.3625 370.808 21.2083C370.881 21.3542 370.969 21.4854 371.056 21.6167C371.144 21.7333 371.231 21.8792 371.333 21.9667C371.377 22.0104 371.421 22.0542 371.465 22.0979C371.479 22.1125 371.479 22.1125 371.494 22.1271C371.538 22.1708 371.581 22.2 371.625 22.2438C371.669 22.2875 371.727 22.3313 371.771 22.3604C371.785 22.375 371.8 22.375 371.8 22.3896C371.844 22.4333 371.902 22.4625 371.96 22.5063C371.99 22.5208 372.004 22.5354 372.033 22.55C372.048 22.5646 372.063 22.5646 372.063 22.5792C372.106 22.6083 372.135 22.6229 372.179 22.6521C372.179 22.6521 372.194 22.6521 372.194 22.6667C372.223 22.6813 372.267 22.7104 372.296 22.725C372.31 22.725 372.325 22.7396 372.325 22.7396C372.354 22.7542 372.369 22.7688 372.398 22.7833C372.398 22.7833 372.398 22.7833 372.413 22.7833C372.456 22.8125 372.515 22.8271 372.558 22.8563C372.573 22.8563 372.573 22.8708 372.588 22.8708C372.631 22.8854 372.675 22.9 372.704 22.9146C372.719 22.9146 372.733 22.9292 372.763 22.9292C372.806 22.9438 372.835 22.9583 372.879 22.9729C372.894 22.9729 372.908 22.9875 372.923 22.9875C372.981 23.0021 373.025 23.0313 373.083 23.0313C375.942 23.4979 376.598 21.3104 376.598 21.3104C376 22.1708 374.848 22.5792 373.623 22.2583C373.565 22.2438 373.521 22.2292 373.463 22.2146C373.448 22.2146 373.433 22.2 373.419 22.2C373.375 22.1854 373.346 22.1708 373.302 22.1563C373.288 22.1563 373.273 22.1417 373.258 22.1417C373.215 22.1271 373.171 22.1125 373.142 22.0979C373.127 22.0979 373.113 22.0833 373.113 22.0833C373.069 22.0542 373.01 22.0396 372.967 22.0104C372.938 21.9958 372.923 21.9813 372.894 21.9667C372.879 21.9521 372.865 21.9521 372.85 21.9375C372.821 21.9229 372.792 21.9083 372.763 21.8792C372.748 21.8792 372.748 21.8646 372.733 21.8646C372.69 21.8354 372.66 21.8208 372.617 21.7917C372.602 21.7771 372.588 21.7771 372.588 21.7625C372.558 21.7479 372.544 21.7333 372.515 21.7188C372.456 21.6896 372.413 21.6458 372.354 21.6021C372.34 21.5875 372.325 21.5875 372.325 21.5729C371.785 21.15 371.363 20.5667 371.158 19.9104C370.94 19.225 370.998 18.4667 371.363 17.8396" fill="#78CFF5"/>
<path d="M372.894 17.825C372.573 18.3062 372.529 18.9042 372.762 19.4292C372.996 19.9979 373.492 20.4354 374.06 20.6396C374.09 20.6542 374.104 20.6542 374.133 20.6687C374.148 20.6687 374.148 20.6687 374.162 20.6833C374.192 20.6979 374.235 20.7125 374.265 20.7125C375.84 21.0187 376.262 19.9104 376.379 19.7354C376 20.275 375.373 20.4062 374.6 20.2167C374.542 20.2021 374.469 20.1729 374.41 20.1583C374.337 20.1292 374.265 20.1 374.192 20.0708C374.06 19.9979 373.929 19.925 373.798 19.8375C373.112 19.3125 372.675 18.3208 373.127 17.5042" fill="#78CFF5"/>
</g>
<g filter="url(#filter4_d)">
<circle cx="175" cy="78" r="30" fill="url(#paint4_radial)"/>
</g>
<g clip-path="url(#clip0)" filter="url(#filter5_d)">
<path d="M185.866 89.8835L175.201 92.8L164.536 89.8835L162.075 62.8H188.327L185.866 89.8835Z" fill="#E43862"/>
<path d="M175.2 64.675V90.6907L183.855 88.12L186.157 64.675H175.2Z" fill="#FF3939"/>
<path d="M183.04 68.425H167.332L167.7 72.175L168.28 78.7375H178.484L178.151 82.4725L175.2 83.4157L172.253 82.4725L172.058 80.6125H168.453L168.883 85.2879L175.2 87.1657L181.508 85.2869L182.436 74.9875H171.686L171.452 72.175H182.7L183.04 68.425Z" fill="white"/>
</g>
<g filter="url(#filter6_d)">
<circle cx="64" cy="365" r="60" fill="url(#paint5_radial)"/>
</g>
<path d="M64 399.091C82.8279 399.091 98.0909 383.828 98.0909 365C98.0909 346.172 82.8279 330.909 64 330.909C45.1721 330.909 29.9091 346.172 29.9091 365C29.9091 383.828 45.1721 399.091 64 399.091Z" fill="url(#paint6_radial)"/>
<path d="M53.3636 351.773H59.2954V368.477C59.2954 375.977 55.6818 378.636 49.9545 378.636C48.5227 378.636 46.75 378.432 45.5909 378.023L46.2727 373.182C47.0909 373.455 48.1818 373.659 49.3409 373.659C51.8636 373.659 53.4318 372.5 53.4318 368.477L53.3636 351.773Z" fill="#FFC42C"/>
<path d="M64.5454 372.091C66.1136 372.909 68.6364 373.727 71.1591 373.727C73.8864 373.727 75.3182 372.568 75.3182 370.795C75.3182 369.159 74.0909 368.205 70.8864 367.114C66.5227 365.545 63.5909 363.091 63.5909 359.205C63.5909 354.773 67.4091 351.364 73.6136 351.364C76.6136 351.364 78.7954 351.977 80.3636 352.727L79 357.5C77.9773 357.023 76.0682 356.273 73.5454 356.273C70.9545 356.273 69.7273 357.5 69.7273 358.795C69.7273 360.5 71.1591 361.25 74.6364 362.545C79.2727 364.25 81.4545 366.705 81.4545 370.455C81.4545 374.886 78.1136 378.636 70.8182 378.636C67.8182 378.636 64.8182 377.818 63.3182 377L64.5454 372.091Z" fill="#FFC42C"/>
<circle cx="400" cy="438" r="4" fill="#6FD1C5"/>
<circle cx="30" cy="139" r="4" fill="#6FD1C5"/>
<defs>
<filter id="filter0_d" x="423" y="155" width="101" height="101" filterUnits="userSpaceOnUse" color-interpolation-filters="sRGB">
<feFlood flood-opacity="0" result="BackgroundImageFix"/>
<feColorMatrix in="SourceAlpha" type="matrix" values="0 0 0 0 0 0 0 0 0 0 0 0 0 0 0 0 0 0 127 0"/>
<feOffset dx="6" dy="6"/>
<feGaussianBlur stdDeviation="4"/>
<feColorMatrix type="matrix" values="0 0 0 0 0.168627 0 0 0 0 0.160784 0 0 0 0 0.247059 0 0 0 1 0"/>
<feBlend mode="normal" in2="BackgroundImageFix" result="effect1_dropShadow"/>
<feBlend mode="normal" in="SourceGraphic" in2="effect1_dropShadow" result="shape"/>
</filter>
<filter id="filter1_d" x="443.967" y="175.967" width="58.5" height="58.5" filterUnits="userSpaceOnUse" color-interpolation-filters="sRGB">
<feFlood flood-opacity="0" result="BackgroundImageFix"/>
<feColorMatrix in="SourceAlpha" type="matrix" values="0 0 0 0 0 0 0 0 0 0 0 0 0 0 0 0 0 0 127 0"/>
<feOffset dx="6" dy="6"/>
<feGaussianBlur stdDeviation="4"/>
<feColorMatrix type="matrix" values="0 0 0 0 0.124242 0 0 0 0 0.116667 0 0 0 0 0.2 0 0 0 0.5 0"/>
<feBlend mode="normal" in2="BackgroundImageFix" result="effect1_dropShadow"/>
<feBlend mode="normal" in="SourceGraphic" in2="effect1_dropShadow" result="shape"/>
</filter>
<filter id="filter2_d" x="351" y="0" width="55" height="55" filterUnits="userSpaceOnUse" color-interpolation-filters="sRGB">
<feFlood flood-opacity="0" result="BackgroundImageFix"/>
<feColorMatrix in="SourceAlpha" type="matrix" values="0 0 0 0 0 0 0 0 0 0 0 0 0 0 0 0 0 0 127 0"/>
<feOffset dx="6" dy="6"/>
<feGaussianBlur stdDeviation="5"/>
<feColorMatrix type="matrix" values="0 0 0 0 0.168627 0 0 0 0 0.160784 0 0 0 0 0.247059 0 0 0 1 0"/>
<feBlend mode="normal" in2="BackgroundImageFix" result="effect1_dropShadow"/>
<feBlend mode="normal" in="SourceGraphic" in2="effect1_dropShadow" result="shape"/>
</filter>
<filter id="filter3_d" x="361.167" y="10.1666" width="34.6667" height="34.6667" filterUnits="userSpaceOnUse" color-interpolation-filters="sRGB">
<feFlood flood-opacity="0" result="BackgroundImageFix"/>
<feColorMatrix in="SourceAlpha" type="matrix" values="0 0 0 0 0 0 0 0 0 0 0 0 0 0 0 0 0 0 127 0"/>
<feOffset dx="6" dy="6"/>
<feGaussianBlur stdDeviation="4"/>
<feColorMatrix type="matrix" values="0 0 0 0 0.124242 0 0 0 0 0.116667 0 0 0 0 0.2 0 0 0 0.5 0"/>
<feBlend mode="normal" in2="BackgroundImageFix" result="effect1_dropShadow"/>
<feBlend mode="normal" in="SourceGraphic" in2="effect1_dropShadow" result="shape"/>
</filter>
<filter id="filter4_d" x="141" y="44" width="80" height="80" filterUnits="userSpaceOnUse" color-interpolation-filters="sRGB">
<feFlood flood-opacity="0" result="BackgroundImageFix"/>
<feColorMatrix in="SourceAlpha" type="matrix" values="0 0 0 0 0 0 0 0 0 0 0 0 0 0 0 0 0 0 127 0"/>
<feOffset dx="6" dy="6"/>
<feGaussianBlur stdDeviation="5"/>
<feColorMatrix type="matrix" values="0 0 0 0 0.168627 0 0 0 0 0.160784 0 0 0 0 0.247059 0 0 0 1 0"/>
<feBlend mode="normal" in2="BackgroundImageFix" result="effect1_dropShadow"/>
<feBlend mode="normal" in="SourceGraphic" in2="effect1_dropShadow" result="shape"/>
</filter>
<filter id="filter5_d" x="160.2" y="62.8" width="42" height="42" filterUnits="userSpaceOnUse" color-interpolation-filters="sRGB">
<feFlood flood-opacity="0" result="BackgroundImageFix"/>
<feColorMatrix in="SourceAlpha" type="matrix" values="0 0 0 0 0 0 0 0 0 0 0 0 0 0 0 0 0 0 127 0"/>
<feOffset dx="6" dy="6"/>
<feGaussianBlur stdDeviation="3"/>
<feColorMatrix type="matrix" values="0 0 0 0 0.124242 0 0 0 0 0.116667 0 0 0 0 0.2 0 0 0 0.4 0"/>
<feBlend mode="normal" in2="BackgroundImageFix" result="effect1_dropShadow"/>
<feBlend mode="normal" in="SourceGraphic" in2="effect1_dropShadow" result="shape"/>
</filter>
<filter id="filter6_d" x="0" y="301" width="140" height="140" filterUnits="userSpaceOnUse" color-interpolation-filters="sRGB">
<feFlood flood-opacity="0" result="BackgroundImageFix"/>
<feColorMatrix in="SourceAlpha" type="matrix" values="0 0 0 0 0 0 0 0 0 0 0 0 0 0 0 0 0 0 127 0"/>
<feOffset dx="6" dy="6"/>
<feGaussianBlur stdDeviation="5"/>
<feColorMatrix type="matrix" values="0 0 0 0 0.168627 0 0 0 0 0.160784 0 0 0 0 0.247059 0 0 0 1 0"/>
<feBlend mode="normal" in2="BackgroundImageFix" result="effect1_dropShadow"/>
<feBlend mode="normal" in="SourceGraphic" in2="effect1_dropShadow" result="shape"/>
</filter>
<radialGradient id="paint0_radial" cx="0" cy="0" r="1" gradientUnits="userSpaceOnUse" gradientTransform="translate(277.5 242) rotate(90) scale(174 218.5)">
<stop stop-color="#6FD1C5" stop-opacity="0.5"/>
<stop offset="0.39485" stop-color="#6FD1C5" stop-opacity="0.15"/>
<stop offset="0.686437" stop-color="#6FD1C5" stop-opacity="0.1"/>
<stop offset="1" stop-color="#6FD1C5" stop-opacity="0"/>
</radialGradient>
<radialGradient id="paint1_radial" cx="0" cy="0" r="1" gradientUnits="userSpaceOnUse" gradientTransform="translate(467.5 199.5) rotate(90) scale(42.5)">
<stop stop-color="#35353D" stop-opacity="0.75"/>
<stop offset="1" stop-color="#23222E"/>
</radialGradient>
<radialGradient id="paint2_radial" cx="0" cy="0" r="1" gradientUnits="userSpaceOnUse" gradientTransform="translate(372.5 21.5) rotate(90) scale(17.5)">
<stop stop-color="#35353D" stop-opacity="0.75"/>
<stop offset="1" stop-color="#23222E"/>
</radialGradient>
<radialGradient id="paint3_radial" cx="0" cy="0" r="1" gradientUnits="userSpaceOnUse" gradientTransform="translate(373.682 21.6244) rotate(-132.31) scale(6.5629)">
<stop stop-color="#2D2B37"/>
<stop offset="1" stop-color="#24222F"/>
</radialGradient>
<radialGradient id="paint4_radial" cx="0" cy="0" r="1" gradientUnits="userSpaceOnUse" gradientTransform="translate(175 78) rotate(90) scale(30)">
<stop stop-color="#35353D" stop-opacity="0.75"/>
<stop offset="1" stop-color="#23222E"/>
</radialGradient>
<radialGradient id="paint5_radial" cx="0" cy="0" r="1" gradientUnits="userSpaceOnUse" gradientTransform="translate(64 365) rotate(90) scale(60)">
<stop stop-color="#35353D" stop-opacity="0.75"/>
<stop offset="1" stop-color="#23222E"/>
</radialGradient>
<radialGradient id="paint6_radial" cx="0" cy="0" r="1" gradientUnits="userSpaceOnUse" gradientTransform="translate(64 365) rotate(90) scale(34.0909)">
<stop stop-color="#2A2934"/>
<stop offset="1" stop-color="#252430"/>
</radialGradient>
<clipPath id="clip0">
<rect width="30" height="30" fill="white" transform="translate(160.2 62.8)"/>
</clipPath>
</defs>
</svg>
