<svg width="176" height="149" viewBox="0 0 176 149" fill="none" xmlns="http://www.w3.org/2000/svg">
<g clip-path="url(#clip0)">
<path opacity="0.18" d="M10.9923 69.6463C5.3932 76.334 -0.535217 83.9688 0.0377267 92.6776C0.494023 99.5815 5.05356 105.792 4.98494 112.7C4.91632 119.607 0.18182 126.082 1.21106 132.945C2.35695 140.734 10.4365 145.551 18.0906 147.401C34.2497 151.306 51.0915 147.058 67.6622 145.754C80.3836 144.755 93.1702 145.517 105.905 146.279L141.685 148.406C146.488 148.695 151.463 148.959 155.954 147.236C160.071 145.661 163.395 142.556 166.246 139.224C172.494 131.963 177.184 122.51 175.719 113.046C173.355 97.7903 156.184 87.6061 155.199 72.213C154.877 67.1757 156.28 61.6238 153.532 57.3929C152.451 55.7287 150.835 54.49 149.157 53.4366C138.7 46.8827 125.608 46.7248 113.268 46.7729L52.8583 46.9993C46.1923 47.0233 34.9701 44.8238 29.1138 48.214C26.1495 49.9263 10.9923 66.3968 10.9923 69.6463Z" fill="#798FFE"/>
<path opacity="0.1" d="M163.45 117.514C163.707 120.413 163.069 122.887 161.995 124.229C160.922 125.57 159.316 126.408 157.656 126.854C155.995 127.3 150.605 128.652 148.89 128.748C150.557 128.23 156.973 126.291 157.81 124.757C158.159 124.052 158.466 123.327 158.729 122.585C159.295 121.161 160.036 114.497 161.131 113.403C162.404 112.14 163.327 116.107 163.45 117.514Z" fill="url(#paint0_linear)"/>
<path opacity="0.1" d="M91.8425 125.557C76.53 124.17 61.1522 123.639 45.7806 123.965C41.4166 124.061 36.2978 123.865 33.7934 120.29C36.5895 118.111 40.3908 117.888 43.9314 117.768C78.73 116.525 111.007 115.472 145.806 114.23C144.21 113.073 145.806 110.249 145.483 108.304C148.914 107.254 156.173 108.884 158.427 111.269C156.317 109.755 151.816 109.21 149.895 109.995C147.974 110.781 146.416 112.511 147.463 114.298C147.771 114.827 148.269 115.276 148.351 115.884C148.488 116.896 147.428 117.63 146.485 118.021C138.172 121.453 128.065 118.169 120.033 122.228C119.552 122.433 119.132 122.758 118.812 123.172C117.618 124.987 120.418 126.768 122.558 127.128C130.217 128.426 137.963 129.139 145.73 129.263L119.419 130.484C120.171 131.383 119.79 132.838 118.915 133.617C118.04 134.396 116.836 134.646 115.683 134.852C105.947 136.516 92.1547 135.854 83.9963 129.362C86.4767 127.907 89.2282 126.785 91.8425 125.557Z" fill="url(#paint1_linear)"/>
<path d="M28.63 38.3525L24.8561 42.6555C24.1974 43.4035 23.4838 44.2888 23.6348 45.277C23.7584 45.8341 24.0339 46.346 24.4307 46.7559C25.1442 47.6077 25.9587 48.3693 26.8563 49.0241C28.1257 45.5653 29.1069 42.0138 28.63 38.3525Z" fill="#798FFE"/>
<path d="M28.6781 38.335L24.9042 42.6379C24.2455 43.3859 23.5319 44.2747 23.6828 45.2595C23.8015 45.8147 24.071 46.3264 24.4616 46.7384C25.1764 47.589 25.9921 48.3495 26.8906 49.0031C28.1875 45.5477 29.1549 41.9997 28.6781 38.335Z" fill="url(#paint2_linear)"/>
<path d="M145.932 0H32.3353V113.907H145.932V0Z" fill="#798FFE"/>
<path d="M145.932 0H32.3353V113.907H145.932V0Z" fill="url(#paint3_linear)"/>
<path d="M34.8817 30.6898L14.2749 132.264L14.981 132.407L35.5878 30.8331L34.8817 30.6898Z" fill="#798FFE"/>
<path d="M45.8855 30.9336L25.097 132.765L25.8029 132.909L46.5914 31.0778L45.8855 30.9336Z" fill="#798FFE"/>
<path d="M44.796 37.3198H33.7831V38.0404H44.796V37.3198Z" fill="#798FFE"/>
<path d="M43.06 45.9185H32.0471V46.639H43.06V45.9185Z" fill="#798FFE"/>
<path d="M41.3205 54.5142H30.3077V55.2347H41.3205V54.5142Z" fill="#798FFE"/>
<path d="M39.5811 63.1128H28.5683V63.8334H39.5811V63.1128Z" fill="#798FFE"/>
<path d="M37.8417 71.7119H26.8288V72.4325H37.8417V71.7119Z" fill="#798FFE"/>
<path d="M36.1023 80.311H25.0894V81.0316H36.1023V80.311Z" fill="#798FFE"/>
<path d="M34.3663 88.9102H23.3535V89.6307H34.3663V88.9102Z" fill="#798FFE"/>
<path d="M32.6269 97.5093H21.614V98.2299H32.6269V97.5093Z" fill="#798FFE"/>
<path d="M30.8875 106.108H19.8746V106.828H30.8875V106.108Z" fill="#798FFE"/>
<path d="M29.1481 114.707H18.1352V115.428H29.1481V114.707Z" fill="#798FFE"/>
<path d="M27.4086 123.303H16.3958V124.023H27.4086V123.303Z" fill="#798FFE"/>
<path opacity="0.1" d="M47.6264 113.811L46.7275 32.0968L45.9761 31.9527L46.0448 38.1737H44.0377C44.0069 37.1032 43.8593 36.0669 43.4819 35.3669C42.4218 33.3939 41.0804 35.3669 40.6961 36.688C40.5246 37.2644 40.257 37.8718 39.7389 38.1635H37.7148C37.4777 38.1155 37.2362 38.0925 36.9943 38.0948C36.8451 38.1026 36.6969 38.1244 36.5517 38.16H35.5225L35.4436 31.8292L34.6922 31.6885L34.7883 39.5326C34.7368 39.6149 34.6854 39.7007 34.6408 39.7899C34.181 40.6924 34.0644 41.7218 33.9546 42.7306C32.994 52.8291 33.5018 62.9996 34.0129 73.129C34.1021 74.8825 34.1948 76.6668 34.7952 78.3172C34.9239 78.6736 35.0835 79.018 35.272 79.3466L35.7043 113.839L47.6264 113.811ZM46.875 113.643L36.4694 113.619L36.3768 105.936L46.7892 105.96L46.875 113.643ZM46.7824 105.257L36.3596 105.233L36.2635 97.55L46.6897 97.5775L46.7824 105.257ZM46.6897 96.874L36.2635 96.8363L36.1675 89.1535L46.604 89.1809L46.6897 96.874ZM46.5971 88.4878L36.1572 88.4603L36.0611 80.7775H36.7473C36.843 80.8288 36.9415 80.8746 37.0423 80.9148C37.3386 81.0164 37.6524 81.0573 37.9648 81.0349C38.2772 81.0125 38.5819 80.9273 38.8607 80.7844H46.5182L46.5971 88.4878ZM46.5045 80.1015H39.6154C39.7125 79.9374 39.7755 79.7553 39.8007 79.5663C39.8968 78.8491 39.4988 78.1766 39.2278 77.5074C38.5793 75.9016 38.6445 74.131 39.0288 72.4187L46.4221 72.4359L46.5045 80.1015ZM46.4119 71.7153H39.2072C39.3307 71.2658 39.4748 70.8231 39.6292 70.3908C40.3977 68.2702 41.4406 66.232 41.9484 64.0428H46.3295L46.4119 71.7153ZM46.3089 63.3291H42.0856C42.5179 60.807 42.1782 58.182 42.3395 55.6462H46.2266L46.3089 63.3291ZM46.2163 54.9428H42.4012C42.4633 54.3297 42.57 53.7218 42.7203 53.1242C42.9467 52.2595 43.283 51.4085 43.4236 50.5335C43.5368 49.4451 43.5161 48.3468 43.3619 47.2634H46.134L46.2163 54.9428ZM46.0413 38.8772L46.1271 46.56H43.307C43.279 46.1901 43.2698 45.819 43.2795 45.4482C43.3276 44.1237 43.6947 42.8301 43.849 41.5125C43.9566 40.639 44.0184 39.7605 44.0343 38.8806L46.0413 38.8772Z" fill="url(#paint4_linear)"/>
<g opacity="0.74">
<path opacity="0.74" d="M67.1099 4.73535H44.892V7.05495H67.1099V4.73535Z" fill="#798FFE"/>
<path opacity="0.74" d="M58.454 9.22705H44.892V11.4094H58.454V9.22705Z" fill="#798FFE"/>
<path opacity="0.54" d="M106.598 9.22705H63.9227V11.4231H106.598V9.22705Z" fill="#798FFE"/>
<path opacity="0.74" d="M134.614 9.22705H110.592V11.4231H134.614V9.22705Z" fill="#798FFE"/>
<path opacity="0.74" d="M70.5921 13.7188H51.9457V16.0212H70.5921V13.7188Z" fill="#798FFE"/>
<path opacity="0.48" d="M64.0496 30.9814H51.9457V33.5721H64.0496V30.9814Z" fill="#798FFE"/>
<path opacity="0.74" d="M90.4805 38.9014H85.3686V41.4817H90.4805V38.9014Z" fill="#798FFE"/>
<path opacity="0.74" d="M64.0496 34.8457H51.9457V37.4364H64.0496V34.8457Z" fill="#798FFE"/>
<path opacity="0.74" d="M64.0496 81.6045H51.9457V84.1952H64.0496V81.6045Z" fill="#798FFE"/>
<path opacity="0.74" d="M70.9386 60.2065H58.8348V62.7972H70.9386V60.2065Z" fill="#798FFE"/>
<path opacity="0.48" d="M70.9386 64.4585H58.8348V67.0492H70.9386V64.4585Z" fill="#798FFE"/>
<path opacity="0.74" d="M70.9386 72.5732H58.8348V75.1639H70.9386V72.5732Z" fill="#798FFE"/>
<path opacity="0.74" d="M70.9386 76.8247H58.8348V79.4154H70.9386V76.8247Z" fill="#798FFE"/>
<path opacity="0.74" d="M86.0101 64.4585H73.9063V67.0492H86.0101V64.4585Z" fill="#798FFE"/>
<path opacity="0.48" d="M86.0101 76.6943H73.9063V79.285H86.0101V76.6943Z" fill="#798FFE"/>
<path opacity="0.74" d="M107.274 81.6045H67.9813V84.1952H107.274V81.6045Z" fill="#798FFE"/>
<path opacity="0.74" d="M80.1503 18.2104H57.9325V20.53H80.1503V18.2104Z" fill="#798FFE"/>
<path opacity="0.52" d="M100.224 18.2104H81.6016V20.7874H100.224V18.2104Z" fill="#798FFE"/>
<path opacity="0.74" d="M75.059 22.7056H57.9016V24.8879H75.059V22.7056Z" fill="#798FFE"/>
<path opacity="0.48" d="M82.9876 39.1934H57.9016V41.2281H82.9876V39.1934Z" fill="#798FFE"/>
<path opacity="0.74" d="M141.774 22.7056H124.617V24.8879H141.774V22.7056Z" fill="#798FFE"/>
<path opacity="0.74" d="M112.112 22.7056H76.7058V25.1247H112.112V22.7056Z" fill="#798FFE"/>
<path opacity="0.74" d="M123.279 22.7056H115.474V25.1659H123.279V22.7056Z" fill="#798FFE"/>
<path opacity="0.48" d="M96.5221 27.1973H57.8364V29.3625H96.5221V27.1973Z" fill="#798FFE"/>
<path opacity="0.74" d="M83.3513 86.1309H57.8364V88.3921H83.3513V86.1309Z" fill="#798FFE"/>
<path opacity="0.74" d="M86.9124 44.1035H64.6946V46.4231H86.9124V44.1035Z" fill="#798FFE"/>
<path opacity="0.48" d="M86.9124 55.8247H64.6946V58.1443H86.9124V55.8247Z" fill="#798FFE"/>
<path opacity="0.74" d="M78.1879 102.587H64.6946V104.832H78.1879V102.587Z" fill="#798FFE"/>
<path opacity="0.74" d="M67.7514 106.935H58.6118V109.008H67.7514V106.935Z" fill="#798FFE"/>
<path opacity="0.74" d="M78.3938 89.833H64.6946V92.1526H78.3938V89.833Z" fill="#798FFE"/>
<path opacity="0.74" d="M94.9131 89.833H81.2139V92.1526H94.9131V89.833Z" fill="#798FFE"/>
<path opacity="0.74" d="M84.6756 94.0845H70.9764V96.4041H84.6756V94.0845Z" fill="#798FFE"/>
<path opacity="0.74" d="M101.191 94.0845H87.4922V96.4041H101.191V94.0845Z" fill="#798FFE"/>
<path opacity="0.74" d="M89.7703 98.4321H70.9764V100.752H89.7703V98.4321Z" fill="#798FFE"/>
<path opacity="0.74" d="M97.7298 98.4321H92.7105V100.752H97.7298V98.4321Z" fill="#798FFE"/>
<path opacity="0.74" d="M75.8069 68.5791H64.6946V70.7958H75.8069V68.5791Z" fill="#798FFE"/>
<path opacity="0.74" d="M86.9159 51.7041H71.4498V53.7698H86.9159V51.7041Z" fill="#798FFE"/>
<path opacity="0.74" d="M106.492 51.7041H91.026V53.7698H106.492V51.7041Z" fill="#798FFE"/>
<path opacity="0.74" d="M106.492 64.2012H91.026V66.2669H106.492V64.2012Z" fill="#798FFE"/>
<path opacity="0.74" d="M125.039 51.7041H109.573V53.7698H125.039V51.7041Z" fill="#798FFE"/>
<path opacity="0.74" d="M125.039 98.5283H99.5549V100.594H125.039V98.5283Z" fill="#798FFE"/>
<path opacity="0.48" d="M113.189 44.1035H90.9711V46.4231H113.189V44.1035Z" fill="#798FFE"/>
<path opacity="0.74" d="M94.1274 47.5825H71.9095V49.9021H94.1274V47.5825Z" fill="#798FFE"/>
<path opacity="0.48" d="M120.4 47.5825H98.1826V49.9021H120.4V47.5825Z" fill="#798FFE"/>
<path opacity="0.74" d="M138.206 44.1035H115.988V46.4231H138.206V44.1035Z" fill="#798FFE"/>
</g>
<path d="M41.5298 29.9251C41.4638 29.7238 41.4347 29.5123 41.4441 29.3006C41.4578 29.2096 41.4578 29.1171 41.4441 29.0261C41.3934 28.898 41.3176 28.7813 41.2211 28.683C41.1124 28.5374 41.0413 28.3675 41.0137 28.188C40.9862 28.0085 41.0032 27.8249 41.0632 27.6536C41.3 27.6055 41.3823 27.4202 41.4646 27.1972C41.5226 26.9655 41.6188 26.7451 41.7494 26.5452C41.7636 26.5237 41.7823 26.5055 41.8042 26.4918C41.8261 26.4782 41.8507 26.4695 41.8763 26.4663C41.9043 26.4691 41.931 26.4791 41.9538 26.4953C41.9767 26.5116 41.9949 26.5335 42.0067 26.559C42.1062 26.758 41.9758 27.0291 42.1096 27.2041C42.1886 27.3001 42.3258 27.331 42.4218 27.4065C42.6277 27.5609 42.638 27.8766 42.8198 28.0516C42.8628 28.0849 42.9019 28.1229 42.9365 28.1648C42.9743 28.2339 42.9888 28.3133 42.9776 28.3913C42.9569 28.6968 42.8512 28.9904 42.6723 29.2389C42.4985 29.413 42.3732 29.6294 42.3086 29.8668C42.3099 29.9409 42.3006 30.0149 42.2812 30.0864C42.2498 30.1468 42.1985 30.1945 42.136 30.2214C42.0734 30.2483 42.0035 30.2527 41.9381 30.2339C41.8112 30.2031 41.6362 29.9903 41.5298 29.9251Z" fill="url(#paint5_linear)"/>
<path d="M34.8363 38.2149C34.7407 38.0832 34.6249 37.9674 34.4933 37.8717C34.2783 37.7339 34.0237 37.6712 33.7694 37.6933C33.5176 37.7177 33.2677 37.759 33.0215 37.8168C31.9442 38.0159 30.8395 37.7654 29.745 37.8168C28.5168 37.8889 28.0571 39.1894 27.8409 39.7109C27.4182 40.7164 27.1477 41.7792 27.0381 42.8644C26.9867 43.3791 26.973 43.8938 26.9592 44.4153C26.8975 46.5188 26.7568 48.6016 26.8392 50.705L26.9764 54.157C26.9611 54.3643 27.0154 54.5708 27.1308 54.7437C27.2573 54.8694 27.4187 54.9543 27.5939 54.9874C29.5323 55.5467 31.5771 55.5604 33.5944 55.5604C34.6236 55.5604 35.797 55.4986 36.4763 54.7231C37.2242 53.8653 37.0286 52.5717 36.8708 51.4462C36.291 47.1295 37.4643 41.6874 34.8363 38.2149Z" fill="#798FFE"/>
<path d="M34.8363 38.2149C34.7407 38.0832 34.6249 37.9674 34.4933 37.8717C34.2783 37.7339 34.0237 37.6712 33.7694 37.6933C33.5176 37.7177 33.2677 37.759 33.0215 37.8168C31.9442 38.0159 30.8395 37.7654 29.745 37.8168C28.5168 37.8889 28.0571 39.1894 27.8409 39.7109C27.4182 40.7164 27.1477 41.7792 27.0381 42.8644C26.9867 43.3791 26.973 43.8938 26.9592 44.4153C26.8975 46.5188 26.7568 48.6016 26.8392 50.705L26.9764 54.157C26.9611 54.3643 27.0154 54.5708 27.1308 54.7437C27.2573 54.8694 27.4187 54.9543 27.5939 54.9874C29.5323 55.5467 31.5771 55.5604 33.5944 55.5604C34.6236 55.5604 35.797 55.4986 36.4763 54.7231C37.2242 53.8653 37.0286 52.5717 36.8708 51.4462C36.291 47.1295 37.4643 41.6874 34.8363 38.2149Z" fill="url(#paint6_linear)"/>
<path d="M33.4846 36.6365C33.7372 36.4567 33.946 36.2221 34.0953 35.9503C34.1937 35.6888 34.2278 35.4076 34.1948 35.1302C34.1752 34.6901 34.0581 34.26 33.8517 33.8709C33.7473 33.677 33.6038 33.507 33.4301 33.3717C33.2564 33.2365 33.0565 33.1388 32.843 33.0851C32.1569 32.9444 31.4501 33.4282 31.1276 34.039C30.8332 34.6841 30.6934 35.3891 30.7194 36.0978C30.6954 36.9865 30.0126 38.3453 30.8463 38.6576C31.8104 39.0179 32.5617 37.9713 32.723 37.5115C32.8848 37.151 33.1499 36.8466 33.4846 36.6365Z" fill="url(#paint7_linear)"/>
<path d="M33.7934 32.0868C33.7896 32.3912 33.7004 32.6884 33.5361 32.9446C33.3929 33.2251 33.2204 33.4897 33.0214 33.7339C32.8832 33.8703 32.7674 34.0279 32.6784 34.2005C32.6042 34.4992 32.6307 34.8141 32.7538 35.0961C32.6063 35.1716 32.4657 34.8353 32.3284 34.928C32.3031 34.9508 32.2852 34.9807 32.277 35.0138C32.2436 35.1199 32.2397 35.2331 32.2657 35.3413C32.2917 35.4495 32.3466 35.5486 32.4245 35.628C32.4701 35.6643 32.5076 35.7099 32.5343 35.7618C32.5754 35.8682 32.4862 35.978 32.4451 36.0843C32.3421 36.3451 32.524 36.6642 32.3867 36.9079C32.3166 36.9974 32.2254 37.0681 32.1212 37.1136C32.017 37.1591 31.9031 37.1781 31.7898 37.1687C31.3884 37.1961 30.987 37.2064 30.5856 37.1961C30.5038 37.2015 30.4221 37.1849 30.3488 37.1481C30.2969 37.1061 30.2541 37.0541 30.2228 36.9951C30.1916 36.9361 30.1726 36.8714 30.167 36.8049C29.933 35.8168 29.8178 34.8042 29.8239 33.7888C29.7992 33.4891 29.8687 33.1891 30.0229 32.9309C30.143 32.7696 30.318 32.6633 30.4449 32.5157C30.5719 32.3682 30.6954 32.0868 30.8635 31.9015C31.1151 31.6718 31.4247 31.5151 31.7589 31.4486C32.4211 31.2736 33.7179 31.0231 33.7934 32.0868Z" fill="#3F3D56"/>
<path d="M26.9146 63.3564C26.9768 63.8756 26.9895 64.3995 26.9524 64.9211C26.8928 65.3388 26.7987 65.7509 26.671 66.153C26.2413 67.7832 25.6955 69.3805 25.038 70.9329C24.5645 71.9623 23.9847 72.9917 23.6073 74.0623C23.2162 75.3317 22.9643 76.6398 22.856 77.9637C23.1881 77.8762 23.4838 77.6851 23.7 77.4181C26.7429 74.3432 29.3027 70.825 31.2923 66.9834C31.7442 66.172 32.0901 65.3059 32.3216 64.4064C32.4657 63.6428 32.538 62.8674 32.5377 62.0903C32.6258 60.4148 32.6006 58.7353 32.4622 57.0633C32.4005 56.48 32.2632 55.8246 31.7761 55.5158C31.5284 55.3835 31.2538 55.3095 30.9733 55.2996C30.0366 55.2138 29.0795 55.2996 28.1566 55.0937C27.8135 55.0251 27.2817 54.6957 27.0278 54.9153C26.774 55.1349 26.9146 56.2123 26.9009 56.5074C26.7644 58.7885 26.769 61.0759 26.9146 63.3564Z" fill="#3F3D56"/>
<path d="M26.9146 63.3564C26.9768 63.8756 26.9895 64.3995 26.9524 64.9211C26.8928 65.3388 26.7987 65.7509 26.671 66.153C26.2413 67.7832 25.6955 69.3805 25.038 70.9329C24.5645 71.9623 23.9847 72.9917 23.6073 74.0623C23.2162 75.3317 22.9643 76.6398 22.856 77.9637C23.1881 77.8762 23.4838 77.6851 23.7 77.4181C26.7429 74.3432 29.3027 70.825 31.2923 66.9834C31.7442 66.172 32.0901 65.3059 32.3216 64.4064C32.4657 63.6428 32.538 62.8674 32.5377 62.0903C32.6258 60.4148 32.6006 58.7353 32.4622 57.0633C32.4005 56.48 32.2632 55.8246 31.7761 55.5158C31.5284 55.3835 31.2538 55.3095 30.9733 55.2996C30.0366 55.2138 29.0795 55.2996 28.1566 55.0937C27.8135 55.0251 27.2817 54.6957 27.0278 54.9153C26.774 55.1349 26.9146 56.2123 26.9009 56.5074C26.7644 58.7885 26.769 61.0759 26.9146 63.3564Z" fill="url(#paint8_linear)"/>
<path d="M34.037 68.2018C34.1181 69.5167 34.0444 70.8365 33.8174 72.1342L32.9288 78.7979C32.9755 78.8797 33.0386 78.9511 33.1141 79.0075C33.1896 79.0639 33.2759 79.1041 33.3677 79.1257C33.4594 79.1473 33.5546 79.1497 33.6473 79.1329C33.74 79.116 33.8283 79.0802 33.9066 79.0278C34.2145 78.8037 34.4525 78.4966 34.5928 78.1425C35.9411 75.4935 37.3065 72.793 37.8074 69.8661C38.0184 68.4904 38.1045 67.0984 38.0647 65.7072C38.0218 62.2122 37.6217 58.7307 36.8708 55.3171C36.8546 55.1537 36.7803 55.0015 36.6615 54.8882C36.5077 54.8072 36.3295 54.7853 36.1606 54.8264L33.1038 55.2107C32.373 55.3034 28.8084 55.1936 28.8084 55.1936C28.8084 55.1936 30.0469 58.2406 30.4003 59.1842C31.4742 62.0528 34.037 65.0313 34.037 68.2018Z" fill="#3F3D56"/>
<path d="M22.163 78.4819C22.2192 78.6139 22.3049 78.7313 22.4134 78.825C23.096 79.4946 23.9725 79.9317 24.9179 80.0741C25.042 80.1102 25.1734 80.1134 25.2991 80.0833C25.4249 80.0532 25.5406 79.9909 25.6349 79.9025C25.7015 79.7956 25.7293 79.6691 25.7137 79.5442C25.6981 79.4192 25.64 79.3034 25.5492 79.2162C25.3721 79.046 25.1635 78.9119 24.9351 78.8216C24.7108 78.7337 24.5065 78.6015 24.3343 78.4329C24.1622 78.2643 24.0258 78.0627 23.9333 77.8402C23.4427 76.2069 21.741 77.1402 22.163 78.4819Z" fill="url(#paint9_linear)"/>
<path d="M32.6029 80.2596C32.7748 80.5366 33.0344 80.748 33.3405 80.8601C34.0816 81.2033 34.9153 81.4984 35.7181 81.3131C35.9526 81.2736 36.1654 81.1519 36.3185 80.9699C36.392 80.878 36.4303 80.7629 36.4265 80.6453C36.4228 80.5277 36.3771 80.4152 36.2979 80.3283C36.1126 80.1601 35.821 80.2116 35.5705 80.1841C35.4256 80.1665 35.2862 80.1182 35.1613 80.0424C35.0365 79.9667 34.9293 79.8653 34.8466 79.7449C34.754 79.6077 34.6957 79.4498 34.6099 79.3091C33.8723 78.067 31.9682 78.9523 32.6029 80.2596Z" fill="url(#paint10_linear)"/>
<path d="M22.1046 77.3772C22.1718 77.3016 22.2571 77.2443 22.3526 77.2107C22.448 77.1771 22.5504 77.1682 22.6501 77.1851C22.9383 77.2537 23.0893 77.5934 23.3637 77.7101C23.4872 77.7615 23.6245 77.765 23.7514 77.8096C23.9883 77.9237 24.1987 78.0862 24.369 78.2865C24.8561 78.7326 25.5594 78.9728 25.8819 79.539C25.922 79.595 25.9472 79.6603 25.955 79.7288C25.9628 79.7972 25.953 79.8665 25.9265 79.9301C25.895 79.973 25.855 80.0089 25.8089 80.0354C25.7629 80.062 25.7118 80.0787 25.6589 80.0846C25.2918 80.1566 24.8081 80.287 24.4616 80.1429C23.8628 79.9077 23.2825 79.6279 22.7256 79.3056C22.4203 79.1203 22.2007 78.6194 21.9811 78.3208C21.7135 77.964 21.7993 77.6929 22.1046 77.3772Z" fill="#3F3D56"/>
<path d="M32.6509 79.2061C32.5583 79.1684 32.4451 79.1204 32.373 79.189C32.3567 79.2044 32.3438 79.2231 32.3353 79.2439C32.2511 79.4582 32.2359 79.6934 32.2919 79.9167C32.3479 80.14 32.4722 80.3403 32.6475 80.4895C33.0017 80.7854 33.4045 81.0176 33.838 81.1758C34.2699 81.4012 34.7321 81.563 35.2103 81.6562C35.4482 81.7006 35.6936 81.6793 35.9203 81.5947C36.147 81.5101 36.3463 81.3652 36.4969 81.1758C36.5978 81.0334 36.6408 80.858 36.6169 80.6851C36.5449 80.3076 36.116 80.1429 35.7592 79.9988C35.3064 79.8204 34.9118 79.4944 34.4452 79.3503C33.8483 79.1547 33.2102 79.436 32.6509 79.2061Z" fill="#3F3D56"/>
<path d="M34.8089 37.9952L37.5055 36.6536C37.8452 36.5008 38.1663 36.3096 38.4627 36.084C40.0649 34.7801 39.9757 32.3712 40.8059 30.4806C40.8472 30.3536 40.9307 30.2445 41.0426 30.1717C41.141 30.1391 41.2461 30.132 41.348 30.1512L42.4355 30.2815L41.5675 36.6673C41.5204 37.135 41.419 37.5956 41.2656 38.0398C41.1316 38.3532 40.966 38.6521 40.7716 38.932C39.7292 40.4962 38.4039 41.852 36.8639 42.9295C36.703 43.0598 36.5157 43.1534 36.315 43.204C36.0785 43.2409 35.8365 43.1962 35.6288 43.0771C34.8844 42.6893 34.5756 41.7903 34.4315 40.9634C34.2096 39.9601 34.343 38.911 34.8089 37.9952Z" fill="#798FFE"/>
<path d="M34.8089 37.9952L37.5055 36.6536C37.8452 36.5008 38.1663 36.3096 38.4627 36.084C40.0649 34.7801 39.9757 32.3712 40.8059 30.4806C40.8472 30.3536 40.9307 30.2445 41.0426 30.1717C41.141 30.1391 41.2461 30.132 41.348 30.1512L42.4355 30.2815L41.5675 36.6673C41.5204 37.135 41.419 37.5956 41.2656 38.0398C41.1316 38.3532 40.966 38.6521 40.7716 38.932C39.7292 40.4962 38.4039 41.852 36.8639 42.9295C36.703 43.0598 36.5157 43.1534 36.315 43.204C36.0785 43.2409 35.8365 43.1962 35.6288 43.0771C34.8844 42.6893 34.5756 41.7903 34.4315 40.9634C34.2096 39.9601 34.343 38.911 34.8089 37.9952Z" fill="url(#paint11_linear)"/>
<path d="M145.932 113.907H32.3353V120.283H145.932V113.907Z" fill="#798FFE"/>
<path d="M145.932 115.067H32.3353V120.283H145.932V115.067Z" fill="url(#paint12_linear)"/>
<path d="M162.4 117.915C161.899 120.249 160.531 122.754 157.999 124.881C153.353 128.786 147.346 129.798 143.123 129.963C142.601 129.984 142.093 129.994 141.565 129.994C137.791 129.994 134.017 129.496 130.367 129.013L127.78 128.669C123.406 128.124 118.366 127.674 113.92 129.242L113.529 128.131L113.12 126.978C118.057 125.235 123.43 125.708 128.075 126.291C128.943 126.398 129.811 126.514 130.683 126.635C134.738 127.17 138.934 127.726 143.033 127.568C146.879 127.417 152.334 126.511 156.458 123.045C158.102 121.673 159.546 119.655 160.057 117.521C160.346 116.4 160.317 115.221 159.971 114.117C159.822 113.658 159.616 113.22 159.357 112.813C158.191 110.97 156.094 109.787 154.3 109.258C151.634 108.472 148.725 108.572 145.905 108.671H145.802L145.764 107.615L145.716 106.273C148.612 106.166 151.892 106.046 154.979 106.959C158.572 108.016 161.292 110.418 162.253 113.379C162.696 114.853 162.747 116.416 162.4 117.915Z" fill="#798FFE"/>
<path d="M162.448 116.611C162.243 119.298 160.88 122.386 157.855 124.932C153.209 128.834 147.198 129.85 142.975 130.011C142.457 130.031 141.946 130.042 141.418 130.042C137.644 130.042 133.87 129.544 130.223 129.06L127.633 128.717C123.258 128.172 118.218 127.722 113.776 129.29L112.976 127.026C113.175 126.957 113.374 126.888 113.577 126.826L113.968 127.938C118.428 126.37 123.454 126.82 127.828 127.365L130.415 127.708C134.069 128.192 137.832 128.69 141.613 128.69C142.131 128.69 142.642 128.69 143.171 128.659C147.394 128.494 153.401 127.482 158.047 123.577C160.579 121.45 161.947 118.945 162.448 116.611Z" fill="url(#paint13_linear)"/>
<path d="M104.012 115.709L120.239 119.415L117.148 133.617L106.41 138.768L91.695 132.361L101.565 127.949L104.012 115.709Z" fill="#798FFE"/>
<path d="M104.012 115.709L120.239 119.415L117.148 133.617L106.41 138.768L91.695 132.361L101.565 127.949L104.012 115.709Z" fill="url(#paint14_linear)"/>
<path d="M102.948 115.42L119.176 119.123L116.085 133.325L105.555 138.448L90.8407 132.038L100.502 127.657L102.948 115.42Z" fill="#798FFE"/>
<path d="M102.56 127.722L115.12 131.685L117.728 120.187L104.687 117.387L102.56 127.722Z" fill="#798FFE"/>
<path d="M102.56 127.722L115.12 131.685L117.728 120.187L104.687 117.387L102.56 127.722Z" fill="url(#paint15_linear)"/>
<path d="M159.717 112.878L159.354 112.809C158.187 110.967 156.091 109.783 154.297 109.255C151.631 108.469 148.629 108.568 145.809 108.671L145.778 107.518C145.778 107.518 151.954 107.175 155.611 108.932C157.93 110.051 159.717 112.878 159.717 112.878Z" fill="url(#paint16_linear)"/>
</g>
<defs>
<linearGradient id="paint0_linear" x1="148.88" y1="120.945" x2="163.508" y2="120.945" gradientUnits="userSpaceOnUse">
<stop stop-opacity="0"/>
<stop offset="0.99"/>
</linearGradient>
<linearGradient id="paint1_linear" x1="12686.6" y1="10497.3" x2="57963.7" y2="10497.3" gradientUnits="userSpaceOnUse">
<stop stop-opacity="0"/>
<stop offset="0.99"/>
</linearGradient>
<linearGradient id="paint2_linear" x1="391.844" y1="1657.43" x2="852.179" y2="1590.96" gradientUnits="userSpaceOnUse">
<stop stop-opacity="0"/>
<stop offset="0.99"/>
</linearGradient>
<linearGradient id="paint3_linear" x1="206.026" y1="-71.4101" x2="16.6603" y2="136.472" gradientUnits="userSpaceOnUse">
<stop stop-color="white" stop-opacity="0"/>
<stop offset="0.99" stop-color="white"/>
</linearGradient>
<linearGradient id="paint4_linear" x1="91.133" y1="-2.51255e+06" x2="85078.1" y2="1.36212e+06" gradientUnits="userSpaceOnUse">
<stop stop-opacity="0"/>
<stop offset="0.99"/>
</linearGradient>
<linearGradient id="paint5_linear" x1="40.9912" y1="28.3467" x2="42.9673" y2="28.3467" gradientUnits="userSpaceOnUse">
<stop stop-color="#ECC4D7"/>
<stop offset="0.42" stop-color="#EFD4D1"/>
<stop offset="1" stop-color="#F2EAC9"/>
</linearGradient>
<linearGradient id="paint6_linear" x1="979.311" y1="2937.15" x2="3556.03" y2="1057.3" gradientUnits="userSpaceOnUse">
<stop stop-opacity="0"/>
<stop offset="0.99"/>
</linearGradient>
<linearGradient id="paint7_linear" x1="376.506" y1="744.109" x2="418.015" y2="744.109" gradientUnits="userSpaceOnUse">
<stop stop-color="#ECC4D7"/>
<stop offset="0.42" stop-color="#EFD4D1"/>
<stop offset="1" stop-color="#F2EAC9"/>
</linearGradient>
<linearGradient id="paint8_linear" x1="881.512" y1="4939.79" x2="989.112" y2="4928.46" gradientUnits="userSpaceOnUse">
<stop stop-opacity="0"/>
<stop offset="0.99"/>
</linearGradient>
<linearGradient id="paint9_linear" x1="266.298" y1="858.982" x2="304.47" y2="858.982" gradientUnits="userSpaceOnUse">
<stop stop-color="#ECC4D7"/>
<stop offset="0.42" stop-color="#EFD4D1"/>
<stop offset="1" stop-color="#F2EAC9"/>
</linearGradient>
<linearGradient id="paint10_linear" x1="418.445" y1="753.843" x2="463.965" y2="753.843" gradientUnits="userSpaceOnUse">
<stop stop-color="#ECC4D7"/>
<stop offset="0.42" stop-color="#EFD4D1"/>
<stop offset="1" stop-color="#F2EAC9"/>
</linearGradient>
<linearGradient id="paint11_linear" x1="1028.62" y1="1791.35" x2="-159.419" y2="938.785" gradientUnits="userSpaceOnUse">
<stop stop-opacity="0"/>
<stop offset="0.99"/>
</linearGradient>
<linearGradient id="paint12_linear" x1="29546" y1="2029.07" x2="29546" y2="1785.65" gradientUnits="userSpaceOnUse">
<stop stop-color="white" stop-opacity="0"/>
<stop offset="0.99" stop-color="white"/>
</linearGradient>
<linearGradient id="paint13_linear" x1="23646.4" y1="4331.32" x2="20685.4" y2="14708.5" gradientUnits="userSpaceOnUse">
<stop stop-opacity="0"/>
<stop offset="0.99"/>
</linearGradient>
<linearGradient id="paint14_linear" x1="9114.82" y1="8702.11" x2="11159.5" y2="10625.4" gradientUnits="userSpaceOnUse">
<stop stop-opacity="0"/>
<stop offset="0.99"/>
</linearGradient>
<linearGradient id="paint15_linear" x1="5136.37" y1="4557.64" x2="4846.6" y2="5973.71" gradientUnits="userSpaceOnUse">
<stop stop-color="white" stop-opacity="0"/>
<stop offset="0.99" stop-color="white"/>
</linearGradient>
<linearGradient id="paint16_linear" x1="6548.81" y1="1892.58" x2="6284.69" y2="2542.76" gradientUnits="userSpaceOnUse">
<stop stop-opacity="0"/>
<stop offset="0.99"/>
</linearGradient>
<clipPath id="clip0">
<rect width="176" height="149" fill="white"/>
</clipPath>
</defs>
</svg>
