<svg width="532" height="406" viewBox="0 0 532 406" fill="none" xmlns="http://www.w3.org/2000/svg">
<ellipse cx="218.5" cy="225" rx="218.5" ry="174" fill="url(#paint0_radial)"/>
<path d="M44 117C44 111.477 48.4772 107 54 107H390.349C395.872 107 400.349 111.477 400.349 117V344C400.349 349.523 395.872 354 390.349 354H54C48.4772 354 44 349.523 44 344V117Z" fill="#4E4C6A" fill-opacity="0.85"/>
<circle cx="60.0807" cy="123.724" r="3.85938" fill="#6FD1C5"/>
<circle cx="72.3021" cy="123.724" r="3.85938" fill="#6FD1C5"/>
<circle cx="84.5234" cy="123.724" r="3.85938" fill="#6FD1C5"/>
<rect x="63.9401" y="158.458" width="201.974" height="8.36198" rx="4" fill="#6FD1C5"/>
<rect x="63.9401" y="187.404" width="237.352" height="8.36198" rx="4" fill="#6FD1C5"/>
<path d="M63.9401 220.349C63.9401 218.14 65.7309 216.349 67.9401 216.349H341.674C343.884 216.349 345.674 218.14 345.674 220.349V220.711C345.674 222.92 343.884 224.711 341.674 224.711H67.9401C65.7309 224.711 63.9401 222.92 63.9401 220.711V220.349Z" fill="#6FD1C5"/>
<path d="M63.9401 249.294C63.9401 247.085 65.7309 245.294 67.9401 245.294H230.396C232.605 245.294 234.396 247.085 234.396 249.294V249.656C234.396 251.865 232.605 253.656 230.396 253.656H67.9401C65.7309 253.656 63.9401 251.865 63.9401 249.656V249.294Z" fill="#6FD1C5"/>
<rect x="63.9401" y="274.24" width="133.792" height="8.36198" rx="4" fill="#6FD1C5"/>
<g filter="url(#filter0_d)">
<circle cx="150" cy="99" r="35" fill="url(#paint1_radial)"/>
</g>
<g filter="url(#filter1_d)">
<rect x="137.167" y="85.7388" width="26.0944" height="26.0944" fill="white"/>
<path d="M153.85 100.797C153.225 100.291 152.432 100.039 151.63 100.091H146.15V105.699H151.72C152.497 105.722 153.256 105.457 153.85 104.955C154.132 104.683 154.353 104.356 154.499 103.993C154.645 103.63 154.712 103.241 154.697 102.85C154.711 102.467 154.642 102.086 154.496 101.731C154.35 101.377 154.13 101.058 153.85 100.797ZM153.08 97.1775C153.339 96.947 153.542 96.6612 153.676 96.3413C153.809 96.0214 153.868 95.6756 153.85 95.3295C153.888 94.9802 153.846 94.6268 153.728 94.2957C153.611 93.9646 153.42 93.6644 153.17 93.4174C152.621 93.027 151.956 92.8326 151.283 92.8655H146.15V97.8192H151.283C151.956 97.8324 152.611 97.6048 153.131 97.1775H153.08ZM160.267 83.5999H139.733C138.372 83.5999 137.066 84.1407 136.103 85.1034C135.141 86.0661 134.6 87.3717 134.6 88.7332V109.267C134.6 110.628 135.141 111.934 136.103 112.896C137.066 113.859 138.372 114.4 139.733 114.4H160.267C161.628 114.4 162.934 113.859 163.896 112.896C164.859 111.934 165.4 110.628 165.4 109.267V88.7332C165.4 87.3717 164.859 86.0661 163.896 85.1034C162.934 84.1407 161.628 83.5999 160.267 83.5999ZM157.456 105.224C157.208 105.848 156.801 106.397 156.275 106.815C155.665 107.302 154.962 107.66 154.209 107.868C153.239 108.154 152.23 108.288 151.219 108.266H142.967V90.2989H151.694C153.064 90.2306 154.418 90.6187 155.544 91.4025C156.042 91.7997 156.436 92.3123 156.69 92.896C156.945 93.4797 157.054 94.1168 157.007 94.752C157.054 95.5687 156.848 96.38 156.417 97.0749C155.939 97.746 155.28 98.2669 154.517 98.5764C155.027 98.6553 155.516 98.8342 155.957 99.1029C156.397 99.3716 156.78 99.7248 157.084 100.142C157.68 101.047 157.98 102.114 157.944 103.196C157.925 103.899 157.759 104.59 157.456 105.224Z" fill="#581DD6"/>
</g>
<circle cx="261" cy="4" r="4" fill="#6FD1C5"/>
<circle cx="528" cy="225" r="4" fill="#6FD1C5"/>
<g filter="url(#filter2_d)">
<circle cx="400" cy="340" r="50" fill="url(#paint2_radial)"/>
</g>
<g filter="url(#filter3_d)">
<path d="M399.944 345.534C403.025 345.534 405.522 343.036 405.522 339.956C405.522 336.875 403.025 334.378 399.944 334.378C396.864 334.378 394.367 336.875 394.367 339.956C394.367 343.036 396.864 345.534 399.944 345.534Z" fill="#00D8FF"/>
<path d="M399.944 352.734C392.111 352.734 385.267 351.811 380.144 350.056C376.822 348.922 374 347.411 371.989 345.689C369.856 343.867 368.722 341.878 368.722 339.956C368.722 336.267 372.767 332.656 379.556 330.3C385.111 328.367 392.356 327.289 399.933 327.289C407.378 327.289 414.522 328.334 420.044 330.245C423.278 331.356 426 332.8 427.933 334.4C430.033 336.156 431.144 338.078 431.144 339.956C431.144 343.789 426.622 347.667 419.333 350.078C414.178 351.789 407.289 352.734 399.944 352.734ZM399.944 329.956C392.756 329.956 385.644 331 380.444 332.811C374.2 334.989 371.4 337.967 371.4 339.956C371.4 342.022 374.411 345.278 381.011 347.534C385.856 349.189 392.411 350.067 399.944 350.067C407.011 350.067 413.6 349.178 418.5 347.545C425.356 345.267 428.489 342.011 428.489 339.956C428.489 338.9 427.689 337.656 426.233 336.445C424.556 335.045 422.111 333.767 419.189 332.756C413.933 330.956 407.1 329.956 399.944 329.956Z" fill="#00D8FF"/>
<path d="M387.289 367.756C386.155 367.756 385.155 367.511 384.311 367.022C381.122 365.178 380.011 359.867 381.355 352.811C382.455 347.022 385.144 340.222 388.933 333.656C392.655 327.211 397.122 321.544 401.533 317.711C404.111 315.467 406.722 313.822 409.078 312.956C411.644 312.011 413.867 312.011 415.489 312.944C418.811 314.856 419.911 320.722 418.355 328.233C417.255 333.567 414.633 340 410.967 346.367C407.055 353.144 402.833 358.611 398.755 362.178C396.111 364.489 393.389 366.178 390.9 367.056C389.6 367.522 388.378 367.756 387.289 367.756ZM390.078 334.322L391.233 334.989C387.644 341.211 384.989 347.889 383.967 353.311C382.733 359.811 383.922 363.722 385.633 364.711C386.055 364.956 386.611 365.089 387.289 365.089C389.5 365.089 392.978 363.689 397 360.178C400.855 356.811 404.889 351.567 408.655 345.044C412.189 338.922 414.7 332.767 415.744 327.711C417.2 320.633 415.944 316.3 414.155 315.267C413.244 314.744 411.767 314.811 409.989 315.467C407.933 316.222 405.611 317.7 403.278 319.733C399.089 323.378 394.811 328.8 391.233 335L390.078 334.322Z" fill="#00D8FF"/>
<path d="M412.6 367.789C409.578 367.789 405.744 365.967 401.744 362.522C397.278 358.678 392.733 352.956 388.933 346.389C385.2 339.944 382.533 333.244 381.411 327.5C380.756 324.144 380.633 321.067 381.056 318.589C381.522 315.889 382.622 313.967 384.256 313.022C387.567 311.1 393.2 313.078 398.933 318.178C403 321.789 407.267 327.278 410.944 333.633C414.867 340.411 417.5 346.8 418.544 352.111C419.222 355.556 419.333 358.756 418.856 361.356C418.344 364.122 417.189 366.089 415.522 367.056C414.689 367.545 413.7 367.789 412.6 367.789ZM391.245 345.056C394.844 351.278 399.311 356.911 403.489 360.5C408.5 364.811 412.478 365.745 414.2 364.745C415.989 363.711 417.3 359.478 415.944 352.633C414.944 347.611 412.422 341.5 408.644 334.978C405.1 328.856 401.022 323.6 397.167 320.178C391.767 315.378 387.389 314.3 385.6 315.333C384.689 315.856 384.011 317.178 383.689 319.044C383.322 321.2 383.433 323.956 384.033 326.989C385.1 332.444 387.656 338.856 391.245 345.056Z" fill="#00D8FF"/>
</g>
<g filter="url(#filter4_d)">
<circle cx="444" cy="55" r="25" fill="url(#paint3_radial)"/>
</g>
<g clip-path="url(#clip0)" filter="url(#filter5_d)">
<path d="M448.383 65.3222L449.267 63.8166C449.267 63.8166 447.261 64.6375 443.906 64.6375C440.547 64.6375 438.572 63.8486 438.572 63.8486L439.56 65.4916L439.91 70.6708C439.91 71.2305 441.735 71.668 443.988 71.668C446.242 71.668 448.068 71.2319 448.068 70.6708L448.386 65.3444V65.3222H448.383ZM449.238 55.5361C448.169 55.6 447.636 56.7902 447.1 58.043C446.901 58.5013 446.225 60.4555 445.783 60.2138C445.342 59.9736 446.357 58.368 446.643 57.4125C446.314 57.6541 445.108 58.5916 444.797 57.7111C444.3 58.1472 443.229 58.3777 443.35 57.2541C443.085 57.7333 442.488 58.3972 441.768 58.1069C440.833 57.7527 442.317 54.7583 442.685 54.9027C443.054 55.0708 442.611 55.7361 442.496 56.0055C442.238 56.5875 441.943 57.3361 442.142 57.4819C442.475 57.7513 443.397 56.5055 443.418 56.4833C443.59 56.2541 444.083 54.7763 444.478 54.9458C444.874 55.1319 443.49 57.0861 444.006 57.4819C444.111 57.5652 444.538 57.4402 444.796 57.15C444.963 56.9833 444.904 56.5666 445.461 55.2361C446.022 53.9041 446.522 52.2416 446.904 52.3666C447.286 52.4916 446.972 53.343 446.833 53.6763C446.189 55.1736 445.072 57.6263 445.597 57.4402C446.117 57.2527 446.388 57.2527 446.907 56.65C447.426 56.0472 447.386 55.05 447.739 55.0708C448.072 55.0902 448.031 55.4236 447.947 55.6513C448.281 55.2763 449.547 54.4458 449.84 55.2569C450.193 56.2125 448.029 57.6069 448.571 57.5236C449.092 57.4611 449.943 56.9208 450.318 56.4222L451.317 47.3944C451.317 47.3944 450.297 48.2277 443.871 48.2277C437.444 48.2277 436.532 47.4166 436.532 47.4166L437.383 55.6527C437.842 54.3638 438.922 51.7444 440.608 51.8472C441.378 51.8888 442.418 53.3875 441.522 53.4291C441.147 53.45 441.106 52.6805 440.669 52.5763C440.338 52.5125 439.9 52.7638 439.61 53.0555C439.049 53.6166 437.799 55.8416 437.965 56.9458C438.174 58.3597 439.919 56.4652 440.211 55.9041C440.418 55.5111 440.564 54.3236 441 54.4486C441.458 54.5736 440.96 55.8013 440.625 56.8611C440.25 58.068 440.064 59.3347 439.608 59.1888C439.15 59.0444 439.899 57.4847 439.856 57.2138C439.421 57.6291 438.629 58.6305 437.59 58.1291L438.11 63.2666C438.11 63.2666 439.525 64.368 443.767 64.368C448.008 64.368 449.486 63.2666 449.486 63.2666L450.151 57.318C449.611 57.8597 447.906 58.7944 447.801 57.7347C447.719 56.8819 449.653 55.6541 449.154 55.6319L449.238 55.5361ZM451.425 39.2625L447.732 43.1513L447.057 45.7916C449.669 45.9583 451.486 46.3277 451.486 46.7555C451.486 47.3375 448.133 47.8069 443.999 47.8069C439.864 47.8069 436.513 47.3305 436.513 46.7472C436.513 46.1652 439.865 45.6861 444 45.6861C444.588 45.6861 445.172 45.6861 445.756 45.7083L446.535 42.5472L450.458 38.3875C450.553 38.2625 450.847 38.3666 451.117 38.5958C451.386 38.8027 451.532 39.0736 451.449 39.1986V39.2402L451.425 39.2625ZM446.1 47.3111C446.1 47.3111 445.374 47.3111 445.253 47.2C445.222 47.1652 445.203 47.1194 445.203 47.075C445.203 46.9944 445.257 46.9486 445.328 46.9222L445.389 47.0263C445.36 47.0347 445.349 47.0472 445.343 47.0583C445.343 47.1152 445.779 47.1541 446.114 47.15C446.446 47.1458 446.851 47.118 446.854 47.0611C446.854 47.0444 446.822 47.0291 446.769 47.0152L446.832 46.9152C446.919 46.943 446.994 46.9958 446.994 47.0833C446.994 47.2361 446.799 47.2611 446.675 47.2791C446.526 47.3 446.103 47.3111 446.103 47.3111H446.1Z" fill="#E4265F" fill-opacity="0.7"/>
</g>
<defs>
<filter id="filter0_d" x="111" y="60" width="90" height="90" filterUnits="userSpaceOnUse" color-interpolation-filters="sRGB">
<feFlood flood-opacity="0" result="BackgroundImageFix"/>
<feColorMatrix in="SourceAlpha" type="matrix" values="0 0 0 0 0 0 0 0 0 0 0 0 0 0 0 0 0 0 127 0"/>
<feOffset dx="6" dy="6"/>
<feGaussianBlur stdDeviation="5"/>
<feColorMatrix type="matrix" values="0 0 0 0 0.168627 0 0 0 0 0.160784 0 0 0 0 0.247059 0 0 0 1 0"/>
<feBlend mode="normal" in2="BackgroundImageFix" result="effect1_dropShadow"/>
<feBlend mode="normal" in="SourceGraphic" in2="effect1_dropShadow" result="shape"/>
</filter>
<filter id="filter1_d" x="106.333" y="71.3333" width="71.3333" height="71.3333" filterUnits="userSpaceOnUse" color-interpolation-filters="sRGB">
<feFlood flood-opacity="0" result="BackgroundImageFix"/>
<feColorMatrix in="SourceAlpha" type="matrix" values="0 0 0 0 0 0 0 0 0 0 0 0 0 0 0 0 0 0 127 0"/>
<feOffset dx="-8" dy="8"/>
<feGaussianBlur stdDeviation="5"/>
<feColorMatrix type="matrix" values="0 0 0 0 0.124242 0 0 0 0 0.116667 0 0 0 0 0.2 0 0 0 0.5 0"/>
<feBlend mode="normal" in2="BackgroundImageFix" result="effect1_dropShadow"/>
<feBlend mode="normal" in="SourceGraphic" in2="effect1_dropShadow" result="shape"/>
</filter>
<filter id="filter2_d" x="346" y="286" width="120" height="120" filterUnits="userSpaceOnUse" color-interpolation-filters="sRGB">
<feFlood flood-opacity="0" result="BackgroundImageFix"/>
<feColorMatrix in="SourceAlpha" type="matrix" values="0 0 0 0 0 0 0 0 0 0 0 0 0 0 0 0 0 0 127 0"/>
<feOffset dx="6" dy="6"/>
<feGaussianBlur stdDeviation="5"/>
<feColorMatrix type="matrix" values="0 0 0 0 0.168627 0 0 0 0 0.160784 0 0 0 0 0.247059 0 0 0 1 0"/>
<feBlend mode="normal" in2="BackgroundImageFix" result="effect1_dropShadow"/>
<feBlend mode="normal" in="SourceGraphic" in2="effect1_dropShadow" result="shape"/>
</filter>
<filter id="filter3_d" x="352.667" y="304.667" width="82.6667" height="82.6667" filterUnits="userSpaceOnUse" color-interpolation-filters="sRGB">
<feFlood flood-opacity="0" result="BackgroundImageFix"/>
<feColorMatrix in="SourceAlpha" type="matrix" values="0 0 0 0 0 0 0 0 0 0 0 0 0 0 0 0 0 0 127 0"/>
<feOffset dx="-6" dy="6"/>
<feGaussianBlur stdDeviation="4"/>
<feColorMatrix type="matrix" values="0 0 0 0 0.124242 0 0 0 0 0.116667 0 0 0 0 0.2 0 0 0 0.5 0"/>
<feBlend mode="normal" in2="BackgroundImageFix" result="effect1_dropShadow"/>
<feBlend mode="normal" in="SourceGraphic" in2="effect1_dropShadow" result="shape"/>
</filter>
<filter id="filter4_d" x="415" y="26" width="70" height="70" filterUnits="userSpaceOnUse" color-interpolation-filters="sRGB">
<feFlood flood-opacity="0" result="BackgroundImageFix"/>
<feColorMatrix in="SourceAlpha" type="matrix" values="0 0 0 0 0 0 0 0 0 0 0 0 0 0 0 0 0 0 127 0"/>
<feOffset dx="6" dy="6"/>
<feGaussianBlur stdDeviation="5"/>
<feColorMatrix type="matrix" values="0 0 0 0 0.168627 0 0 0 0 0.160784 0 0 0 0 0.247059 0 0 0 1 0"/>
<feBlend mode="normal" in2="BackgroundImageFix" result="effect1_dropShadow"/>
<feBlend mode="normal" in="SourceGraphic" in2="effect1_dropShadow" result="shape"/>
</filter>
<filter id="filter5_d" x="413.333" y="36.3333" width="49.3333" height="49.3333" filterUnits="userSpaceOnUse" color-interpolation-filters="sRGB">
<feFlood flood-opacity="0" result="BackgroundImageFix"/>
<feColorMatrix in="SourceAlpha" type="matrix" values="0 0 0 0 0 0 0 0 0 0 0 0 0 0 0 0 0 0 127 0"/>
<feOffset dx="-6" dy="6"/>
<feGaussianBlur stdDeviation="4"/>
<feColorMatrix type="matrix" values="0 0 0 0 0.124242 0 0 0 0 0.116667 0 0 0 0 0.2 0 0 0 0.5 0"/>
<feBlend mode="normal" in2="BackgroundImageFix" result="effect1_dropShadow"/>
<feBlend mode="normal" in="SourceGraphic" in2="effect1_dropShadow" result="shape"/>
</filter>
<radialGradient id="paint0_radial" cx="0" cy="0" r="1" gradientUnits="userSpaceOnUse" gradientTransform="translate(218.5 225) rotate(90) scale(174 218.5)">
<stop stop-color="#6FD1C5" stop-opacity="0.5"/>
<stop offset="0.39485" stop-color="#6FD1C5" stop-opacity="0.15"/>
<stop offset="0.686437" stop-color="#6FD1C5" stop-opacity="0.1"/>
<stop offset="1" stop-color="#6FD1C5" stop-opacity="0"/>
</radialGradient>
<radialGradient id="paint1_radial" cx="0" cy="0" r="1" gradientUnits="userSpaceOnUse" gradientTransform="translate(150 99) rotate(90) scale(35)">
<stop stop-color="#35353D" stop-opacity="0.75"/>
<stop offset="1" stop-color="#23222E"/>
</radialGradient>
<radialGradient id="paint2_radial" cx="0" cy="0" r="1" gradientUnits="userSpaceOnUse" gradientTransform="translate(400 340) rotate(90) scale(50)">
<stop stop-color="#35353D" stop-opacity="0.75"/>
<stop offset="1" stop-color="#23222E"/>
</radialGradient>
<radialGradient id="paint3_radial" cx="0" cy="0" r="1" gradientUnits="userSpaceOnUse" gradientTransform="translate(444 55) rotate(90) scale(25)">
<stop stop-color="#35353D" stop-opacity="0.75"/>
<stop offset="1" stop-color="#23222E"/>
</radialGradient>
<clipPath id="clip0">
<rect width="33.3333" height="33.3333" fill="white" transform="translate(427.333 38.3333)"/>
</clipPath>
</defs>
</svg>
