<svg width="134" height="44" viewBox="0 0 134 44" fill="none" xmlns="http://www.w3.org/2000/svg">
<path d="M32.9567 15.5005H17.3113V20.1362H28.3935C27.8503 26.6551 22.4178 29.4076 17.3113 29.4076C10.7562 29.4076 5.07027 24.2649 5.07027 17.0578C5.07027 10.0319 10.5027 4.63568 17.3113 4.63568C22.5627 4.63568 25.6773 8.00379 25.6773 8.00379L28.9367 4.63568C28.9367 4.63568 24.7719 0 17.1665 0C7.49676 0 0 8.18487 0 16.9854C0 25.6411 7.06216 34.0795 17.42 34.0795C26.5465 34.0795 33.2103 27.8141 33.2103 18.5789C33.2103 16.6232 32.9567 15.5005 32.9567 15.5005Z" fill="#4285F4"/>
<path d="M45.7414 12.1323C39.3312 12.1323 34.7317 17.1664 34.7317 22.9972C34.7317 28.9366 39.1863 34.0431 45.8139 34.0431C51.8257 34.0431 56.7149 29.4437 56.7149 23.1421C56.7512 15.8626 51.029 12.1323 45.7414 12.1323ZM45.8139 16.4421C48.9647 16.4421 51.9706 18.9772 51.9706 23.1058C51.9706 27.1258 49.0009 29.7696 45.8139 29.7696C42.3009 29.7696 39.5484 26.981 39.5484 23.1058C39.5484 19.2669 42.2647 16.4421 45.8139 16.4421Z" fill="#EA4335"/>
<path d="M69.7161 12.1323C63.3059 12.1323 58.7064 17.1664 58.7064 22.9972C58.7064 28.9366 63.161 34.0431 69.7886 34.0431C75.8005 34.0431 80.6897 29.4437 80.6897 23.1421C80.6897 15.8626 74.9675 12.1323 69.7161 12.1323ZM69.7886 16.4421C72.9394 16.4421 75.9453 18.9772 75.9453 23.1058C75.9453 27.1258 72.9756 29.7696 69.7886 29.7696C66.2756 29.7696 63.5232 26.981 63.5232 23.1058C63.487 19.2669 66.2394 16.4421 69.7886 16.4421Z" fill="#FBBC05"/>
<path d="M93.1839 12.1323C87.2806 12.1323 82.6812 17.275 82.6812 23.0696C82.6812 29.661 88.0412 34.0431 93.1114 34.0431C96.226 34.0431 97.892 32.8118 99.1233 31.3631V33.5361C99.1233 37.3026 96.8417 39.5842 93.3649 39.5842C90.033 39.5842 88.3309 37.0853 87.7514 35.6729L83.5504 37.4475C85.0352 40.5983 88.0412 43.8939 93.4012 43.8939C99.2682 43.8939 103.723 40.1999 103.723 32.4858V12.7842H99.1233V14.6312C97.7109 13.1464 95.7552 12.1323 93.1839 12.1323ZM93.6185 16.4421C96.5158 16.4421 99.4855 18.9048 99.4855 23.1058C99.4855 27.3794 96.5157 29.7334 93.5822 29.7334C90.4314 29.7334 87.5341 27.1983 87.5341 23.1421C87.4979 18.941 90.5401 16.4421 93.6185 16.4421Z" fill="#4285F4"/>
<path d="M124.113 12.1323C118.572 12.1323 113.9 16.5507 113.9 23.0696C113.9 29.9869 119.115 34.0793 124.656 34.0793C129.292 34.0793 132.153 31.5442 133.819 29.2626L130.016 26.7275C129.038 28.2485 127.372 29.7334 124.656 29.7334C121.578 29.7334 120.165 28.0312 119.296 26.4015L134 20.3172L133.239 18.5426C131.827 15.0296 128.495 12.1323 124.113 12.1323ZM124.33 16.3334C126.322 16.3334 127.771 17.3837 128.386 18.6875L118.572 22.7799C118.137 19.5929 121.143 16.3334 124.33 16.3334Z" fill="#EA4335"/>
<path d="M111.727 1.12305H106.91V33.4279H111.727V1.12305Z" fill="#34A853"/>
</svg>
